<?xml version="1.0" encoding="utf-8"?>
<!-- Generator: Adobe Illustrator 16.0.0, SVG Export Plug-In . SVG Version: 6.00 Build 0)  -->
<!DOCTYPE svg PUBLIC "-//W3C//DTD SVG 1.1//EN" "http://www.w3.org/Graphics/SVG/1.1/DTD/svg11.dtd">
<svg version="1.1" xmlns="http://www.w3.org/2000/svg" xmlns:xlink="http://www.w3.org/1999/xlink" x="0px" y="0px"
	 width="205.759px" height="190.108px" viewBox="0 0 205.759 190.108" enable-background="new 0 0 205.759 190.108"
	 xml:space="preserve">
<g id="backgroud" display="none">
	
		<radialGradient id="SVGID_1_" cx="223.8809" cy="658.0781" r="1197.0635" gradientTransform="matrix(1 0 0 0.6667 0 16.2573)" gradientUnits="userSpaceOnUse">
		<stop  offset="0" style="stop-color:#FFFFFF"/>
		<stop  offset="0.2408" style="stop-color:#F5F7F8"/>
		<stop  offset="0.6445" style="stop-color:#DBE1E6"/>
		<stop  offset="1" style="stop-color:#BFCAD2"/>
	</radialGradient>
	<rect x="-377.619" y="47.998" display="inline" fill="url(#SVGID_1_)" width="1200" height="800"/>
</g>
<g id="object">
	<g>
		<g>
			<g>
				<g>
					<path fill="#1B1464" d="M39.282,137.119c-0.647-0.87-1.447-1.523-2.398-1.959c-0.951-0.435-1.943-0.653-2.977-0.653
						c-1.194,0-2.292,0.243-3.295,0.729c-1.002,0.485-1.867,1.139-2.596,1.959c-0.729,0.819-1.296,1.771-1.701,2.854
						c-0.405,1.083-0.607,2.212-0.607,3.386c0,1.255,0.202,2.425,0.607,3.507c0.405,1.084,0.967,2.025,1.686,2.824
						c0.719,0.8,1.579,1.433,2.581,1.898c1.003,0.466,2.11,0.698,3.325,0.698c1.316,0,2.49-0.258,3.523-0.774
						c1.032-0.517,1.933-1.26,2.703-2.231l1.912,1.608c-0.971,1.296-2.141,2.248-3.507,2.855s-2.911,0.911-4.632,0.911
						c-1.539,0-2.976-0.284-4.312-0.851c-1.337-0.566-2.495-1.352-3.478-2.354s-1.751-2.191-2.308-3.568
						c-0.558-1.376-0.835-2.885-0.835-4.524c0-1.579,0.268-3.057,0.805-4.434c0.536-1.377,1.29-2.571,2.262-3.584
						c0.973-1.013,2.127-1.812,3.463-2.398c1.336-0.588,2.803-0.881,4.402-0.881c1.458,0,2.859,0.263,4.207,0.789
						c1.346,0.527,2.474,1.388,3.385,2.582L39.282,137.119z"/>
					<path fill="#1B1464" d="M57.868,154.732c-1.641,0-3.143-0.284-4.51-0.851s-2.551-1.352-3.553-2.354s-1.782-2.196-2.339-3.584
						c-0.558-1.386-0.835-2.889-0.835-4.509s0.277-3.123,0.835-4.51c0.557-1.386,1.337-2.582,2.339-3.583
						c1.002-1.003,2.186-1.787,3.553-2.354c1.367-0.567,2.869-0.851,4.51-0.851c1.64,0,3.143,0.283,4.509,0.851
						c1.367,0.566,2.552,1.351,3.554,2.354c1.002,1.001,1.781,2.197,2.338,3.583c0.557,1.387,0.836,2.89,0.836,4.51
						s-0.279,3.123-0.836,4.509c-0.557,1.388-1.336,2.582-2.338,3.584s-2.187,1.787-3.554,2.354
						C61.011,154.448,59.508,154.732,57.868,154.732z M57.868,152.363c1.255,0,2.404-0.232,3.447-0.698
						c1.042-0.466,1.938-1.104,2.688-1.913c0.748-0.81,1.33-1.756,1.746-2.84c0.414-1.082,0.621-2.242,0.621-3.477
						c0-1.235-0.207-2.395-0.621-3.478c-0.416-1.082-0.998-2.029-1.746-2.839c-0.75-0.81-1.646-1.447-2.688-1.913
						c-1.043-0.466-2.192-0.699-3.447-0.699c-1.256,0-2.404,0.233-3.447,0.699s-1.939,1.104-2.688,1.913
						c-0.749,0.81-1.332,1.757-1.746,2.839c-0.415,1.083-0.622,2.242-0.622,3.478c0,1.234,0.207,2.395,0.622,3.477
						c0.414,1.084,0.997,2.03,1.746,2.84c0.748,0.81,1.645,1.447,2.688,1.913S56.612,152.363,57.868,152.363z"/>
					<path fill="#1B1464" d="M75.481,132.685h3.795l7.289,16.855h0.061l7.349-16.855h3.705v21.501h-2.551v-18.038h-0.061
						l-7.714,18.038h-1.549l-7.713-18.038h-0.061v18.038h-2.551V132.685z"/>
					<path fill="#1B1464" d="M105.302,132.685h6.377c0.992,0,1.939,0.097,2.84,0.289s1.701,0.517,2.398,0.972
						c0.699,0.455,1.256,1.063,1.671,1.822s0.622,1.696,0.622,2.809c0,1.175-0.223,2.146-0.668,2.916s-1.017,1.377-1.715,1.822
						c-0.699,0.445-1.463,0.759-2.293,0.94c-0.831,0.183-1.621,0.273-2.369,0.273h-4.313v9.657h-2.551V132.685z M107.853,142.16
						h4.313c1.275,0,2.313-0.288,3.113-0.866c0.799-0.576,1.199-1.473,1.199-2.687c0-1.216-0.4-2.111-1.199-2.688
						c-0.801-0.576-1.838-0.865-3.113-0.865h-4.313V142.16z"/>
					<path fill="#1B1464" d="M130.325,132.685h2.398l9.141,21.501h-2.976l-2.187-5.284h-10.75l-2.217,5.284h-2.885L130.325,132.685z
						 M131.479,135.965h-0.062l-4.464,10.567h8.776L131.479,135.965z"/>
					<path fill="#1B1464" d="M146.997,132.685h3.219l12.451,17.856h0.061v-17.856h2.551v21.501h-3.219l-12.451-17.856h-0.061v17.856
						h-2.551V132.685z"/>
					<path fill="#1B1464" d="M177.972,144.923l-8.018-12.238h3.25l6.043,9.719l6.226-9.719h3.067l-8.018,12.238v9.263h-2.551
						V144.923z"/>
				</g>
				<g>
					<linearGradient id="SVGID_2_" gradientUnits="userSpaceOnUse" x1="69.9971" y1="168.0361" x2="76.4873" y2="168.0361">
						<stop  offset="0" style="stop-color:#93D8DE"/>
						<stop  offset="1" style="stop-color:#65C8D0"/>
					</linearGradient>
					<path fill="url(#SVGID_2_)" d="M75.541,164.6c-0.22-0.306-0.501-0.552-0.845-0.738s-0.76-0.279-1.246-0.279
						c-0.248,0-0.502,0.038-0.76,0.114c-0.258,0.077-0.491,0.193-0.701,0.352c-0.211,0.157-0.381,0.355-0.509,0.594
						c-0.129,0.239-0.193,0.521-0.193,0.846s0.062,0.592,0.186,0.802c0.124,0.211,0.288,0.389,0.493,0.537s0.438,0.271,0.699,0.365
						c0.262,0.096,0.536,0.191,0.822,0.287c0.352,0.114,0.706,0.238,1.063,0.372s0.679,0.308,0.965,0.522
						c0.285,0.215,0.519,0.487,0.7,0.817c0.18,0.329,0.271,0.747,0.271,1.253s-0.098,0.943-0.291,1.311
						c-0.192,0.367-0.443,0.671-0.751,0.909c-0.309,0.239-0.661,0.416-1.058,0.53s-0.795,0.172-1.195,0.172
						c-0.307,0-0.611-0.031-0.917-0.094c-0.306-0.062-0.597-0.154-0.874-0.278s-0.535-0.282-0.773-0.474
						c-0.238-0.189-0.449-0.41-0.631-0.658l0.889-0.659c0.22,0.363,0.527,0.667,0.924,0.909c0.396,0.244,0.861,0.366,1.396,0.366
						c0.258,0,0.521-0.041,0.789-0.122c0.267-0.081,0.508-0.205,0.723-0.372c0.215-0.168,0.392-0.373,0.529-0.616
						c0.139-0.243,0.208-0.528,0.208-0.853c0-0.353-0.069-0.646-0.208-0.881c-0.138-0.234-0.322-0.43-0.551-0.587
						c-0.229-0.158-0.492-0.289-0.787-0.395c-0.297-0.104-0.607-0.21-0.932-0.314c-0.334-0.105-0.664-0.225-0.988-0.358
						c-0.325-0.134-0.616-0.309-0.874-0.522c-0.259-0.216-0.466-0.48-0.623-0.796c-0.157-0.314-0.236-0.701-0.236-1.16
						c0-0.487,0.098-0.906,0.294-1.26c0.195-0.354,0.451-0.646,0.766-0.874c0.315-0.229,0.664-0.396,1.046-0.501
						s0.759-0.158,1.132-0.158c0.688,0,1.274,0.122,1.762,0.365c0.487,0.244,0.854,0.533,1.104,0.866L75.541,164.6z"/>
					<linearGradient id="SVGID_3_" gradientUnits="userSpaceOnUse" x1="81.5713" y1="168.0361" x2="87.3301" y2="168.0361">
						<stop  offset="0" style="stop-color:#93D8DE"/>
						<stop  offset="1" style="stop-color:#65C8D0"/>
					</linearGradient>
					<path fill="url(#SVGID_3_)" d="M82.603,172.19h4.728v0.917h-5.759v-10.142h1.031V172.19z"/>
					<linearGradient id="SVGID_4_" gradientUnits="userSpaceOnUse" x1="90.7676" y1="168.0361" x2="101.3389" y2="168.0361">
						<stop  offset="0" style="stop-color:#93D8DE"/>
						<stop  offset="1" style="stop-color:#65C8D0"/>
					</linearGradient>
					<path fill="url(#SVGID_4_)" d="M101.339,168.037c0,0.773-0.135,1.484-0.401,2.134s-0.638,1.211-1.11,1.683
						c-0.473,0.474-1.031,0.844-1.676,1.11c-0.645,0.268-1.344,0.401-2.098,0.401c-0.755,0-1.455-0.134-2.1-0.401
						c-0.645-0.267-1.203-0.637-1.676-1.11c-0.473-0.472-0.842-1.033-1.109-1.683s-0.401-1.36-0.401-2.134
						c0-0.774,0.134-1.484,0.401-2.135c0.268-0.649,0.637-1.211,1.109-1.683c0.473-0.474,1.031-0.843,1.676-1.11
						s1.345-0.401,2.1-0.401c0.754,0,1.453,0.134,2.098,0.401s1.203,0.637,1.676,1.11c0.473,0.472,0.844,1.033,1.11,1.683
						C101.204,166.553,101.339,167.263,101.339,168.037z M100.251,168.044c0-0.591-0.096-1.153-0.287-1.688
						c-0.191-0.533-0.469-1.003-0.831-1.409c-0.362-0.404-0.805-0.727-1.325-0.965s-1.105-0.357-1.754-0.357
						c-0.65,0-1.234,0.119-1.755,0.357s-0.963,0.561-1.325,0.965c-0.363,0.406-0.641,0.876-0.831,1.409
						c-0.19,0.534-0.286,1.097-0.286,1.688s0.096,1.153,0.286,1.688s0.468,1.001,0.831,1.401c0.362,0.4,0.805,0.72,1.325,0.958
						c0.521,0.239,1.104,0.357,1.755,0.357c0.648,0,1.233-0.118,1.754-0.357c0.521-0.238,0.963-0.558,1.325-0.958
						s0.64-0.867,0.831-1.401S100.251,168.635,100.251,168.044z"/>
					<linearGradient id="SVGID_5_" gradientUnits="userSpaceOnUse" x1="105.8076" y1="168.0361" x2="114.875" y2="168.0361">
						<stop  offset="0" style="stop-color:#93D8DE"/>
						<stop  offset="1" style="stop-color:#65C8D0"/>
					</linearGradient>
					<path fill="url(#SVGID_5_)" d="M114.044,164.8c-0.354-0.372-0.773-0.661-1.26-0.867c-0.488-0.205-1.047-0.308-1.677-0.308
						c-0.649,0-1.233,0.119-1.755,0.357c-0.52,0.238-0.962,0.561-1.324,0.965c-0.363,0.406-0.643,0.876-0.838,1.409
						c-0.196,0.534-0.295,1.097-0.295,1.688s0.099,1.153,0.295,1.688c0.195,0.534,0.475,1.001,0.838,1.401
						c0.362,0.4,0.805,0.72,1.324,0.958c0.521,0.239,1.105,0.357,1.755,0.357c0.573,0,1.099-0.062,1.575-0.187
						c0.479-0.123,0.865-0.28,1.161-0.472v-3.08h-2.363v-0.917h3.395v4.582c-0.554,0.335-1.151,0.583-1.79,0.746
						c-0.641,0.163-1.305,0.244-1.992,0.244c-0.764,0-1.471-0.134-2.119-0.401c-0.65-0.267-1.209-0.637-1.677-1.11
						c-0.468-0.472-0.833-1.033-1.095-1.683c-0.264-0.649-0.395-1.36-0.395-2.134c0-0.774,0.134-1.484,0.401-2.135
						c0.267-0.649,0.638-1.211,1.11-1.683c0.473-0.474,1.031-0.843,1.676-1.11s1.344-0.401,2.098-0.401
						c0.813,0,1.52,0.121,2.121,0.363c0.602,0.244,1.117,0.581,1.547,1.012L114.044,164.8z"/>
					<linearGradient id="SVGID_6_" gradientUnits="userSpaceOnUse" x1="119.1719" y1="168.0361" x2="128.9121" y2="168.0361">
						<stop  offset="0" style="stop-color:#93D8DE"/>
						<stop  offset="1" style="stop-color:#65C8D0"/>
					</linearGradient>
					<path fill="url(#SVGID_6_)" d="M120.304,173.107h-1.132l4.384-10.142h1.002l4.354,10.142h-1.146l-1.117-2.664h-5.243
						L120.304,173.107z M121.794,169.498h4.469l-2.234-5.387L121.794,169.498z"/>
					<linearGradient id="SVGID_7_" gradientUnits="userSpaceOnUse" x1="133.2666" y1="168.0361" x2="141.5166" y2="168.0361">
						<stop  offset="0" style="stop-color:#93D8DE"/>
						<stop  offset="1" style="stop-color:#65C8D0"/>
					</linearGradient>
					<path fill="url(#SVGID_7_)" d="M140.458,171.604h0.028v-8.638h1.03v10.142h-1.288l-5.901-8.724h-0.029v8.724h-1.031v-10.142
						h1.289L140.458,171.604z"/>
				</g>
			</g>
			<g>
				<polygon fill="none" points="101.66,37.527 101.658,37.527 101.659,37.527 				"/>
				<linearGradient id="SVGID_8_" gradientUnits="userSpaceOnUse" x1="85.8975" y1="30.6123" x2="134.6572" y2="30.6123">
					<stop  offset="0" style="stop-color:#93D8DE"/>
					<stop  offset="1" style="stop-color:#65C8D0"/>
				</linearGradient>
				<path fill="url(#SVGID_8_)" d="M134.657,30.707c-3.42-0.66-6.89-1.02-10.359-1.02c-6.541,0-13.07,1.18-19.271,3.529l-0.03,0.011
					l-0.119,0.05c-0.851,0.319-1.681,0.67-2.51,1.04l-0.23,0.1h-0.01c-0.84,0.38-1.67,0.78-2.49,1.2h-0.01l-0.221,0.12
					c-0.8,0.41-1.59,0.85-2.38,1.3c-0.12,0.08-0.239,0.15-0.35,0.221c-0.7,0.409-1.38,0.839-2.05,1.279
					c-0.07,0.05-0.19,0.11-0.34,0.21c-2.931,1.96-5.73,4.23-8.311,6.82v0.01c-0.01,0-0.01,0-0.01,0
					c-0.021,0.02-0.051,0.05-0.07,0.08c0.1-0.24,0.189-0.479,0.29-0.71l0.01-0.01l0.05-0.12c0.461-1.03,0.961-2.04,1.5-3.04
					c3.16-5.91,7.45-11.11,12.61-15.311l0.011-0.01l0.01-0.01c0.279-0.23,0.59-0.46,0.899-0.7c0.229-0.18,0.44-0.35,0.63-0.5
					c0.17-0.12,0.36-0.25,0.561-0.4c0.35-0.25,0.689-0.5,1.02-0.729c0.51-0.359,1.03-0.7,1.551-1.03l0.02-0.01l0.061-0.04
					c0.549-0.35,1.1-0.69,1.659-1.01l0.011-0.01c5.879-3.431,12.51-5.671,19.59-6.45C130.087,20.197,132.837,25.327,134.657,30.707z
					"/>
				<linearGradient id="SVGID_9_" gradientUnits="userSpaceOnUse" x1="125.4873" y1="69.8818" x2="155.5479" y2="69.8818">
					<stop  offset="0" style="stop-color:#93D8DE"/>
					<stop  offset="1" style="stop-color:#65C8D0"/>
				</linearGradient>
				<path fill="url(#SVGID_9_)" d="M141.308,87.407c0.07-1.17,0.109-2.34,0.109-3.51c0-6.53-1.18-13.07-3.529-19.26l-0.01-0.03
					l-0.041-0.1c-0.299-0.761-0.6-1.521-0.93-2.261c-0.16-0.38-0.34-0.739-0.49-1.08c-0.14-0.3-0.279-0.63-0.449-0.979l-0.01-0.021
					l-0.11-0.22c-0.07-0.14-0.14-0.28-0.21-0.41l-0.04-0.09c0-0.01-0.011-0.01-0.011-0.02c-0.01-0.011-0.01-0.021-0.01-0.03
					l-0.029-0.051l-0.021-0.039l-0.021-0.04l-0.02-0.04c-0.09-0.181-0.18-0.36-0.279-0.54l-0.011-0.01l-0.01-0.03l-0.01-0.01
					c-0.14-0.271-0.28-0.541-0.44-0.811l-0.01-0.02l-0.01-0.021l-0.03-0.06l-0.09-0.141v-0.01c-0.181-0.33-0.37-0.67-0.57-1.02
					l-0.01-0.011l-0.011-0.02l-0.01-0.02l-0.01-0.021c-0.25-0.42-0.51-0.86-0.8-1.31l-0.01-0.021c-0.261-0.41-0.53-0.83-0.8-1.25
					l-0.03-0.04l-0.03-0.04c-0.12-0.18-0.27-0.41-0.439-0.66l-0.09-0.13l-0.011-0.02l-0.03-0.03l-0.01-0.01l-0.029-0.05
					l-0.021-0.021l-0.01-0.02l-0.14-0.19l-0.011-0.02c-0.22-0.311-0.44-0.62-0.68-0.94v-0.01h-0.011l-0.029-0.05
					c-0.01,0-0.01,0-0.01-0.011c-0.2-0.279-0.41-0.55-0.631-0.83c-0.14-0.18-0.25-0.319-0.319-0.409c-0.2-0.271-0.41-0.53-0.63-0.79
					l-0.01-0.011l-0.101-0.119c-0.239-0.301-0.5-0.61-0.78-0.931l-0.01-0.01v-0.01c-0.88-1.021-1.811-2.011-2.779-2.99
					c-0.021-0.01-0.031-0.03-0.051-0.05c0.26,0.109,0.54,0.22,0.801,0.34c9.58,4.3,17.549,11.52,22.799,20.53l0.021,0.029
					c3.42,5.87,5.66,12.5,6.44,19.561c-4.62,3.71-9.74,6.45-15.12,8.27c0.03-0.18,0.06-0.35,0.079-0.5
					c0.07-0.37,0.141-0.739,0.211-1.13v-0.03l0.01-0.04c0.18-1.13,0.33-2.27,0.439-3.409c0.03-0.33,0.051-0.641,0.07-0.94
					C141.257,87.947,141.288,87.688,141.308,87.407z"/>
				<linearGradient id="SVGID_10_" gradientUnits="userSpaceOnUse" x1="76.8477" y1="100.1074" x2="125.6074" y2="100.1074">
					<stop  offset="0" style="stop-color:#93D8DE"/>
					<stop  offset="1" style="stop-color:#65C8D0"/>
				</linearGradient>
				<path fill="url(#SVGID_10_)" d="M125.607,85.067c-0.05,0.11-0.09,0.22-0.14,0.32c-0.08,0.199-0.15,0.37-0.211,0.51
					c-4.299,9.569-11.529,17.55-20.529,22.79c-5.88,3.43-12.51,5.67-19.59,6.46c-3.71-4.63-6.46-9.76-8.29-15.14
					c3.42,0.659,6.88,1.01,10.35,1.01c6.54,0,13.08-1.171,19.28-3.521c0.8-0.31,1.59-0.64,2.37-0.979l0.17-0.07h0.021l0.02-0.01
					c0.42-0.19,0.83-0.37,1.21-0.55l0.03-0.021l0.029-0.01l0.051-0.03c0.279-0.13,0.55-0.26,0.819-0.39l0.021-0.01l0.029-0.021
					l0.021-0.01l0.069-0.04l0.141-0.07c0,0,0,0,0.01,0l0.11-0.05c0.19-0.09,0.36-0.19,0.521-0.271l0.079-0.039l0.04-0.021l0.01-0.01
					l0.061-0.03l0.07-0.04h0.02l0.01-0.01h0.01v-0.01c0.201-0.101,0.381-0.2,0.561-0.3c0.09-0.041,0.2-0.101,0.33-0.181h0.01
					l0.02-0.01l0.07-0.04h0.01l0.011-0.01c0.3-0.171,0.61-0.351,0.93-0.53l0.14-0.08l0.01-0.01c0.041-0.021,0.181-0.101,0.33-0.2
					c0.24-0.13,0.471-0.27,0.69-0.4c0,0,0,0,0-0.01l0.16-0.09l0.021-0.02h0.01c0.08-0.051,0.229-0.141,0.4-0.25
					c0.35-0.221,0.699-0.45,1.049-0.681l0.041-0.03l0.039-0.02l0.021-0.01c0.319-0.221,0.66-0.45,1.01-0.71l0.021-0.011l0.01-0.01
					l0.02-0.01c0.291-0.2,0.57-0.4,0.83-0.601h0.01c0.011-0.01,0.021-0.01,0.03-0.02c0.48-0.35,0.94-0.7,1.4-1.06l0.09-0.07
					l0.03-0.03c0.24-0.189,0.49-0.39,0.729-0.58l0.03-0.029h0.01l0.1-0.08l0.011-0.011l0.021-0.02l0.02-0.02
					c0.32-0.25,0.619-0.511,0.9-0.75v-0.011c1.029-0.88,2.029-1.8,3-2.779L125.607,85.067z"/>
				<linearGradient id="SVGID_11_" gradientUnits="userSpaceOnUse" x1="75.7705" y1="99.8008" x2="75.7744" y2="99.8008">
					<stop  offset="0" style="stop-color:#93D8DE"/>
					<stop  offset="1" style="stop-color:#65C8D0"/>
				</linearGradient>
				<polygon fill="url(#SVGID_11_)" points="75.774,99.802 75.771,99.801 75.771,99.801 				"/>
				<linearGradient id="SVGID_12_" gradientUnits="userSpaceOnUse" x1="55.9678" y1="60.8271" x2="86.0273" y2="60.8271">
					<stop  offset="0" style="stop-color:#93D8DE"/>
					<stop  offset="1" style="stop-color:#65C8D0"/>
				</linearGradient>
				<path fill="url(#SVGID_12_)" d="M86.027,85.197c-0.2-0.08-0.409-0.16-0.61-0.25l-0.01-0.01l-0.189-0.08
					c-8.131-3.65-15.09-9.41-20.23-16.58c-0.91-1.28-1.779-2.59-2.57-3.95l-0.029-0.05c-3.4-5.86-5.641-12.48-6.42-19.54
					c4.63-3.71,9.76-6.46,15.14-8.28c-0.67,3.42-1.021,6.89-1.021,10.36c0,6.54,1.181,13.07,3.531,19.27
					c1.409,3.721,3.25,7.33,5.529,10.73v0.01c1.96,2.94,4.23,5.72,6.82,8.32C85.987,85.167,86.007,85.188,86.027,85.197z"/>
				<linearGradient id="SVGID_13_" gradientUnits="userSpaceOnUse" x1="74.1777" y1="40.5068" x2="101.6875" y2="40.5068">
					<stop  offset="0" style="stop-color:#221ECA"/>
					<stop  offset="1" style="stop-color:#6461DA"/>
				</linearGradient>
				<path fill="url(#SVGID_13_)" d="M101.688,20.407c-8.33,5.61-15.01,13.48-19.17,22.74c-1.64,3.64-2.88,7.49-3.69,11.51
					c-0.68,3.43-1.05,6.98-1.05,10.62v0.18c-0.11-0.279-0.239-0.55-0.34-0.819c-2.181-5.73-3.26-11.771-3.26-17.82
					c0-4.32,0.55-8.63,1.659-12.83c1.73-6.59,4.841-12.86,9.301-18.43C91.027,16.217,96.598,17.888,101.688,20.407z"/>
				<linearGradient id="SVGID_14_" gradientUnits="userSpaceOnUse" x1="105.667" y1="47.5371" x2="155.5576" y2="47.5371">
					<stop  offset="0" style="stop-color:#221ECA"/>
					<stop  offset="1" style="stop-color:#6461DA"/>
				</linearGradient>
				<path fill="url(#SVGID_14_)" d="M155.558,44.737c-0.66,5.89-2.33,11.46-4.85,16.56c-5.631-8.33-13.48-15.01-22.74-19.17
					c-1.721-0.77-3.49-1.47-5.311-2.06h-0.01c-0.279-0.101-0.55-0.18-0.82-0.26h-0.01l-0.01-0.011c-0.29-0.09-0.58-0.18-0.88-0.26
					l-0.021-0.01h-0.02l-0.08-0.02c-0.46-0.141-0.91-0.261-1.36-0.381c-0.45-0.119-0.94-0.239-1.44-0.35h-0.01l-0.05-0.02
					c-0.479-0.11-0.97-0.211-1.46-0.32h-0.06c0,0,0-0.01-0.011-0.01h-0.039v-0.011c-0.211-0.029-0.471-0.09-0.78-0.149l-0.15-0.03
					h-0.01l-0.05-0.01h-0.03l-0.05-0.011h-0.02l-0.031-0.01c-0.1-0.01-0.189-0.029-0.209-0.029l-0.03-0.011h-0.021
					c-0.359-0.07-0.74-0.13-1.14-0.18l-0.069-0.01c-0.341-0.061-0.69-0.11-1.031-0.15c-0.229-0.03-0.42-0.05-0.539-0.06
					c-0.32-0.051-0.65-0.08-0.99-0.11l-0.01-0.01l-0.15-0.01h-0.01c-0.38-0.041-0.77-0.08-1.2-0.101l-0.03-0.01
					c-1.34-0.1-2.699-0.15-4.07-0.15h-0.09c0.271-0.109,0.53-0.229,0.801-0.34c5.729-2.17,11.789-3.26,17.84-3.26
					c4.311,0,8.62,0.56,12.82,1.66C143.708,37.167,149.987,40.287,155.558,44.737z"/>
				<linearGradient id="SVGID_15_" gradientUnits="userSpaceOnUse" x1="109.8271" y1="90.2021" x2="137.3271" y2="90.2021">
					<stop  offset="0" style="stop-color:#221ECA"/>
					<stop  offset="1" style="stop-color:#6461DA"/>
				</linearGradient>
				<path fill="url(#SVGID_15_)" d="M137.327,83.917c0,4.311-0.55,8.62-1.66,12.811c-1.729,6.58-4.84,12.85-9.289,18.42
					c-5.881-0.66-11.45-2.33-16.551-4.84c8.32-5.63,15-13.49,19.16-22.74v-0.01c0.381-0.83,0.73-1.681,1.07-2.54l0.01-0.021
					c0.17-0.43,0.32-0.85,0.471-1.25v-0.01l0.01-0.03v-0.01l0.029-0.06c0.101-0.301,0.2-0.58,0.291-0.86l0.01-0.01l0.01-0.04
					l0.01-0.021l0.03-0.1c0.09-0.271,0.17-0.521,0.239-0.75l0.051-0.15l0.01-0.01v-0.02c0.12-0.36,0.24-0.74,0.35-1.15l0.01-0.02
					v-0.03c0.141-0.44,0.25-0.87,0.36-1.3c0.021-0.061,0.06-0.2,0.101-0.381c0.07-0.27,0.14-0.539,0.199-0.779v-0.01
					c0,0,0,0,0-0.011l0.041-0.17l0.01-0.01v-0.01c0.02-0.091,0.06-0.25,0.1-0.461c0.09-0.399,0.18-0.81,0.27-1.22l0.011-0.05v-0.04
					l0.01-0.029c0.069-0.391,0.16-0.811,0.229-1.25c0,0,0,0,0-0.011c0.07-0.359,0.121-0.72,0.17-1.05c0,0,0,0,0-0.01
					c0.101-0.591,0.17-1.16,0.24-1.74l0.021-0.12v-0.04c0.04-0.31,0.069-0.609,0.11-0.93v-0.03l0.01-0.149l0.01-0.03
					c0.04-0.41,0.07-0.82,0.1-1.2c0.101-1.351,0.15-2.71,0.15-4.09v-0.1c0.109,0.279,0.23,0.55,0.34,0.829
					C136.237,71.817,137.327,77.867,137.327,83.917z"/>
				<linearGradient id="SVGID_16_" gradientUnits="userSpaceOnUse" x1="55.958" y1="83.1768" x2="105.8477" y2="83.1768">
					<stop  offset="0" style="stop-color:#221ECA"/>
					<stop  offset="1" style="stop-color:#6461DA"/>
				</linearGradient>
				<path fill="url(#SVGID_16_)" d="M105.848,93.337c-0.271,0.11-0.55,0.23-0.82,0.341c-5.729,2.169-11.78,3.26-17.83,3.26
					c-4.31,0-8.62-0.561-12.819-1.66c-6.58-1.74-12.86-4.85-18.42-9.3c0.649-5.891,2.33-11.47,4.85-16.561
					c5.609,8.33,13.48,15.011,22.73,19.17c3.64,1.65,7.489,2.891,11.51,3.69c3.459,0.7,7.039,1.069,10.709,1.069
					C105.788,93.347,105.817,93.337,105.848,93.337z"/>
			</g>
		</g>
	</g>
</g>
</svg>
