<?xml version="1.0" encoding="utf-8"?>
<!-- Generator: Adobe Illustrator 16.0.0, SVG Export Plug-In . SVG Version: 6.00 Build 0)  -->
<!DOCTYPE svg PUBLIC "-//W3C//DTD SVG 1.1//EN" "http://www.w3.org/Graphics/SVG/1.1/DTD/svg11.dtd">
<svg version="1.1" xmlns="http://www.w3.org/2000/svg" xmlns:xlink="http://www.w3.org/1999/xlink" x="0px" y="0px"
	 width="205.759px" height="190.108px" viewBox="0 0 205.759 190.108" enable-background="new 0 0 205.759 190.108"
	 xml:space="preserve">
<g id="backgroud" display="none">
	
		<radialGradient id="SVGID_1_" cx="687.8809" cy="450.0781" r="1197.0635" gradientTransform="matrix(1 0 0 0.6667 0 -53.0688)" gradientUnits="userSpaceOnUse">
		<stop  offset="0" style="stop-color:#FFFFFF"/>
		<stop  offset="0.2408" style="stop-color:#F5F7F8"/>
		<stop  offset="0.6445" style="stop-color:#DBE1E6"/>
		<stop  offset="1" style="stop-color:#BFCAD2"/>
	</radialGradient>
	<rect x="86.381" y="-160.002" display="inline" fill="url(#SVGID_1_)" width="1200" height="800"/>
</g>
<g id="object">
	<g>
		<g>
			<g>
				<path d="M35.541,136.885c-0.648-0.87-1.448-1.523-2.399-1.958c-0.952-0.436-1.943-0.653-2.976-0.653
					c-1.195,0-2.292,0.243-3.295,0.729c-1.002,0.486-1.868,1.139-2.597,1.959c-0.729,0.82-1.295,1.771-1.7,2.854
					c-0.406,1.083-0.607,2.212-0.607,3.386c0,1.256,0.202,2.426,0.607,3.508c0.405,1.083,0.966,2.024,1.685,2.824
					c0.718,0.8,1.579,1.433,2.581,1.897c1.002,0.467,2.111,0.699,3.326,0.699c1.316,0,2.49-0.258,3.523-0.774
					c1.032-0.517,1.933-1.261,2.703-2.232l1.913,1.609c-0.971,1.296-2.141,2.247-3.507,2.855c-1.367,0.606-2.911,0.911-4.631,0.911
					c-1.539,0-2.976-0.284-4.312-0.852c-1.336-0.565-2.496-1.351-3.478-2.354c-0.982-1.002-1.751-2.191-2.308-3.567
					c-0.557-1.377-0.835-2.885-0.835-4.525c0-1.579,0.269-3.056,0.805-4.434c0.536-1.376,1.29-2.571,2.262-3.583
					c0.972-1.013,2.126-1.812,3.462-2.399c1.336-0.587,2.804-0.88,4.403-0.88c1.458,0,2.859,0.263,4.206,0.789
					c1.346,0.527,2.474,1.388,3.386,2.581L35.541,136.885z"/>
				<path d="M54.126,154.499c-1.64,0-3.143-0.284-4.51-0.852c-1.367-0.565-2.551-1.351-3.553-2.354
					c-1.002-1.002-1.782-2.196-2.338-3.583c-0.557-1.387-0.835-2.89-0.835-4.51c0-1.619,0.278-3.123,0.835-4.509
					c0.557-1.387,1.336-2.582,2.338-3.584s2.187-1.787,3.553-2.354s2.87-0.85,4.51-0.85c1.64,0,3.143,0.283,4.509,0.85
					c1.367,0.566,2.551,1.352,3.553,2.354s1.782,2.197,2.338,3.584c0.557,1.386,0.835,2.89,0.835,4.509
					c0,1.62-0.278,3.123-0.835,4.51c-0.557,1.387-1.336,2.581-2.338,3.583c-1.002,1.003-2.186,1.788-3.553,2.354
					C57.269,154.215,55.766,154.499,54.126,154.499z M54.126,152.13c1.255,0,2.404-0.232,3.447-0.699
					c1.042-0.465,1.938-1.103,2.688-1.913c0.748-0.809,1.331-1.756,1.746-2.839c0.415-1.083,0.622-2.242,0.622-3.478
					c0-1.234-0.208-2.394-0.622-3.477c-0.416-1.083-0.998-2.029-1.746-2.84c-0.75-0.81-1.645-1.446-2.688-1.913
					c-1.043-0.465-2.192-0.698-3.447-0.698c-1.256,0-2.405,0.233-3.447,0.698c-1.043,0.467-1.939,1.104-2.687,1.913
					c-0.75,0.811-1.332,1.757-1.747,2.84c-0.415,1.083-0.622,2.242-0.622,3.477c0,1.235,0.207,2.395,0.622,3.478
					c0.415,1.083,0.997,2.03,1.747,2.839c0.748,0.811,1.644,1.448,2.687,1.913C51.722,151.897,52.871,152.13,54.126,152.13z"/>
				<path d="M71.739,132.451h3.796l7.288,16.854h0.061l7.349-16.854h3.705v21.501h-2.551v-18.038h-0.061l-7.714,18.038h-1.548
					l-7.713-18.038H74.29v18.038h-2.551V132.451z"/>
				<path d="M101.56,132.451h6.377c0.992,0,1.938,0.097,2.839,0.288c0.901,0.193,1.701,0.517,2.399,0.973
					c0.699,0.455,1.255,1.063,1.67,1.821c0.415,0.76,0.622,1.696,0.622,2.81c0,1.175-0.223,2.146-0.668,2.915
					s-1.017,1.377-1.715,1.822c-0.699,0.446-1.463,0.759-2.293,0.941c-0.831,0.183-1.62,0.273-2.368,0.273h-4.313v9.657h-2.551
					V132.451z M104.111,141.926h4.313c1.275,0,2.312-0.288,3.112-0.865c0.799-0.577,1.2-1.473,1.2-2.688s-0.4-2.11-1.2-2.688
					c-0.8-0.577-1.837-0.865-3.112-0.865h-4.313V141.926z"/>
				<path d="M126.583,132.451h2.399l9.14,21.501h-2.976l-2.187-5.284h-10.75l-2.217,5.284h-2.885L126.583,132.451z M127.737,135.731
					h-0.061l-4.464,10.567h8.776L127.737,135.731z"/>
				<path d="M143.255,132.451h3.219l12.451,17.856h0.061v-17.856h2.551v21.501h-3.219l-12.451-17.856h-0.061v17.856h-2.551V132.451z
					"/>
				<path d="M174.23,144.689l-8.018-12.238h3.25l6.043,9.718l6.226-9.718h3.067l-8.017,12.238v9.263h-2.551V144.689z"/>
			</g>
			<g>
				<path fill="#FFC005" d="M71.799,164.365c-0.219-0.306-0.501-0.552-0.845-0.738c-0.344-0.186-0.759-0.278-1.247-0.278
					c-0.248,0-0.501,0.037-0.759,0.114s-0.492,0.193-0.702,0.351c-0.21,0.157-0.38,0.356-0.509,0.595
					c-0.129,0.239-0.193,0.521-0.193,0.845c0,0.325,0.062,0.593,0.186,0.803c0.124,0.21,0.288,0.389,0.493,0.536
					c0.205,0.148,0.438,0.271,0.7,0.366c0.262,0.095,0.536,0.191,0.821,0.286c0.353,0.114,0.707,0.238,1.064,0.372
					s0.678,0.309,0.965,0.523c0.285,0.214,0.519,0.486,0.7,0.816c0.181,0.329,0.271,0.747,0.271,1.253
					c0,0.507-0.097,0.943-0.29,1.312c-0.193,0.367-0.443,0.67-0.751,0.909c-0.309,0.239-0.661,0.415-1.057,0.529
					c-0.396,0.115-0.795,0.173-1.196,0.173c-0.306,0-0.611-0.032-0.917-0.094s-0.597-0.155-0.874-0.279s-0.535-0.281-0.773-0.473
					c-0.239-0.19-0.449-0.41-0.631-0.659l0.889-0.658c0.219,0.363,0.527,0.666,0.924,0.909c0.396,0.243,0.861,0.365,1.396,0.365
					c0.258,0,0.521-0.04,0.789-0.122c0.267-0.081,0.508-0.204,0.723-0.372c0.215-0.167,0.392-0.372,0.53-0.616
					c0.139-0.243,0.208-0.527,0.208-0.852c0-0.354-0.069-0.647-0.208-0.882c-0.138-0.233-0.322-0.43-0.551-0.587
					s-0.492-0.289-0.788-0.394c-0.296-0.104-0.607-0.21-0.931-0.315c-0.334-0.104-0.664-0.225-0.988-0.357
					c-0.325-0.134-0.616-0.309-0.874-0.523c-0.258-0.215-0.466-0.48-0.623-0.795c-0.158-0.315-0.236-0.701-0.236-1.16
					c0-0.487,0.098-0.907,0.293-1.261c0.196-0.353,0.451-0.645,0.767-0.874c0.315-0.229,0.664-0.396,1.045-0.501
					c0.382-0.104,0.759-0.157,1.131-0.157c0.688,0,1.275,0.121,1.762,0.364c0.487,0.244,0.854,0.533,1.103,0.867L71.799,164.365z"/>
				<path fill="#FFC005" d="M78.861,171.957h4.727v0.917H77.83v-10.142h1.031V171.957z"/>
				<path fill="#FFC005" d="M97.597,167.803c0,0.773-0.134,1.485-0.401,2.135s-0.637,1.21-1.11,1.683s-1.032,0.843-1.676,1.11
					c-0.645,0.267-1.344,0.401-2.099,0.401s-1.454-0.135-2.099-0.401c-0.645-0.268-1.203-0.638-1.676-1.11s-0.843-1.033-1.11-1.683
					c-0.268-0.649-0.401-1.361-0.401-2.135s0.133-1.484,0.401-2.135c0.267-0.648,0.637-1.21,1.11-1.683s1.031-0.843,1.676-1.11
					c0.645-0.267,1.344-0.4,2.099-0.4s1.454,0.134,2.099,0.4c0.644,0.268,1.203,0.638,1.676,1.11s0.843,1.034,1.11,1.683
					C97.463,166.318,97.597,167.029,97.597,167.803z M96.509,167.81c0-0.591-0.096-1.152-0.287-1.687
					c-0.191-0.534-0.468-1.004-0.831-1.409s-0.805-0.727-1.325-0.966c-0.521-0.238-1.105-0.357-1.755-0.357
					s-1.234,0.119-1.754,0.357c-0.521,0.239-0.963,0.561-1.325,0.966c-0.363,0.405-0.64,0.875-0.831,1.409s-0.286,1.096-0.286,1.687
					c0,0.592,0.095,1.154,0.286,1.688c0.191,0.533,0.468,1.001,0.831,1.401c0.362,0.4,0.804,0.72,1.325,0.958
					c0.52,0.238,1.105,0.357,1.754,0.357s1.234-0.119,1.755-0.357c0.52-0.238,0.962-0.558,1.325-0.958s0.64-0.868,0.831-1.401
					C96.413,168.964,96.509,168.401,96.509,167.81z"/>
				<path fill="#FFC005" d="M110.302,164.565c-0.353-0.372-0.773-0.661-1.26-0.866s-1.046-0.309-1.676-0.309
					c-0.649,0-1.234,0.119-1.754,0.357c-0.521,0.239-0.962,0.561-1.325,0.966c-0.363,0.405-0.643,0.875-0.838,1.409
					c-0.196,0.534-0.294,1.096-0.294,1.687c0,0.592,0.098,1.154,0.294,1.688c0.195,0.533,0.475,1.001,0.838,1.401
					c0.362,0.4,0.804,0.72,1.325,0.958s1.105,0.357,1.754,0.357c0.573,0,1.098-0.062,1.576-0.187
					c0.478-0.124,0.864-0.281,1.161-0.473v-3.08h-2.363v-0.916h3.395v4.581c-0.554,0.335-1.151,0.584-1.791,0.746
					c-0.64,0.163-1.304,0.245-1.991,0.245c-0.764,0-1.471-0.135-2.12-0.401c-0.649-0.268-1.208-0.638-1.676-1.11
					c-0.467-0.473-0.833-1.033-1.095-1.683c-0.263-0.649-0.394-1.361-0.394-2.135s0.134-1.484,0.401-2.135
					c0.267-0.648,0.637-1.21,1.11-1.683c0.472-0.473,1.031-0.843,1.676-1.11c0.645-0.267,1.344-0.4,2.098-0.4
					c0.812,0,1.519,0.121,2.12,0.363c0.602,0.243,1.117,0.58,1.547,1.011L110.302,164.565z"/>
				<path fill="#FFC005" d="M116.562,172.874h-1.132l4.383-10.142h1.002l4.354,10.142h-1.146l-1.117-2.665h-5.243L116.562,172.874z
					 M118.052,169.264h4.469l-2.234-5.386L118.052,169.264z"/>
				<path fill="#FFC005" d="M136.716,171.369h0.029v-8.637h1.031v10.142h-1.289l-5.902-8.724h-0.029v8.724h-1.031v-10.142h1.289
					L136.716,171.369z"/>
			</g>
		</g>
		<g>
			<path fill="#FF0C5D" d="M91.148,51.968l6.708,6.664c2.302,2.286,6.017,2.287,8.319,0.001l5.514-5.473l1.157-1.229l32.246-32.246
				c1.212-1.212,0.354-3.285-1.361-3.285h-11.329c-3.642,0-7.135,1.447-9.711,4.022L102.016,41.1l-6.833-6.833
				c-2.521-2.521-5.939-3.937-9.503-3.937H69.583l21.602,21.602L91.148,51.968z"/>
			<path fill="#FFC005" d="M112.884,81.387l-6.702-6.657c-2.306-2.29-6.027-2.291-8.333-0.002l-5.507,5.467l-1.157,1.229
				l-32.253,32.252c-1.21,1.21-0.353,3.278,1.358,3.278h11.456c3.567,0,6.989-1.417,9.512-3.939l20.759-20.759l6.739,6.739
				c2.581,2.58,6.081,4.03,9.73,4.03h15.964l-21.602-21.602L112.884,81.387z"/>
			<path fill="#221ECA" d="M76.438,66.677l-6.782,6.782c-2.553,2.554-3.988,6.017-3.988,9.628V99.11L87.27,77.51l0.036,0.035
				l6.683-6.727c2.293-2.309,2.286-6.038-0.017-8.337L54.996,23.566c-1.203-1.2-3.256-0.349-3.256,1.351v11.392
				c0,3.656,1.424,7.094,4.009,9.679L76.438,66.677z"/>
			<path fill="#221ECA" d="M148.342,87.408l-20.633-20.731l6.847-6.88c2.48-2.492,3.873-5.866,3.873-9.383V34.23l-21.508,21.612
				l-0.036-0.036l-6.583,6.655c-2.267,2.292-2.282,5.978-0.034,8.288l6.619,6.801l0.036-0.036l32.175,32.331
				c1.176,1.182,3.192,0.349,3.192-1.317V96.99C152.292,93.372,150.889,89.97,148.342,87.408z"/>
		</g>
	</g>
</g>
</svg>
