<?xml version="1.0" encoding="utf-8"?>
<!-- Generator: Adobe Illustrator 16.0.0, SVG Export Plug-In . SVG Version: 6.00 Build 0)  -->
<!DOCTYPE svg PUBLIC "-//W3C//DTD SVG 1.1//EN" "http://www.w3.org/Graphics/SVG/1.1/DTD/svg11.dtd">
<svg version="1.1" xmlns="http://www.w3.org/2000/svg" xmlns:xlink="http://www.w3.org/1999/xlink" x="0px" y="0px"
	 width="205.759px" height="190.108px" viewBox="0 0 205.759 190.108" enable-background="new 0 0 205.759 190.108"
	 xml:space="preserve">
<g id="backgroud" display="none">
	
		<radialGradient id="SVGID_1_" cx="456.8809" cy="658.0781" r="1197.0635" gradientTransform="matrix(1 0 0 0.6667 0 16.2573)" gradientUnits="userSpaceOnUse">
		<stop  offset="0" style="stop-color:#FFFFFF"/>
		<stop  offset="0.2408" style="stop-color:#F5F7F8"/>
		<stop  offset="0.6445" style="stop-color:#DBE1E6"/>
		<stop  offset="1" style="stop-color:#BFCAD2"/>
	</radialGradient>
	<rect x="-144.619" y="47.998" display="inline" fill="url(#SVGID_1_)" width="1200" height="800"/>
</g>
<g id="object">
	<g>
		<g>
			<linearGradient id="SVGID_2_" gradientUnits="userSpaceOnUse" x1="46.4102" y1="74.5078" x2="84.6237" y2="25.1098">
				<stop  offset="0" style="stop-color:#93D8DE"/>
				<stop  offset="1" style="stop-color:#65C8D0"/>
			</linearGradient>
			<path fill="url(#SVGID_2_)" d="M74.76,21.696C71.27,37.034,59.164,49.14,43.827,52.63c-2.709,0.616-4.671,2.962-4.671,5.74
				v11.417c0,3.648,3.301,6.423,6.892,5.778c9.228-1.654,17.778-5.297,25.183-10.463c6.235-4.345,11.658-9.767,16.002-16.003
				c6.011-8.614,9.959-18.781,11.114-29.761c0.129-1.233-0.826-2.313-2.065-2.313H80.5C77.722,17.025,75.376,18.987,74.76,21.696z"
				/>
			<linearGradient id="SVGID_3_" gradientUnits="userSpaceOnUse" x1="117.0444" y1="100.1943" x2="143.1416" y2="71.3011">
				<stop  offset="0" style="stop-color:#93D8DE"/>
				<stop  offset="1" style="stop-color:#65C8D0"/>
			</linearGradient>
			<path fill="url(#SVGID_3_)" d="M104.507,108.827c-0.129,1.229,0.823,2.307,2.059,2.307h15.785c2.78,0,5.126-1.963,5.741-4.675
				c3.482-15.343,15.589-27.442,30.935-30.93c2.71-0.616,4.672-2.962,4.672-5.74V58.371c0-3.648-3.3-6.422-6.891-5.779
				c-9.229,1.652-17.779,5.289-25.184,10.465c-6.236,4.333-11.658,9.767-16.003,15.991
				C109.609,87.675,105.661,97.845,104.507,108.827z"/>
			<linearGradient id="SVGID_4_" gradientUnits="userSpaceOnUse" x1="104.5791" y1="18.1621" x2="161.167" y2="74.75">
				<stop  offset="0" style="stop-color:#221ECA"/>
				<stop  offset="1" style="stop-color:#6461DA"/>
			</linearGradient>
			<path fill="url(#SVGID_4_)" d="M122.354,17.025h-15.781c-1.24,0-2.195,1.08-2.065,2.313c1.154,10.979,5.103,21.146,11.113,29.761
				c4.345,6.236,9.767,11.658,16.003,16.003c7.404,5.166,15.954,8.809,25.182,10.463c3.592,0.645,6.893-2.13,6.893-5.778V58.37
				c0-2.778-1.961-5.124-4.671-5.74c-15.337-3.49-27.443-15.596-30.933-30.934C127.478,18.987,125.133,17.025,122.354,17.025z"/>
			<linearGradient id="SVGID_5_" gradientUnits="userSpaceOnUse" x1="41.689" y1="53.4063" x2="98.2796" y2="109.9969">
				<stop  offset="0" style="stop-color:#221ECA"/>
				<stop  offset="1" style="stop-color:#6461DA"/>
			</linearGradient>
			<path fill="url(#SVGID_5_)" d="M87.233,79.048c-4.345-6.225-9.767-11.658-16.003-15.991c-7.404-5.176-15.955-8.813-25.184-10.465
				c-3.591-0.643-6.891,2.131-6.891,5.779v11.418c0,2.778,1.962,5.124,4.672,5.74c15.345,3.487,27.452,15.587,30.934,30.93
				c0.615,2.712,2.961,4.675,5.741,4.675h15.785c1.236,0,2.188-1.077,2.059-2.307C97.194,97.845,93.246,87.675,87.233,79.048z"/>
		</g>
		<g>
			<g>
				<path fill="#1B1464" d="M34.952,135.651c-0.648-0.87-1.448-1.523-2.398-1.958c-0.952-0.436-1.944-0.653-2.977-0.653
					c-1.194,0-2.292,0.242-3.294,0.729c-1.002,0.486-1.868,1.139-2.597,1.959s-1.296,1.771-1.701,2.854
					c-0.405,1.084-0.607,2.212-0.607,3.386c0,1.256,0.202,2.425,0.607,3.508c0.405,1.083,0.967,2.024,1.686,2.824
					c0.718,0.8,1.579,1.432,2.581,1.897s2.11,0.698,3.325,0.698c1.316,0,2.49-0.258,3.523-0.774c1.032-0.516,1.933-1.26,2.703-2.231
					l1.913,1.609c-0.972,1.296-2.141,2.247-3.507,2.854s-2.911,0.911-4.631,0.911c-1.539,0-2.976-0.284-4.312-0.851
					c-1.336-0.565-2.495-1.351-3.477-2.354c-0.982-1.002-1.751-2.191-2.308-3.567c-0.557-1.377-0.835-2.885-0.835-4.525
					c0-1.579,0.268-3.057,0.805-4.434c0.536-1.377,1.291-2.571,2.262-3.583c0.972-1.013,2.126-1.812,3.462-2.399
					c1.336-0.587,2.804-0.88,4.403-0.88c1.458,0,2.859,0.262,4.206,0.789c1.346,0.526,2.475,1.387,3.386,2.581L34.952,135.651z"/>
				<path fill="#1B1464" d="M53.538,153.265c-1.64,0-3.143-0.284-4.51-0.851c-1.367-0.565-2.551-1.351-3.553-2.354
					c-1.002-1.002-1.782-2.196-2.338-3.583c-0.558-1.387-0.835-2.89-0.835-4.51c0-1.619,0.278-3.123,0.835-4.51
					c0.556-1.386,1.336-2.581,2.338-3.583c1.002-1.003,2.187-1.787,3.553-2.354s2.87-0.85,4.51-0.85c1.64,0,3.143,0.283,4.509,0.85
					c1.367,0.566,2.551,1.351,3.553,2.354c1.002,1.002,1.781,2.197,2.338,3.583c0.557,1.387,0.835,2.891,0.835,4.51
					c0,1.62-0.278,3.123-0.835,4.51s-1.336,2.581-2.338,3.583c-1.002,1.003-2.187,1.788-3.553,2.354
					C56.681,152.98,55.177,153.265,53.538,153.265z M53.538,150.896c1.255,0,2.404-0.232,3.446-0.698
					c1.043-0.466,1.939-1.103,2.688-1.913c0.749-0.81,1.331-1.756,1.746-2.839c0.415-1.083,0.622-2.242,0.622-3.478
					c0-1.234-0.208-2.394-0.622-3.478c-0.415-1.082-0.998-2.028-1.746-2.839c-0.749-0.81-1.645-1.447-2.688-1.913
					c-1.042-0.466-2.191-0.698-3.446-0.698c-1.256,0-2.405,0.232-3.447,0.698s-1.938,1.104-2.688,1.913
					c-0.749,0.811-1.331,1.757-1.746,2.839c-0.415,1.084-0.622,2.243-0.622,3.478c0,1.235,0.207,2.395,0.622,3.478
					s0.998,2.029,1.746,2.839c0.749,0.811,1.645,1.447,2.688,1.913S52.282,150.896,53.538,150.896z"/>
				<path fill="#1B1464" d="M71.15,131.218h3.795l7.289,16.854h0.06l7.349-16.854h3.705v21.5h-2.551V134.68h-0.06l-7.714,18.038
					h-1.548l-7.713-18.038h-0.061v18.038H71.15V131.218z"/>
				<path fill="#1B1464" d="M100.972,131.218h6.377c0.992,0,1.938,0.096,2.84,0.288c0.9,0.192,1.7,0.517,2.399,0.972
					c0.698,0.456,1.254,1.063,1.67,1.822c0.415,0.76,0.623,1.696,0.623,2.81c0,1.175-0.223,2.146-0.668,2.915
					s-1.017,1.377-1.716,1.822c-0.698,0.446-1.463,0.759-2.293,0.94c-0.83,0.184-1.62,0.273-2.368,0.273h-4.313v9.657h-2.551
					V131.218z M103.522,140.692h4.313c1.275,0,2.312-0.288,3.113-0.865c0.799-0.577,1.199-1.474,1.199-2.688
					c0-1.215-0.4-2.11-1.199-2.688c-0.801-0.577-1.837-0.865-3.113-0.865h-4.313V140.692z"/>
				<path fill="#1B1464" d="M125.995,131.218h2.399l9.141,21.5h-2.977l-2.186-5.283h-10.75l-2.217,5.283h-2.885L125.995,131.218z
					 M127.148,134.498h-0.06l-4.464,10.567h8.776L127.148,134.498z"/>
				<path fill="#1B1464" d="M142.666,131.218h3.22l12.451,17.855h0.06v-17.855h2.552v21.5h-3.22l-12.45-17.855h-0.061v17.855h-2.552
					V131.218z"/>
				<path fill="#1B1464" d="M173.642,143.456l-8.018-12.238h3.25l6.043,9.718l6.225-9.718h3.068l-8.018,12.238v9.262h-2.551V143.456
					z"/>
			</g>
			<g>
				<linearGradient id="SVGID_6_" gradientUnits="userSpaceOnUse" x1="65.6675" y1="166.5684" x2="72.1563" y2="166.5684">
					<stop  offset="0" style="stop-color:#93D8DE"/>
					<stop  offset="1" style="stop-color:#65C8D0"/>
				</linearGradient>
				<path fill="url(#SVGID_6_)" d="M71.211,163.132c-0.22-0.306-0.501-0.552-0.845-0.738c-0.344-0.186-0.759-0.279-1.246-0.279
					c-0.249,0-0.501,0.038-0.759,0.115c-0.258,0.076-0.492,0.193-0.702,0.351s-0.38,0.355-0.509,0.595
					c-0.129,0.238-0.193,0.521-0.193,0.845s0.062,0.593,0.186,0.802c0.124,0.211,0.288,0.39,0.493,0.537
					c0.205,0.148,0.438,0.271,0.7,0.366c0.262,0.095,0.536,0.19,0.822,0.286c0.352,0.114,0.707,0.238,1.064,0.372
					c0.357,0.134,0.678,0.308,0.964,0.523c0.286,0.214,0.519,0.486,0.7,0.816c0.181,0.329,0.271,0.747,0.271,1.253
					s-0.097,0.943-0.29,1.311c-0.193,0.368-0.444,0.671-0.752,0.909c-0.308,0.239-0.661,0.416-1.057,0.53
					c-0.396,0.115-0.795,0.172-1.196,0.172c-0.306,0-0.611-0.031-0.917-0.093c-0.306-0.063-0.597-0.155-0.874-0.279
					c-0.277-0.124-0.535-0.281-0.773-0.473c-0.239-0.19-0.449-0.41-0.63-0.659l0.888-0.658c0.219,0.362,0.527,0.666,0.924,0.909
					c0.396,0.243,0.862,0.365,1.396,0.365c0.258,0,0.521-0.04,0.788-0.122c0.267-0.081,0.508-0.205,0.723-0.372
					c0.215-0.167,0.392-0.372,0.53-0.616c0.139-0.243,0.208-0.527,0.208-0.852c0-0.354-0.069-0.647-0.208-0.882
					c-0.138-0.233-0.322-0.43-0.551-0.586c-0.229-0.158-0.492-0.29-0.788-0.395c-0.296-0.105-0.607-0.21-0.931-0.315
					c-0.334-0.104-0.664-0.225-0.988-0.357c-0.325-0.134-0.616-0.309-0.874-0.523s-0.465-0.48-0.623-0.795
					c-0.158-0.315-0.236-0.702-0.236-1.161c0-0.486,0.098-0.906,0.293-1.26c0.196-0.353,0.452-0.645,0.766-0.874
					c0.315-0.229,0.664-0.396,1.046-0.501c0.381-0.105,0.759-0.158,1.131-0.158c0.688,0,1.275,0.122,1.761,0.365
					c0.488,0.244,0.855,0.533,1.104,0.867L71.211,163.132z"/>
				<linearGradient id="SVGID_7_" gradientUnits="userSpaceOnUse" x1="77.2412" y1="166.5684" x2="82.9995" y2="166.5684">
					<stop  offset="0" style="stop-color:#93D8DE"/>
					<stop  offset="1" style="stop-color:#65C8D0"/>
				</linearGradient>
				<path fill="url(#SVGID_7_)" d="M78.272,170.724H83v0.916h-5.758v-10.142h1.031V170.724z"/>
				<linearGradient id="SVGID_8_" gradientUnits="userSpaceOnUse" x1="86.437" y1="166.5684" x2="97.0078" y2="166.5684">
					<stop  offset="0" style="stop-color:#93D8DE"/>
					<stop  offset="1" style="stop-color:#65C8D0"/>
				</linearGradient>
				<path fill="url(#SVGID_8_)" d="M97.008,166.569c0,0.773-0.133,1.485-0.401,2.135c-0.267,0.649-0.637,1.21-1.11,1.683
					s-1.031,0.843-1.676,1.11c-0.644,0.267-1.344,0.4-2.098,0.4c-0.755,0-1.454-0.134-2.098-0.4
					c-0.645-0.268-1.204-0.638-1.676-1.11c-0.473-0.473-0.843-1.033-1.11-1.683c-0.268-0.649-0.401-1.361-0.401-2.135
					s0.134-1.484,0.401-2.135c0.267-0.648,0.638-1.21,1.11-1.683c0.472-0.473,1.031-0.843,1.676-1.11
					c0.645-0.267,1.343-0.401,2.098-0.401c0.754,0,1.454,0.135,2.098,0.401c0.645,0.268,1.204,0.638,1.676,1.11
					s0.843,1.034,1.11,1.683C96.875,165.085,97.008,165.796,97.008,166.569z M95.92,166.576c0-0.591-0.096-1.153-0.287-1.688
					c-0.191-0.533-0.468-1.003-0.831-1.408s-0.804-0.728-1.325-0.966s-1.105-0.357-1.755-0.357s-1.234,0.119-1.754,0.357
					c-0.521,0.238-0.962,0.561-1.325,0.966s-0.64,0.875-0.831,1.408c-0.191,0.534-0.286,1.097-0.286,1.688
					c0,0.592,0.095,1.153,0.286,1.688c0.191,0.533,0.468,1.001,0.831,1.401s0.805,0.719,1.325,0.957
					c0.52,0.239,1.105,0.358,1.754,0.358s1.234-0.119,1.755-0.358c0.521-0.238,0.962-0.557,1.325-0.957s0.64-0.868,0.831-1.401
					C95.824,167.729,95.92,167.168,95.92,166.576z"/>
				<linearGradient id="SVGID_9_" gradientUnits="userSpaceOnUse" x1="101.4771" y1="166.5684" x2="110.5449" y2="166.5684">
					<stop  offset="0" style="stop-color:#93D8DE"/>
					<stop  offset="1" style="stop-color:#65C8D0"/>
				</linearGradient>
				<path fill="url(#SVGID_9_)" d="M109.714,163.332c-0.354-0.372-0.773-0.661-1.261-0.866c-0.487-0.205-1.045-0.309-1.676-0.309
					c-0.649,0-1.234,0.119-1.755,0.357s-0.962,0.561-1.325,0.966c-0.363,0.405-0.643,0.875-0.838,1.408
					c-0.196,0.534-0.294,1.097-0.294,1.688c0,0.592,0.098,1.153,0.294,1.688c0.195,0.533,0.475,1.001,0.838,1.401
					c0.363,0.4,0.804,0.719,1.325,0.957c0.521,0.239,1.105,0.358,1.755,0.358c0.573,0,1.098-0.063,1.576-0.187
					c0.478-0.124,0.864-0.281,1.16-0.473v-3.08h-2.363v-0.916h3.395v4.581c-0.554,0.335-1.151,0.584-1.791,0.746
					c-0.641,0.163-1.304,0.244-1.992,0.244c-0.764,0-1.47-0.134-2.12-0.4c-0.649-0.268-1.208-0.638-1.676-1.11
					c-0.468-0.473-0.833-1.033-1.096-1.683s-0.394-1.361-0.394-2.135s0.134-1.484,0.401-2.135c0.267-0.648,0.638-1.21,1.11-1.683
					s1.031-0.843,1.676-1.11c0.645-0.267,1.344-0.401,2.098-0.401c0.812,0,1.519,0.122,2.121,0.364
					c0.601,0.243,1.117,0.58,1.546,1.011L109.714,163.332z"/>
				<linearGradient id="SVGID_10_" gradientUnits="userSpaceOnUse" x1="114.8413" y1="166.5684" x2="124.582" y2="166.5684">
					<stop  offset="0" style="stop-color:#93D8DE"/>
					<stop  offset="1" style="stop-color:#65C8D0"/>
				</linearGradient>
				<path fill="url(#SVGID_10_)" d="M115.973,171.64h-1.132l4.383-10.142h1.002l4.355,10.142h-1.146l-1.118-2.664h-5.243
					L115.973,171.64z M117.463,168.03h4.469l-2.235-5.386L117.463,168.03z"/>
				<linearGradient id="SVGID_11_" gradientUnits="userSpaceOnUse" x1="128.9365" y1="166.5684" x2="137.1865" y2="166.5684">
					<stop  offset="0" style="stop-color:#93D8DE"/>
					<stop  offset="1" style="stop-color:#65C8D0"/>
				</linearGradient>
				<path fill="url(#SVGID_11_)" d="M136.127,170.136h0.028v-8.638h1.031v10.142h-1.289l-5.901-8.723h-0.029v8.723h-1.031v-10.142
					h1.289L136.127,170.136z"/>
			</g>
		</g>
	</g>
</g>
</svg>
