<?xml version="1.0" encoding="utf-8"?>
<!-- Generator: Adobe Illustrator 16.0.0, SVG Export Plug-In . SVG Version: 6.00 Build 0)  -->
<!DOCTYPE svg PUBLIC "-//W3C//DTD SVG 1.1//EN" "http://www.w3.org/Graphics/SVG/1.1/DTD/svg11.dtd">
<svg version="1.1" xmlns="http://www.w3.org/2000/svg" xmlns:xlink="http://www.w3.org/1999/xlink" x="0px" y="0px"
	 width="205.759px" height="190.108px" viewBox="0 0 205.759 190.108" enable-background="new 0 0 205.759 190.108"
	 xml:space="preserve">
<g id="backgroud" display="none">
	
		<radialGradient id="SVGID_1_" cx="687.8809" cy="658.0781" r="1197.0635" gradientTransform="matrix(1 0 0 0.6667 0 16.2573)" gradientUnits="userSpaceOnUse">
		<stop  offset="0" style="stop-color:#FFFFFF"/>
		<stop  offset="0.2408" style="stop-color:#F5F7F8"/>
		<stop  offset="0.6445" style="stop-color:#DBE1E6"/>
		<stop  offset="1" style="stop-color:#BFCAD2"/>
	</radialGradient>
	<rect x="86.381" y="47.998" display="inline" fill="url(#SVGID_1_)" width="1200" height="800"/>
</g>
<g id="object">
	<g>
		<g>
			<g>
				<path fill="#1B1464" d="M36.396,154.082c-0.77,0.97-1.67,1.72-2.71,2.229c-1.03,0.521-2.2,0.78-3.52,0.78
					c-1.21,0-2.32-0.24-3.32-0.7c-1.01-0.471-1.87-1.101-2.59-1.9c-0.71-0.8-1.28-1.739-1.68-2.82c-0.41-1.089-0.61-2.26-0.61-3.51
					c0-1.18,0.2-2.3,0.61-3.39c0.4-1.08,0.97-2.03,1.7-2.851c0.73-0.819,1.59-1.47,2.6-1.959c1-0.49,2.1-0.73,3.29-0.73
					c1.03,0,2.03,0.22,2.98,0.65c0.95,0.439,1.75,1.09,2.4,1.96l2.21-1.61c-0.91-1.19-2.04-2.05-3.38-2.58
					c-1.35-0.53-2.75-0.79-4.21-0.79c-1.6,0-3.07,0.3-4.4,0.88c-1.34,0.591-2.49,1.391-3.46,2.4c-0.98,1.01-1.73,2.21-2.27,3.58
					c-0.53,1.38-0.8,2.86-0.8,4.439c0,1.641,0.28,3.15,0.83,4.521c0.56,1.38,1.33,2.57,2.31,3.57s2.14,1.789,3.48,2.35
					c1.33,0.569,2.77,0.86,4.31,0.86c1.72,0,3.27-0.311,4.63-0.921c1.37-0.6,2.54-1.55,3.51-2.85L36.396,154.082z"/>
				<path fill="#1B1464" d="M64.525,143.651c-0.56-1.39-1.33-2.58-2.34-3.58c-1-1.01-2.18-1.79-3.55-2.359
					c-1.37-0.561-2.87-0.851-4.51-0.851c-1.64,0-3.14,0.29-4.51,0.851c-1.37,0.569-2.55,1.35-3.55,2.359c-1,1-1.78,2.19-2.34,3.58
					s-0.84,2.89-0.84,4.51s0.28,3.12,0.84,4.51c0.56,1.391,1.34,2.581,2.34,3.581s2.18,1.789,3.55,2.35
					c1.37,0.569,2.87,0.86,4.51,0.86c1.64,0,3.14-0.291,4.51-0.86c1.37-0.561,2.55-1.35,3.55-2.35c1.01-1,1.78-2.19,2.34-3.581
					c0.56-1.39,0.84-2.89,0.84-4.51S65.085,145.041,64.525,143.651z M62.006,151.642c-0.41,1.08-1,2.029-1.74,2.84
					c-0.75,0.8-1.65,1.439-2.69,1.91c-1.05,0.46-2.19,0.7-3.45,0.7c-1.25,0-2.4-0.24-3.45-0.7c-1.04-0.471-1.93-1.11-2.68-1.91
					c-0.75-0.811-1.33-1.76-1.75-2.84c-0.41-1.09-0.62-2.25-0.62-3.48c0-1.24,0.21-2.399,0.62-3.479c0.42-1.08,1-2.03,1.75-2.84
					c0.75-0.811,1.64-1.44,2.68-1.91c1.05-0.47,2.2-0.7,3.45-0.7c1.26,0,2.4,0.23,3.45,0.7c1.04,0.47,1.94,1.1,2.69,1.91
					c0.74,0.81,1.33,1.76,1.74,2.84c0.419,1.08,0.62,2.239,0.62,3.479C62.625,149.392,62.425,150.552,62.006,151.642z"/>
				<path fill="#1B1464" d="M90.236,137.411l-7.35,16.851h-0.06l-7.29-16.851h-3.8v21.5h2.55v-18.04h0.07l7.71,18.04h1.55
					l7.71-18.04h0.06v18.04h2.55v-21.5H90.236z"/>
				<path fill="#1B1464" d="M114.846,140.491c-0.41-0.76-0.97-1.37-1.67-1.82c-0.7-0.459-1.5-0.779-2.4-0.97
					c-0.9-0.199-1.85-0.29-2.84-0.29h-6.37v21.5h2.55v-9.659h4.31c0.75,0,1.541-0.091,2.37-0.271c0.83-0.18,1.59-0.5,2.29-0.94
					c0.7-0.449,1.27-1.06,1.72-1.819c0.44-0.771,0.66-1.75,0.66-2.92C115.466,142.191,115.266,141.252,114.846,140.491z
					 M111.536,146.021c-0.8,0.57-1.84,0.86-3.11,0.86h-4.31v-7.101h4.31c1.271,0,2.311,0.29,3.11,0.86c0.8,0.58,1.2,1.479,1.2,2.69
					C112.736,144.541,112.335,145.441,111.536,146.021z"/>
				<path fill="#1B1464" d="M128.986,137.411h-2.4l-9.48,21.5h2.89l2.22-5.279h10.74l2.19,5.279h2.98L128.986,137.411z
					 M123.216,151.262l4.459-10.57h0.061l4.25,10.57H123.216z"/>
				<path fill="#1B1464" d="M158.986,137.411v17.851h-0.061l-12.45-17.851h-3.22v21.5h2.55v-17.859h0.06l12.45,17.859h3.22v-21.5
					H158.986z"/>
				<path fill="#1B1464" d="M181.736,137.411l-6.23,9.721l-6.04-9.721h-3.25l8.02,12.24v9.26h2.55v-9.26l8.01-12.24H181.736z"/>
			</g>
			<g>
				<linearGradient id="SVGID_2_" gradientUnits="userSpaceOnUse" x1="66.2559" y1="172.7617" x2="72.7456" y2="172.7617">
					<stop  offset="0" style="stop-color:#93D8DE"/>
					<stop  offset="1" style="stop-color:#65C8D0"/>
				</linearGradient>
				<path fill="url(#SVGID_2_)" d="M72.476,173.911c-0.18-0.329-0.42-0.6-0.7-0.81c-0.29-0.22-0.61-0.39-0.97-0.53
					c-0.35-0.13-0.71-0.25-1.06-0.37c-0.29-0.09-0.56-0.189-0.82-0.29c-0.26-0.09-0.5-0.21-0.7-0.359
					c-0.21-0.15-0.37-0.33-0.49-0.54c-0.13-0.21-0.19-0.48-0.19-0.8c0-0.32,0.06-0.61,0.19-0.841c0.13-0.239,0.3-0.439,0.51-0.6
					s0.45-0.27,0.7-0.351c0.26-0.079,0.51-0.109,0.76-0.109c0.49,0,0.91,0.09,1.25,0.271c0.34,0.189,0.62,0.439,0.84,0.739
					l0.82-0.66c-0.25-0.329-0.61-0.62-1.1-0.859c-0.49-0.25-1.08-0.37-1.76-0.37c-0.38,0-0.75,0.05-1.14,0.16
					c-0.38,0.1-0.73,0.27-1.04,0.5c-0.32,0.229-0.57,0.52-0.77,0.87c-0.19,0.359-0.29,0.779-0.29,1.26c0,0.46,0.08,0.85,0.24,1.16
					c0.15,0.319,0.36,0.58,0.62,0.8c0.26,0.21,0.55,0.39,0.87,0.52c0.33,0.141,0.66,0.261,0.99,0.36c0.32,0.109,0.64,0.21,0.93,0.32
					c0.3,0.1,0.56,0.229,0.79,0.39s0.41,0.35,0.55,0.59c0.14,0.23,0.21,0.53,0.21,0.88c0,0.32-0.07,0.61-0.21,0.851
					c-0.14,0.24-0.31,0.449-0.53,0.62c-0.21,0.159-0.46,0.29-0.72,0.37c-0.27,0.079-0.53,0.119-0.79,0.119
					c-0.541,0-1-0.119-1.4-0.369c-0.39-0.24-0.7-0.541-0.92-0.9l-0.89,0.65c0.18,0.25,0.39,0.47,0.63,0.659
					c0.24,0.19,0.5,0.351,0.77,0.48c0.28,0.12,0.57,0.21,0.88,0.28c0.3,0.06,0.61,0.09,0.92,0.09c0.4,0,0.79-0.061,1.19-0.171
					c0.4-0.119,0.75-0.289,1.06-0.529s0.56-0.55,0.75-0.91c0.19-0.37,0.29-0.811,0.29-1.311
					C72.746,174.661,72.656,174.241,72.476,173.911z"/>
				<linearGradient id="SVGID_3_" gradientUnits="userSpaceOnUse" x1="77.8257" y1="172.7617" x2="83.5854" y2="172.7617">
					<stop  offset="0" style="stop-color:#93D8DE"/>
					<stop  offset="1" style="stop-color:#65C8D0"/>
				</linearGradient>
				<path fill="url(#SVGID_3_)" d="M78.866,176.911v-9.22h-1.04v10.141h5.76v-0.921H78.866z"/>
				<linearGradient id="SVGID_4_" gradientUnits="userSpaceOnUse" x1="87.0254" y1="172.7617" x2="97.5957" y2="172.7617">
					<stop  offset="0" style="stop-color:#93D8DE"/>
					<stop  offset="1" style="stop-color:#65C8D0"/>
				</linearGradient>
				<path fill="url(#SVGID_4_)" d="M97.196,170.632c-0.271-0.65-0.64-1.221-1.11-1.69c-0.47-0.47-1.03-0.84-1.68-1.109
					c-0.64-0.261-1.34-0.4-2.09-0.4c-0.76,0-1.46,0.14-2.1,0.4c-0.65,0.27-1.21,0.64-1.68,1.109s-0.84,1.04-1.11,1.69
					c-0.27,0.649-0.4,1.359-0.4,2.13c0,0.77,0.13,1.479,0.4,2.13c0.271,0.649,0.64,1.21,1.11,1.69c0.47,0.47,1.03,0.839,1.68,1.109
					c0.64,0.26,1.34,0.4,2.1,0.4c0.75,0,1.45-0.141,2.09-0.4c0.65-0.271,1.21-0.64,1.68-1.109c0.47-0.48,0.84-1.041,1.11-1.69
					c0.27-0.65,0.4-1.36,0.4-2.13C97.596,171.991,97.466,171.281,97.196,170.632z M96.226,174.451c-0.19,0.54-0.47,1.011-0.83,1.41
					c-0.37,0.4-0.81,0.721-1.33,0.95c-0.52,0.24-1.1,0.359-1.75,0.359c-0.65,0-1.24-0.119-1.76-0.359
					c-0.52-0.229-0.96-0.55-1.32-0.95c-0.37-0.399-0.64-0.87-0.83-1.41c-0.2-0.53-0.29-1.09-0.29-1.68s0.09-1.16,0.29-1.689
					c0.19-0.53,0.46-1,0.83-1.411c0.36-0.399,0.8-0.729,1.32-0.959c0.52-0.24,1.11-0.36,1.76-0.36c0.65,0,1.23,0.12,1.75,0.36
					c0.52,0.229,0.96,0.56,1.33,0.959c0.36,0.411,0.64,0.881,0.83,1.411c0.19,0.529,0.28,1.1,0.28,1.689
					S96.416,173.921,96.226,174.451z"/>
				<linearGradient id="SVGID_5_" gradientUnits="userSpaceOnUse" x1="102.0654" y1="172.7617" x2="111.1357" y2="172.7617">
					<stop  offset="0" style="stop-color:#93D8DE"/>
					<stop  offset="1" style="stop-color:#65C8D0"/>
				</linearGradient>
				<path fill="url(#SVGID_5_)" d="M107.736,172.521v0.91h2.37v3.08c-0.3,0.189-0.69,0.35-1.16,0.479
					c-0.48,0.12-1.01,0.18-1.58,0.18c-0.65,0-1.23-0.119-1.75-0.359c-0.52-0.229-0.97-0.55-1.33-0.95
					c-0.36-0.399-0.64-0.87-0.84-1.41c-0.19-0.53-0.29-1.09-0.29-1.68s0.1-1.16,0.29-1.689c0.2-0.53,0.479-1,0.84-1.411
					c0.36-0.399,0.81-0.729,1.33-0.959c0.52-0.24,1.1-0.36,1.75-0.36c0.63,0,1.19,0.1,1.68,0.31c0.48,0.2,0.9,0.49,1.26,0.86
					l0.71-0.71c-0.43-0.43-0.94-0.771-1.54-1.01c-0.61-0.25-1.31-0.37-2.12-0.37c-0.76,0-1.46,0.14-2.1,0.4
					c-0.65,0.27-1.21,0.64-1.68,1.109c-0.47,0.47-0.84,1.04-1.11,1.69c-0.27,0.649-0.4,1.359-0.4,2.13c0,0.77,0.13,1.479,0.39,2.13
					c0.27,0.649,0.63,1.21,1.1,1.69c0.47,0.47,1.03,0.839,1.68,1.109c0.65,0.26,1.35,0.4,2.12,0.4c0.68,0,1.35-0.08,1.99-0.25
					c0.64-0.16,1.23-0.41,1.79-0.74v-4.58H107.736z"/>
				<linearGradient id="SVGID_6_" gradientUnits="userSpaceOnUse" x1="115.4253" y1="172.7617" x2="125.1753" y2="172.7617">
					<stop  offset="0" style="stop-color:#93D8DE"/>
					<stop  offset="1" style="stop-color:#65C8D0"/>
				</linearGradient>
				<path fill="url(#SVGID_6_)" d="M120.815,167.691h-1l-4.39,10.141h1.14l1.1-2.661h5.24l1.12,2.661h1.15L120.815,167.691z
					 M118.056,174.222l2.23-5.39l2.24,5.39H118.056z"/>
				<linearGradient id="SVGID_7_" gradientUnits="userSpaceOnUse" x1="129.5254" y1="172.7617" x2="137.7754" y2="172.7617">
					<stop  offset="0" style="stop-color:#93D8DE"/>
					<stop  offset="1" style="stop-color:#65C8D0"/>
				</linearGradient>
				<path fill="url(#SVGID_7_)" d="M136.746,167.691v8.641h-0.03l-5.9-8.641h-1.29v10.141h1.03v-8.721h0.03l5.9,8.721h1.29v-10.141
					H136.746z"/>
			</g>
		</g>
		<g>
			<linearGradient id="SVGID_8_" gradientUnits="userSpaceOnUse" x1="83.9263" y1="89.2617" x2="54.1012" y2="55.2424">
				<stop  offset="0" style="stop-color:#221ECA"/>
				<stop  offset="1" style="stop-color:#6461DA"/>
			</linearGradient>
			<path fill="url(#SVGID_8_)" d="M91.366,88.102l-1.13-2.87c-1.57-4.01-4.75-7.19-8.76-8.76l-2.87-1.13l-1.188-0.46l0.001-0.003
				l-6.716-2.632l0.003-0.006l-1.44-0.56l-6.86-2.69l-5.64-2.21c-0.92-0.399-1.38-1.08-1.38-2.029c0-0.03,0-0.04,0.01-0.061
				c-0.01-0.021-0.01-0.04-0.01-0.06c0-0.961,0.46-1.641,1.38-2.03l5.64-2.22l6.86-2.69l1.44-0.56l-2.77-6.351l-0.11-0.26l-6.62,2.6
				l-7.85,3.08c-1.91,0.761-3.26,1.83-4.03,3.2c-0.78,1.37-1.17,3.14-1.17,5.29s0.39,3.91,1.17,5.29
				c0.77,1.37,2.12,2.439,4.03,3.189l7.85,3.081l6.618,2.599l-0.001,0.002l0.26,0.103l6.449,2.534l2.221-5.086l-2.217,5.088
				l1.38,0.54c4.01,1.58,7.18,4.75,8.76,8.76l0.541,1.38l6.61-2.88L91.366,88.102z"/>
			<linearGradient id="SVGID_9_" gradientUnits="userSpaceOnUse" x1="129.8877" y1="98.5459" x2="124.2956" y2="65.4591">
				<stop  offset="0" style="stop-color:#93D8DE"/>
				<stop  offset="1" style="stop-color:#65C8D0"/>
			</linearGradient>
			<path fill="url(#SVGID_9_)" d="M142.416,93.092l-3.36-7.73l-2.84-6.51l-0.053,0.02l0.05-0.02l-0.112-0.259l-2.767-6.348
				l-2.924,1.146l2.925-1.149l-0.6-1.359c-1.72-3.95-1.72-8.44,0-12.391l0.6-1.359l-6.72-2.63l-0.51,1.159l-1.23,2.82
				c-1.73,3.96-1.73,8.46,0,12.41l1.23,2.82l0.509,1.166h0l2.889,6.61l3.022-1.188l-3.019,1.19l0.61,1.41l2.96,6.76l2.42,5.551
				c0.36,0.92,0.21,1.729-0.47,2.409l-0.04,0.04c-0.01,0.01-0.02,0.03-0.04,0.04c-0.68,0.681-1.48,0.83-2.41,0.47l-5.55-2.43
				l-6.76-2.95l-1.41-0.62l-2.53,6.45l-0.11,0.261l6.521,2.84l7.729,3.37c1.88,0.819,3.59,1.02,5.11,0.59
				c1.52-0.42,3.04-1.391,4.56-2.91s2.5-3.04,2.92-4.56C143.436,96.691,143.236,94.981,142.416,93.092z"/>
			<linearGradient id="SVGID_10_" gradientUnits="userSpaceOnUse" x1="81.2539" y1="51.1777" x2="110.3802" y2="16.2262">
				<stop  offset="0" style="stop-color:#221ECA"/>
				<stop  offset="1" style="stop-color:#6461DA"/>
			</linearGradient>
			<path fill="url(#SVGID_10_)" d="M113.576,23.882l-3.08-7.851c-0.75-1.91-1.82-3.26-3.19-4.029c-1.38-0.78-3.14-1.171-5.29-1.171
				s-3.91,0.391-5.29,1.171c-1.37,0.77-2.44,2.119-3.19,4.029l-3.09,7.851l-2.59,6.609l0.26,0.11l4.21,1.839l-4.213-1.836
				l-0.258-0.112l-0.104,0.265l-2.534,6.445l-0.001-0.001l-0.541,1.38c-1.58,4.011-4.75,7.181-8.76,8.761l-1.39,0.55l2.89,6.61
				l1.19-0.471l2.86-1.12c4.02-1.569,7.2-4.75,8.77-8.77l1.13-2.87l0.46-1.18l-1.831-0.801l1.831,0.8l2.634-6.72l-0.004-0.002
				l0.569-1.428l2.69-6.87l2.209-5.64c0.4-0.91,1.07-1.37,2.03-1.37h0.12c0.96,0,1.63,0.46,2.03,1.37l2.21,5.64l2.7,6.87l0.56,1.43
				l6.35-2.76l0.25-0.12L113.576,23.882z"/>
			<linearGradient id="SVGID_11_" gradientUnits="userSpaceOnUse" x1="139.7202" y1="29.7539" x2="104.7686" y2="47.2298">
				<stop  offset="0" style="stop-color:#93D8DE"/>
				<stop  offset="1" style="stop-color:#65C8D0"/>
			</linearGradient>
			<path fill="url(#SVGID_11_)" d="M143.016,31.171c-0.42-1.52-1.4-3.039-2.92-4.56c-1.52-1.53-3.04-2.5-4.56-2.92
				s-3.23-0.22-5.11,0.59l-7.729,3.37l-6.521,2.84l0.002,0.006l-0.254,0.111l-6.347,2.765l0-0.002l-1.37,0.601
				c-3.94,1.72-8.43,1.72-12.38,0l-1.37-0.601l-2.63,6.721l1.17,0.51l2.82,1.229c3.95,1.73,8.45,1.73,12.4,0l2.83-1.229l1.16-0.51
				l-0.461-1.179l0.461,1.177l6.61-2.887l-2.534-6.446l-0.056-0.142l0.06,0.146l2.53,6.439l1.41-0.609l6.76-2.96l5.55-2.42
				c0.93-0.36,1.73-0.21,2.41,0.47c0.01,0.01,0.03,0.02,0.04,0.04c0.01,0.01,0.03,0.02,0.04,0.04c0.68,0.68,0.83,1.479,0.47,2.409
				l-2.42,5.551l-2.96,6.76l-0.61,1.41l6.44,2.529l0.27,0.101l2.83-6.51l3.38-7.73C143.236,34.392,143.436,32.691,143.016,31.171z"
				/>
			<linearGradient id="SVGID_12_" gradientUnits="userSpaceOnUse" x1="112.2056" y1="58.0264" x2="155.8755" y2="58.0264">
				<stop  offset="0" style="stop-color:#221ECA"/>
				<stop  offset="1" style="stop-color:#6461DA"/>
			</linearGradient>
			<path fill="url(#SVGID_12_)" d="M154.706,59.401c-0.77-1.37-2.12-2.439-4.03-3.2l-7.85-3.08l-6.61-2.6l-0.076,0.163l0.071-0.162
				l-0.262-0.103l-6.445-2.533l-0.001,0.003l-1.387-0.548c-4.01-1.58-7.18-4.75-8.76-8.761l-0.54-1.38l-6.61,2.891l0.46,1.18
				l1.13,2.87c1.57,4.02,4.75,7.2,8.77,8.77l2.86,1.12l1.19,0.471v-0.001l6.715,2.632l1.655-3.8l-1.651,3.799l1.43,0.56l6.86,2.69
				l5.65,2.22c0.91,0.39,1.37,1.069,1.37,2.03c0,0.02,0,0.039-0.01,0.06c0.01,0.021,0.01,0.03,0.01,0.061
				c0,0.949-0.46,1.63-1.37,2.029l-5.65,2.21l-6.86,2.69l-1.43,0.56l2.77,6.351l0.11,0.26l6.61-2.6l7.85-3.081
				c1.91-0.75,3.26-1.819,4.03-3.189c0.78-1.38,1.17-3.14,1.17-5.29S155.486,60.771,154.706,59.401z"/>
			<linearGradient id="SVGID_13_" gradientUnits="userSpaceOnUse" x1="73.0703" y1="92.7656" x2="101.0314" y2="83.2123">
				<stop  offset="0" style="stop-color:#93D8DE"/>
				<stop  offset="1" style="stop-color:#65C8D0"/>
			</linearGradient>
			<path fill="url(#SVGID_13_)" d="M111.036,88.781l-2.82-1.24c-3.96-1.72-8.45-1.72-12.4,0l-2.82,1.24l-1.167,0.509l-0.001-0.003
				l-6.611,2.887l-0.001-0.003l-1.41,0.62l-6.76,2.95l-5.55,2.42c-0.93,0.37-1.73,0.221-2.41-0.46c-0.01-0.01-0.03-0.03-0.04-0.04
				c-0.01-0.01-0.03-0.029-0.04-0.04c-0.68-0.68-0.831-1.489-0.47-2.409l2.43-5.551l2.95-6.77l0.62-1.4l-6.45-2.54l-0.26-0.1
				l-2.85,6.51l-3.36,7.73c-0.82,1.89-1.02,3.59-0.6,5.12c0.43,1.52,1.4,3.04,2.92,4.56s3.04,2.49,4.56,2.91
				c1.52,0.43,3.23,0.229,5.11-0.59l7.73-3.37l6.518-2.839l0,0l0.256-0.112l6.352-2.768l-1.589-4.054l1.595,4.053l1.36-0.591
				c3.95-1.72,8.43-1.72,12.38,0l1.37,0.591l2.63-6.711L111.036,88.781z"/>
			<linearGradient id="SVGID_14_" gradientUnits="userSpaceOnUse" x1="74.3027" y1="31.9648" x2="82.6912" y2="66.2176">
				<stop  offset="0" style="stop-color:#93D8DE"/>
				<stop  offset="1" style="stop-color:#65C8D0"/>
			</linearGradient>
			<path fill="url(#SVGID_14_)" d="M81.335,27.651l-7.73-3.37c-1.88-0.81-3.59-1.01-5.11-0.59s-3.04,1.39-4.56,2.92
				c-1.52,1.521-2.49,3.04-2.92,4.56c-0.42,1.521-0.22,3.221,0.59,5.11l3.38,7.73l2.839,6.509l-0.004,0.002l0.114,0.26l2.767,6.351
				l3.247-1.272l-3.243,1.271l0.59,1.37c1.72,3.949,1.72,8.43,0,12.38l-0.59,1.359l6.71,2.641l0.51-1.17l1.23-2.82
				c1.73-3.95,1.73-8.44,0.01-12.4l-1.24-2.82l-0.51-1.169l0.003-0.001l-2.89-6.614l-0.004,0.001l-0.608-1.406l-2.95-6.76
				l-2.43-5.551c-0.36-0.93-0.21-1.729,0.47-2.409c0.01-0.021,0.03-0.03,0.04-0.04c0.01-0.021,0.03-0.03,0.04-0.04
				c0.68-0.68,1.48-0.83,2.41-0.47l5.55,2.42l6.76,2.96l1.41,0.609l2.54-6.439l0.1-0.271L81.335,27.651z"/>
			<linearGradient id="SVGID_15_" gradientUnits="userSpaceOnUse" x1="120.002" y1="74.2324" x2="94.138" y2="114.0769">
				<stop  offset="0" style="stop-color:#221ECA"/>
				<stop  offset="1" style="stop-color:#6461DA"/>
			</linearGradient>
			<path fill="url(#SVGID_15_)" d="M126.616,74.882l-1.19,0.46l-2.87,1.13c-4.01,1.569-7.19,4.75-8.76,8.76l-1.13,2.87l-0.458,1.187
				l-0.002-0.001l-2.633,6.716l0.002,0.002l-0.559,1.427l-2.7,6.87l-2.21,5.64c-0.4,0.91-1.07,1.38-2.03,1.38
				c-0.02,0-0.04,0-0.06-0.01c-0.02,0.01-0.04,0.01-0.06,0.01c-0.96,0-1.63-0.47-2.03-1.38l-2.209-5.64l-2.69-6.87l-0.56-1.43
				l-6.36,2.77l-0.25,0.11l2.59,6.62l3.09,7.84c0.75,1.92,1.82,3.26,3.19,4.04c1.38,0.779,3.14,1.159,5.29,1.159
				s3.91-0.38,5.29-1.159c1.37-0.78,2.44-2.12,3.19-4.04l3.08-7.84l2.6-6.62l-0.121-0.054l0.125,0.055l0.103-0.261l2.533-6.446
				l-3.557-1.555l3.558,1.55l0.54-1.38c1.58-4.01,4.75-7.18,8.76-8.76l1.39-0.54L126.616,74.882z"/>
		</g>
	</g>
</g>
</svg>
