<?xml version="1.0" encoding="utf-8"?>
<!-- Generator: Adobe Illustrator 16.0.0, SVG Export Plug-In . SVG Version: 6.00 Build 0)  -->
<!DOCTYPE svg PUBLIC "-//W3C//DTD SVG 1.1//EN" "http://www.w3.org/Graphics/SVG/1.1/DTD/svg11.dtd">
<svg version="1.1" xmlns="http://www.w3.org/2000/svg" xmlns:xlink="http://www.w3.org/1999/xlink" x="0px" y="0px"
	 width="205.759px" height="190.108px" viewBox="0 0 205.759 190.108" enable-background="new 0 0 205.759 190.108"
	 xml:space="preserve">
<g id="backgroud" display="none">
	
		<radialGradient id="SVGID_1_" cx="456.8809" cy="233.0781" r="1197.0635" gradientTransform="matrix(1 0 0 0.6667 0 -125.395)" gradientUnits="userSpaceOnUse">
		<stop  offset="0" style="stop-color:#FFFFFF"/>
		<stop  offset="0.2408" style="stop-color:#F5F7F8"/>
		<stop  offset="0.6445" style="stop-color:#DBE1E6"/>
		<stop  offset="1" style="stop-color:#BFCAD2"/>
	</radialGradient>
	<rect x="-144.619" y="-377.002" display="inline" fill="url(#SVGID_1_)" width="1200" height="800"/>
</g>
<g id="object">
	<g>
		<g>
			<g>
				<path fill="#1B1464" d="M34.953,136.821c-0.648-0.87-1.447-1.523-2.398-1.958c-0.953-0.436-1.944-0.653-2.977-0.653
					c-1.195,0-2.293,0.243-3.295,0.729c-1.002,0.486-1.867,1.139-2.597,1.959c-0.729,0.82-1.296,1.771-1.7,2.854
					c-0.406,1.083-0.607,2.212-0.607,3.386c0,1.256,0.201,2.426,0.607,3.508c0.404,1.083,0.967,2.024,1.685,2.824
					c0.719,0.8,1.579,1.433,2.581,1.897c1.003,0.467,2.111,0.699,3.326,0.699c1.316,0,2.49-0.258,3.522-0.774
					s1.933-1.261,2.703-2.232l1.913,1.609c-0.973,1.296-2.141,2.247-3.508,2.855c-1.367,0.606-2.911,0.911-4.631,0.911
					c-1.539,0-2.977-0.284-4.313-0.852c-1.336-0.565-2.495-1.351-3.477-2.354c-0.982-1.002-1.752-2.191-2.309-3.567
					c-0.557-1.377-0.835-2.885-0.835-4.525c0-1.579,0.269-3.056,0.805-4.434c0.536-1.376,1.29-2.571,2.263-3.583
					c0.972-1.013,2.126-1.812,3.462-2.399c1.336-0.587,2.804-0.88,4.403-0.88c1.457,0,2.859,0.263,4.206,0.789
					c1.347,0.527,2.475,1.388,3.386,2.581L34.953,136.821z"/>
				<path fill="#1B1464" d="M53.538,154.436c-1.64,0-3.144-0.284-4.51-0.852c-1.366-0.565-2.551-1.351-3.553-2.354
					c-1.002-1.002-1.782-2.196-2.339-3.583s-0.835-2.89-0.835-4.51c0-1.619,0.278-3.123,0.835-4.509
					c0.557-1.387,1.337-2.582,2.339-3.584s2.187-1.787,3.553-2.354s2.87-0.85,4.51-0.85s3.144,0.283,4.51,0.85
					s2.551,1.352,3.553,2.354s1.781,2.197,2.339,3.584c0.557,1.386,0.834,2.89,0.834,4.509c0,1.62-0.277,3.123-0.834,4.51
					c-0.558,1.387-1.337,2.581-2.339,3.583c-1.002,1.003-2.187,1.788-3.553,2.354C56.681,154.151,55.177,154.436,53.538,154.436z
					 M53.538,152.066c1.255,0,2.403-0.232,3.446-0.699c1.043-0.465,1.938-1.103,2.688-1.913c0.749-0.809,1.331-1.756,1.746-2.839
					s0.623-2.242,0.623-3.478c0-1.234-0.208-2.394-0.623-3.477s-0.997-2.029-1.746-2.84c-0.749-0.81-1.645-1.446-2.688-1.913
					c-1.043-0.465-2.191-0.698-3.446-0.698c-1.256,0-2.404,0.233-3.446,0.698c-1.043,0.467-1.939,1.104-2.688,1.913
					c-0.75,0.811-1.332,1.757-1.746,2.84c-0.416,1.083-0.623,2.242-0.623,3.477c0,1.235,0.207,2.395,0.623,3.478
					c0.414,1.083,0.996,2.03,1.746,2.839c0.748,0.811,1.645,1.448,2.688,1.913C51.133,151.834,52.282,152.066,53.538,152.066z"/>
				<path fill="#1B1464" d="M71.15,132.388h3.797l7.288,16.854h0.061l7.349-16.854h3.705v21.501h-2.551v-18.038h-0.061
					l-7.713,18.038h-1.549l-7.714-18.038h-0.062v18.038H71.15V132.388z"/>
				<path fill="#1B1464" d="M100.972,132.388h6.377c0.991,0,1.938,0.097,2.84,0.288c0.9,0.193,1.699,0.517,2.398,0.973
					c0.699,0.455,1.255,1.063,1.67,1.821c0.415,0.76,0.623,1.696,0.623,2.81c0,1.175-0.223,2.146-0.668,2.915
					s-1.018,1.377-1.716,1.822c-0.699,0.446-1.464,0.759-2.293,0.941c-0.831,0.183-1.62,0.273-2.368,0.273h-4.313v9.657h-2.551
					V132.388z M103.523,141.862h4.313c1.275,0,2.313-0.288,3.112-0.865s1.199-1.473,1.199-2.688s-0.399-2.11-1.199-2.688
					s-1.837-0.865-3.112-0.865h-4.313V141.862z"/>
				<path fill="#1B1464" d="M125.995,132.388h2.399l9.141,21.501h-2.977l-2.187-5.284h-10.75l-2.216,5.284h-2.887L125.995,132.388z
					 M127.148,135.668h-0.061l-4.463,10.567h8.775L127.148,135.668z"/>
				<path fill="#1B1464" d="M142.667,132.388h3.219l12.451,17.856h0.061v-17.856h2.551v21.501h-3.22l-12.449-17.856h-0.062v17.856
					h-2.551V132.388z"/>
				<path fill="#1B1464" d="M173.642,144.626l-8.018-12.238h3.249l6.044,9.718l6.225-9.718h3.067l-8.017,12.238v9.263h-2.551
					V144.626z"/>
			</g>
			<g>
				<linearGradient id="SVGID_2_" gradientUnits="userSpaceOnUse" x1="65.6675" y1="167.7402" x2="72.1558" y2="167.7402">
					<stop  offset="0" style="stop-color:#93D8DE"/>
					<stop  offset="1" style="stop-color:#65C8D0"/>
				</linearGradient>
				<path fill="url(#SVGID_2_)" d="M71.21,164.302c-0.219-0.306-0.501-0.552-0.845-0.738c-0.343-0.186-0.759-0.278-1.246-0.278
					c-0.249,0-0.501,0.037-0.759,0.114s-0.492,0.193-0.701,0.351c-0.211,0.157-0.381,0.356-0.51,0.595
					c-0.129,0.239-0.193,0.521-0.193,0.845c0,0.325,0.063,0.593,0.186,0.803c0.124,0.21,0.289,0.389,0.493,0.536
					c0.204,0.148,0.438,0.271,0.7,0.366c0.262,0.095,0.535,0.191,0.821,0.286c0.353,0.114,0.706,0.238,1.063,0.372
					s0.68,0.309,0.965,0.523c0.285,0.214,0.52,0.486,0.7,0.816c0.181,0.329,0.271,0.747,0.271,1.253
					c0,0.507-0.096,0.943-0.289,1.312c-0.193,0.367-0.443,0.67-0.752,0.909s-0.66,0.415-1.057,0.529
					c-0.396,0.115-0.795,0.173-1.197,0.173c-0.305,0-0.609-0.032-0.916-0.094c-0.305-0.062-0.597-0.155-0.873-0.279
					c-0.277-0.124-0.535-0.281-0.773-0.473c-0.239-0.19-0.449-0.41-0.631-0.659l0.889-0.658c0.219,0.363,0.527,0.666,0.924,0.909
					s0.861,0.365,1.396,0.365c0.258,0,0.521-0.04,0.787-0.122c0.268-0.081,0.509-0.204,0.725-0.372
					c0.215-0.167,0.391-0.372,0.529-0.616c0.139-0.243,0.207-0.527,0.207-0.852c0-0.354-0.068-0.647-0.207-0.882
					c-0.139-0.233-0.322-0.43-0.552-0.587s-0.491-0.289-0.788-0.394c-0.295-0.104-0.605-0.21-0.931-0.315
					c-0.335-0.104-0.663-0.225-0.987-0.357c-0.326-0.134-0.617-0.309-0.875-0.523s-0.465-0.48-0.623-0.795
					c-0.157-0.315-0.236-0.701-0.236-1.16c0-0.487,0.098-0.907,0.294-1.261c0.196-0.353,0.451-0.645,0.767-0.874
					c0.314-0.229,0.664-0.396,1.045-0.501c0.383-0.104,0.76-0.157,1.132-0.157c0.688,0,1.274,0.121,1.762,0.364
					c0.487,0.244,0.854,0.533,1.103,0.867L71.21,164.302z"/>
				<linearGradient id="SVGID_3_" gradientUnits="userSpaceOnUse" x1="77.2417" y1="167.7402" x2="82.9995" y2="167.7402">
					<stop  offset="0" style="stop-color:#93D8DE"/>
					<stop  offset="1" style="stop-color:#65C8D0"/>
				</linearGradient>
				<path fill="url(#SVGID_3_)" d="M78.273,171.894H83v0.917h-5.758v-10.142h1.031V171.894z"/>
				<linearGradient id="SVGID_4_" gradientUnits="userSpaceOnUse" x1="86.437" y1="167.7402" x2="97.0083" y2="167.7402">
					<stop  offset="0" style="stop-color:#93D8DE"/>
					<stop  offset="1" style="stop-color:#65C8D0"/>
				</linearGradient>
				<path fill="url(#SVGID_4_)" d="M97.008,167.739c0,0.773-0.134,1.485-0.401,2.135s-0.637,1.21-1.109,1.683
					s-1.031,0.843-1.676,1.11c-0.645,0.267-1.345,0.401-2.1,0.401c-0.754,0-1.453-0.135-2.098-0.401
					c-0.645-0.268-1.203-0.638-1.676-1.11s-0.843-1.033-1.109-1.683c-0.268-0.649-0.402-1.361-0.402-2.135s0.135-1.484,0.402-2.135
					c0.267-0.648,0.637-1.21,1.109-1.683s1.031-0.843,1.676-1.11c0.645-0.267,1.344-0.4,2.098-0.4c0.755,0,1.455,0.134,2.1,0.4
					c0.645,0.268,1.203,0.638,1.676,1.11s0.842,1.034,1.109,1.683C96.875,166.255,97.008,166.966,97.008,167.739z M95.919,167.746
					c0-0.591-0.096-1.152-0.285-1.687c-0.191-0.534-0.469-1.004-0.832-1.409s-0.805-0.727-1.324-0.966
					c-0.521-0.238-1.105-0.357-1.756-0.357c-0.648,0-1.233,0.119-1.754,0.357c-0.521,0.239-0.962,0.561-1.324,0.966
					c-0.363,0.405-0.641,0.875-0.832,1.409s-0.286,1.096-0.286,1.687c0,0.592,0.095,1.154,0.286,1.688
					c0.191,0.533,0.469,1.001,0.832,1.401c0.362,0.4,0.804,0.72,1.324,0.958s1.105,0.357,1.754,0.357
					c0.65,0,1.234-0.119,1.756-0.357c0.52-0.238,0.961-0.558,1.324-0.958s0.641-0.868,0.832-1.401
					C95.824,168.9,95.919,168.338,95.919,167.746z"/>
				<linearGradient id="SVGID_5_" gradientUnits="userSpaceOnUse" x1="101.478" y1="167.7402" x2="110.5444" y2="167.7402">
					<stop  offset="0" style="stop-color:#93D8DE"/>
					<stop  offset="1" style="stop-color:#65C8D0"/>
				</linearGradient>
				<path fill="url(#SVGID_5_)" d="M109.713,164.502c-0.353-0.372-0.772-0.661-1.261-0.866c-0.486-0.205-1.045-0.309-1.676-0.309
					c-0.649,0-1.234,0.119-1.754,0.357c-0.521,0.239-0.963,0.561-1.325,0.966c-0.363,0.405-0.642,0.875-0.838,1.409
					s-0.294,1.096-0.294,1.687c0,0.592,0.098,1.154,0.294,1.688c0.196,0.533,0.475,1.001,0.838,1.401
					c0.362,0.4,0.805,0.72,1.325,0.958c0.52,0.238,1.104,0.357,1.754,0.357c0.574,0,1.099-0.062,1.576-0.187
					c0.478-0.124,0.864-0.281,1.16-0.473v-3.08h-2.363v-0.916h3.395v4.581c-0.554,0.335-1.15,0.584-1.79,0.746
					c-0.64,0.163-1.304,0.245-1.991,0.245c-0.764,0-1.471-0.135-2.12-0.401c-0.649-0.268-1.208-0.638-1.676-1.11
					s-0.833-1.033-1.096-1.683s-0.394-1.361-0.394-2.135s0.133-1.484,0.4-2.135c0.268-0.648,0.638-1.21,1.11-1.683
					s1.031-0.843,1.676-1.11c0.645-0.267,1.345-0.4,2.099-0.4c0.812,0,1.518,0.121,2.12,0.363c0.602,0.243,1.117,0.58,1.547,1.011
					L109.713,164.502z"/>
				<linearGradient id="SVGID_6_" gradientUnits="userSpaceOnUse" x1="114.8413" y1="167.7402" x2="124.5815" y2="167.7402">
					<stop  offset="0" style="stop-color:#93D8DE"/>
					<stop  offset="1" style="stop-color:#65C8D0"/>
				</linearGradient>
				<path fill="url(#SVGID_6_)" d="M115.973,172.811h-1.132l4.384-10.142h1.003l4.354,10.142h-1.146l-1.117-2.665h-5.243
					L115.973,172.811z M117.463,169.2h4.469l-2.234-5.386L117.463,169.2z"/>
				<linearGradient id="SVGID_7_" gradientUnits="userSpaceOnUse" x1="128.937" y1="167.7402" x2="137.187" y2="167.7402">
					<stop  offset="0" style="stop-color:#93D8DE"/>
					<stop  offset="1" style="stop-color:#65C8D0"/>
				</linearGradient>
				<path fill="url(#SVGID_7_)" d="M136.127,171.306h0.028v-8.637h1.031v10.142h-1.289l-5.901-8.724h-0.028v8.724h-1.031v-10.142
					h1.289L136.127,171.306z"/>
			</g>
		</g>
		<g>
			<linearGradient id="SVGID_8_" gradientUnits="userSpaceOnUse" x1="64.8418" y1="51.6309" x2="95.5993" y2="87.2817">
				<stop  offset="0" style="stop-color:#93D8DE"/>
				<stop  offset="1" style="stop-color:#65C8D0"/>
			</linearGradient>
			<path fill="url(#SVGID_8_)" d="M114.042,75.116c-2.647,5.882-7.08,10.783-12.613,14.005c-0.004,0.004-0.004,0.004-0.004,0
				c-4.548,2.655-9.834,4.174-15.479,4.174c-4.494,0-8.763-0.964-12.608-2.696h-0.004c-10.458-4.704-17.813-15.071-18.158-27.192
				c-0.009-0.295-0.013-0.595-0.013-0.895s0.004-0.6,0.013-0.895c0.345-12.121,7.7-22.488,18.158-27.192
				c-1.728,3.846-2.688,8.114-2.688,12.604c0,5.644,1.519,10.931,4.174,15.479v0.004c3.223,5.528,8.119,9.962,13.996,12.604
				l0.004,0.005c3.846,1.728,8.115,2.692,12.609,2.692S110.197,76.849,114.042,75.116z"/>
			<linearGradient id="SVGID_9_" gradientUnits="userSpaceOnUse" x1="138.7871" y1="70.0732" x2="115.0201" y2="47.7043">
				<stop  offset="0" style="stop-color:#93D8DE"/>
				<stop  offset="1" style="stop-color:#65C8D0"/>
			</linearGradient>
			<path fill="url(#SVGID_9_)" d="M147.691,62.512c0,0.3-0.004,0.6-0.012,0.895c-0.346,12.121-7.701,22.488-18.154,27.192
				c1.728-3.85,2.688-8.118,2.688-12.608c0-5.645-1.518-10.931-4.174-15.479v-0.004c-3.223-5.533-8.119-9.966-14-12.609
				c-3.846-1.731-8.115-2.692-12.609-2.692s-8.764,0.961-12.609,2.692c2.645-5.877,7.076-10.774,12.605-13.996h0.004
				c4.548-2.655,9.834-4.174,15.479-4.174c4.498,0,8.767,0.964,12.617,2.696c10.453,4.704,17.809,15.071,18.154,27.192
				C147.687,61.912,147.691,62.212,147.691,62.512z"/>
			<linearGradient id="SVGID_10_" gradientUnits="userSpaceOnUse" x1="70.646" y1="45.6816" x2="129.5249" y2="45.6816">
				<stop  offset="0" style="stop-color:#221ECA"/>
				<stop  offset="1" style="stop-color:#6461DA"/>
			</linearGradient>
			<path fill="url(#SVGID_10_)" d="M129.525,34.425c-3.851-1.732-8.119-2.696-12.617-2.696c-5.645,0-10.931,1.519-15.479,4.174
				h-0.004c-5.529,3.222-9.961,8.119-12.605,13.996c-1.731,3.846-2.696,8.119-2.696,12.613c0,4.49,0.965,8.759,2.692,12.604
				c-5.877-2.643-10.773-7.076-13.996-12.604v-0.004c-2.655-4.548-4.174-9.835-4.174-15.479c0-4.49,0.961-8.759,2.688-12.604
				c4.704-10.462,15.075-17.821,27.2-18.166c0.295-0.009,0.596-0.013,0.895-0.013c0.3,0,0.6,0.004,0.895,0.013
				C114.449,16.604,124.821,23.963,129.525,34.425z"/>
			<linearGradient id="SVGID_11_" gradientUnits="userSpaceOnUse" x1="124.1221" y1="53.3535" x2="94.0642" y2="102.984">
				<stop  offset="0" style="stop-color:#221ECA"/>
				<stop  offset="1" style="stop-color:#6461DA"/>
			</linearGradient>
			<path fill="url(#SVGID_11_)" d="M132.212,77.99c0,4.49-0.96,8.759-2.688,12.608c-4.704,10.458-15.076,17.817-27.201,18.162
				c-0.295,0.009-0.595,0.013-0.895,0.013c-0.299,0-0.6-0.004-0.895-0.013c-12.125-0.345-22.496-7.704-27.196-18.162
				c3.846,1.732,8.114,2.696,12.608,2.696c5.645,0,10.931-1.519,15.479-4.174c0,0.004,0,0.004,0.004,0
				c5.533-3.222,9.966-8.123,12.613-14.005c1.729-3.846,2.688-8.114,2.688-12.604c0-4.494-0.964-8.768-2.691-12.613
				c5.881,2.644,10.777,7.076,14,12.609v0.004C130.695,67.06,132.212,72.346,132.212,77.99z"/>
		</g>
	</g>
</g>
</svg>
