<?xml version="1.0" encoding="utf-8"?>
<!-- Generator: Adobe Illustrator 16.0.0, SVG Export Plug-In . SVG Version: 6.00 Build 0)  -->
<!DOCTYPE svg PUBLIC "-//W3C//DTD SVG 1.1//EN" "http://www.w3.org/Graphics/SVG/1.1/DTD/svg11.dtd">
<svg version="1.1" xmlns="http://www.w3.org/2000/svg" xmlns:xlink="http://www.w3.org/1999/xlink" x="0px" y="0px"
	 width="205.759px" height="190.108px" viewBox="0 0 205.759 190.108" enable-background="new 0 0 205.759 190.108"
	 xml:space="preserve">
<g id="backgroud" display="none">
	
		<radialGradient id="SVGID_1_" cx="687.8809" cy="233.0781" r="1197.0635" gradientTransform="matrix(1 0 0 0.6667 0 -125.395)" gradientUnits="userSpaceOnUse">
		<stop  offset="0" style="stop-color:#FFFFFF"/>
		<stop  offset="0.2408" style="stop-color:#F5F7F8"/>
		<stop  offset="0.6445" style="stop-color:#DBE1E6"/>
		<stop  offset="1" style="stop-color:#BFCAD2"/>
	</radialGradient>
	<rect x="86.381" y="-377.002" display="inline" fill="url(#SVGID_1_)" width="1200" height="800"/>
</g>
<g id="object">
	<g>
		<g>
			<polygon fill="#FF0C5D" points="88.962,91.582 102.011,104.64 88.962,117.688 49.817,78.533 62.866,65.485 75.914,78.533 
				88.962,65.485 102.011,78.533 			"/>
			<polygon fill="#221ECA" points="154.213,78.533 115.059,117.688 102.011,104.64 115.059,91.582 102.011,78.533 115.059,65.485 
				128.107,78.533 141.165,65.485 			"/>
			<polygon fill="#FFC005" points="154.213,52.437 141.165,65.485 128.107,52.437 115.059,65.485 102.011,52.437 115.059,39.389 
				102.011,26.34 115.059,13.292 			"/>
			<polygon fill="#221ECA" points="88.962,39.389 102.011,52.437 88.962,65.485 75.914,52.437 62.866,65.485 49.817,52.437 
				88.962,13.292 102.011,26.34 			"/>
		</g>
		<g>
			<g>
				<path d="M35.541,139.777c-0.648-0.87-1.448-1.523-2.399-1.958c-0.952-0.436-1.943-0.653-2.976-0.653
					c-1.195,0-2.292,0.242-3.295,0.729c-1.002,0.486-1.868,1.139-2.597,1.959c-0.729,0.82-1.295,1.771-1.7,2.854
					c-0.406,1.084-0.607,2.212-0.607,3.386c0,1.256,0.202,2.425,0.607,3.508c0.405,1.083,0.966,2.024,1.685,2.824
					c0.718,0.8,1.579,1.432,2.581,1.897c1.002,0.466,2.111,0.698,3.326,0.698c1.316,0,2.49-0.258,3.523-0.774
					c1.032-0.516,1.933-1.26,2.703-2.231l1.913,1.609c-0.971,1.296-2.141,2.247-3.507,2.854c-1.367,0.607-2.911,0.911-4.631,0.911
					c-1.539,0-2.976-0.284-4.312-0.851c-1.336-0.565-2.496-1.351-3.478-2.354c-0.982-1.002-1.751-2.191-2.308-3.567
					c-0.557-1.377-0.835-2.885-0.835-4.525c0-1.579,0.269-3.057,0.805-4.434c0.536-1.377,1.29-2.571,2.262-3.583
					c0.972-1.013,2.126-1.812,3.462-2.399c1.336-0.587,2.804-0.88,4.403-0.88c1.458,0,2.859,0.262,4.206,0.789
					c1.346,0.526,2.474,1.387,3.386,2.581L35.541,139.777z"/>
				<path d="M54.126,157.391c-1.64,0-3.143-0.284-4.51-0.851c-1.367-0.565-2.551-1.351-3.553-2.354
					c-1.002-1.002-1.782-2.196-2.338-3.583c-0.557-1.387-0.835-2.89-0.835-4.51c0-1.619,0.278-3.123,0.835-4.51
					c0.557-1.386,1.336-2.581,2.338-3.583c1.002-1.003,2.187-1.787,3.553-2.354s2.87-0.85,4.51-0.85c1.64,0,3.143,0.283,4.509,0.85
					c1.367,0.566,2.551,1.351,3.553,2.354c1.002,1.002,1.782,2.197,2.338,3.583c0.557,1.387,0.835,2.891,0.835,4.51
					c0,1.62-0.278,3.123-0.835,4.51c-0.557,1.387-1.336,2.581-2.338,3.583c-1.002,1.003-2.186,1.788-3.553,2.354
					C57.269,157.106,55.766,157.391,54.126,157.391z M54.126,155.021c1.255,0,2.404-0.232,3.447-0.698
					c1.042-0.466,1.938-1.103,2.688-1.913c0.748-0.81,1.331-1.756,1.746-2.839c0.415-1.083,0.622-2.242,0.622-3.478
					c0-1.234-0.208-2.394-0.622-3.478c-0.416-1.082-0.998-2.028-1.746-2.839c-0.75-0.81-1.645-1.447-2.688-1.913
					c-1.043-0.466-2.192-0.698-3.447-0.698c-1.256,0-2.405,0.232-3.447,0.698c-1.043,0.466-1.939,1.104-2.687,1.913
					c-0.75,0.811-1.332,1.757-1.747,2.839c-0.415,1.084-0.622,2.243-0.622,3.478c0,1.235,0.207,2.395,0.622,3.478
					c0.415,1.083,0.997,2.029,1.747,2.839c0.748,0.811,1.644,1.447,2.687,1.913C51.721,154.789,52.87,155.021,54.126,155.021z"/>
				<path d="M71.739,135.344h3.796l7.288,16.854h0.061l7.349-16.854h3.705v21.5h-2.551v-18.038h-0.061l-7.714,18.038h-1.548
					l-7.713-18.038H74.29v18.038h-2.551V135.344z"/>
				<path d="M101.56,135.344h6.377c0.992,0,1.938,0.096,2.839,0.288s1.701,0.517,2.399,0.972c0.699,0.456,1.255,1.063,1.67,1.822
					c0.415,0.76,0.622,1.696,0.622,2.81c0,1.175-0.223,2.146-0.668,2.915s-1.017,1.377-1.715,1.822
					c-0.699,0.446-1.463,0.759-2.293,0.94c-0.831,0.184-1.62,0.273-2.368,0.273h-4.313v9.657h-2.551V135.344z M104.111,144.818
					h4.313c1.275,0,2.312-0.288,3.112-0.865c0.799-0.577,1.2-1.474,1.2-2.688c0-1.215-0.4-2.11-1.2-2.688
					c-0.8-0.577-1.837-0.865-3.112-0.865h-4.313V144.818z"/>
				<path d="M126.583,135.344h2.399l9.14,21.5h-2.976l-2.187-5.283h-10.75l-2.217,5.283h-2.885L126.583,135.344z M127.737,138.624
					h-0.061l-4.464,10.567h8.776L127.737,138.624z"/>
				<path d="M143.254,135.344h3.219l12.451,17.855h0.061v-17.855h2.551v21.5h-3.219l-12.451-17.855h-0.061v17.855h-2.551V135.344z"
					/>
				<path d="M174.23,147.582l-8.018-12.238h3.25l6.043,9.718l6.226-9.718h3.067l-8.017,12.238v9.262h-2.551V147.582z"/>
			</g>
			<g>
				<path fill="#FFC005" d="M71.799,167.258c-0.219-0.306-0.501-0.552-0.845-0.738c-0.344-0.186-0.759-0.279-1.247-0.279
					c-0.248,0-0.501,0.038-0.759,0.115c-0.258,0.076-0.492,0.193-0.702,0.351c-0.21,0.157-0.38,0.355-0.509,0.595
					c-0.129,0.238-0.193,0.521-0.193,0.845s0.062,0.593,0.186,0.802c0.124,0.211,0.288,0.39,0.493,0.537
					c0.205,0.148,0.438,0.271,0.7,0.366c0.262,0.095,0.536,0.19,0.821,0.286c0.353,0.114,0.707,0.238,1.064,0.372
					s0.678,0.308,0.965,0.523c0.285,0.214,0.519,0.486,0.7,0.816c0.181,0.329,0.271,0.747,0.271,1.253s-0.097,0.943-0.29,1.311
					c-0.193,0.368-0.443,0.671-0.751,0.909c-0.309,0.239-0.661,0.416-1.057,0.53c-0.396,0.115-0.795,0.172-1.196,0.172
					c-0.306,0-0.611-0.031-0.917-0.093c-0.306-0.063-0.597-0.155-0.874-0.279s-0.535-0.281-0.773-0.473
					c-0.239-0.19-0.449-0.41-0.631-0.659l0.889-0.658c0.219,0.362,0.527,0.666,0.924,0.909c0.396,0.243,0.861,0.365,1.396,0.365
					c0.258,0,0.521-0.04,0.789-0.122c0.267-0.081,0.508-0.205,0.723-0.372s0.392-0.372,0.53-0.616
					c0.139-0.243,0.208-0.527,0.208-0.852c0-0.354-0.069-0.647-0.208-0.882c-0.138-0.233-0.322-0.43-0.551-0.586
					c-0.229-0.158-0.492-0.29-0.788-0.395c-0.296-0.105-0.607-0.21-0.931-0.315c-0.334-0.104-0.664-0.225-0.988-0.357
					c-0.325-0.134-0.616-0.309-0.874-0.523c-0.258-0.215-0.466-0.48-0.623-0.795c-0.158-0.315-0.236-0.702-0.236-1.161
					c0-0.486,0.098-0.906,0.293-1.26c0.196-0.353,0.451-0.645,0.767-0.874c0.315-0.229,0.664-0.396,1.045-0.501
					s0.759-0.158,1.131-0.158c0.688,0,1.275,0.122,1.762,0.365c0.487,0.244,0.854,0.533,1.103,0.867L71.799,167.258z"/>
				<path fill="#FFC005" d="M78.861,174.85h4.727v0.916H77.83v-10.142h1.031V174.85z"/>
				<path fill="#FFC005" d="M97.597,170.695c0,0.773-0.134,1.485-0.401,2.135s-0.637,1.21-1.11,1.683s-1.032,0.843-1.676,1.11
					c-0.645,0.267-1.344,0.4-2.099,0.4s-1.454-0.134-2.099-0.4c-0.645-0.268-1.203-0.638-1.676-1.11s-0.843-1.033-1.11-1.683
					c-0.268-0.649-0.401-1.361-0.401-2.135s0.133-1.484,0.401-2.135c0.267-0.648,0.637-1.21,1.11-1.683s1.031-0.843,1.676-1.11
					c0.645-0.267,1.344-0.401,2.099-0.401s1.454,0.135,2.099,0.401c0.644,0.268,1.203,0.638,1.676,1.11s0.843,1.034,1.11,1.683
					C97.462,169.211,97.597,169.922,97.597,170.695z M96.508,170.702c0-0.591-0.096-1.153-0.287-1.688
					c-0.191-0.533-0.468-1.003-0.831-1.408s-0.805-0.728-1.325-0.966c-0.521-0.238-1.105-0.357-1.755-0.357
					s-1.234,0.119-1.754,0.357c-0.521,0.238-0.963,0.561-1.325,0.966c-0.363,0.405-0.64,0.875-0.831,1.408
					c-0.191,0.534-0.286,1.097-0.286,1.688c0,0.592,0.095,1.153,0.286,1.688c0.191,0.533,0.468,1.001,0.831,1.401
					c0.362,0.4,0.804,0.719,1.325,0.957c0.52,0.239,1.105,0.358,1.754,0.358s1.234-0.119,1.755-0.358
					c0.52-0.238,0.962-0.557,1.325-0.957s0.64-0.868,0.831-1.401C96.413,171.855,96.508,171.294,96.508,170.702z"/>
				<path fill="#FFC005" d="M110.302,167.458c-0.353-0.372-0.773-0.661-1.26-0.866s-1.046-0.309-1.676-0.309
					c-0.649,0-1.234,0.119-1.754,0.357s-0.962,0.561-1.325,0.966c-0.363,0.405-0.643,0.875-0.838,1.408
					c-0.196,0.534-0.294,1.097-0.294,1.688c0,0.592,0.098,1.153,0.294,1.688c0.195,0.533,0.475,1.001,0.838,1.401
					c0.362,0.4,0.804,0.719,1.325,0.957c0.521,0.239,1.105,0.358,1.754,0.358c0.573,0,1.098-0.063,1.576-0.187
					c0.478-0.124,0.864-0.281,1.161-0.473v-3.08h-2.363v-0.916h3.395v4.581c-0.554,0.335-1.151,0.584-1.791,0.746
					c-0.64,0.163-1.304,0.244-1.991,0.244c-0.764,0-1.471-0.134-2.12-0.4c-0.649-0.268-1.208-0.638-1.676-1.11
					c-0.467-0.473-0.833-1.033-1.095-1.683c-0.263-0.649-0.394-1.361-0.394-2.135s0.134-1.484,0.401-2.135
					c0.267-0.648,0.637-1.21,1.11-1.683c0.472-0.473,1.031-0.843,1.676-1.11c0.645-0.267,1.344-0.401,2.098-0.401
					c0.812,0,1.519,0.122,2.12,0.364c0.602,0.243,1.117,0.58,1.547,1.011L110.302,167.458z"/>
				<path fill="#FFC005" d="M116.562,175.766h-1.132l4.383-10.142h1.002l4.354,10.142h-1.146l-1.117-2.664h-5.243L116.562,175.766z
					 M118.051,172.156h4.469l-2.234-5.386L118.051,172.156z"/>
				<path fill="#FFC005" d="M136.715,174.262h0.029v-8.638h1.031v10.142h-1.289l-5.902-8.723h-0.029v8.723h-1.031v-10.142h1.289
					L136.715,174.262z"/>
			</g>
		</g>
	</g>
</g>
</svg>
