<?xml version="1.0" encoding="utf-8"?>
<!-- Generator: Adobe Illustrator 16.0.0, SVG Export Plug-In . SVG Version: 6.00 Build 0)  -->
<!DOCTYPE svg PUBLIC "-//W3C//DTD SVG 1.1//EN" "http://www.w3.org/Graphics/SVG/1.1/DTD/svg11.dtd">
<svg version="1.1" xmlns="http://www.w3.org/2000/svg" xmlns:xlink="http://www.w3.org/1999/xlink" x="0px" y="0px"
	 width="205.759px" height="190.108px" viewBox="0 0 205.759 190.108" enable-background="new 0 0 205.759 190.108"
	 xml:space="preserve">
<g id="backgroud" display="none">
	
		<radialGradient id="SVGID_1_" cx="-2.1191" cy="450.0781" r="1197.0635" gradientTransform="matrix(1 0 0 0.6667 0 -53.0688)" gradientUnits="userSpaceOnUse">
		<stop  offset="0" style="stop-color:#FFFFFF"/>
		<stop  offset="0.2408" style="stop-color:#F5F7F8"/>
		<stop  offset="0.6445" style="stop-color:#DBE1E6"/>
		<stop  offset="1" style="stop-color:#BFCAD2"/>
	</radialGradient>
	<rect x="-603.619" y="-160.002" display="inline" fill="url(#SVGID_1_)" width="1200" height="800"/>
</g>
<g id="object">
	<g>
		<g>
			<path fill="none" d="M146.689,73.976c0,11.48-2.438,19.874-7.236,24.944c-4.732,5.01-11.734,7.448-21.385,7.448h-11.186
				c-9.65,0-16.65-2.438-21.393-7.448c-4.707-4.978-7.127-13.168-7.221-24.328h3.764c10.383,0,18.313-3.088,23.576-9.178
				c4.775-5.525,7.213-13.455,7.439-24.193h5.02c9.633,0,16.619,2.463,21.352,7.533C144.244,53.916,146.689,62.402,146.689,73.976z"
				/>
			<path fill="none" d="M93.666,25.776c-0.289-0.507-0.57-0.899-0.818-1.191c-1.871-2.21-5.51-3.331-10.813-3.331h-11.18
				c-5.322,0-8.992,1.133-10.904,3.367c-1.262,1.476-3.381,5.393-3.381,15.05c0,9.535,2.066,13.353,3.297,14.779
				c0.854,0.989,2.057,1.69,3.418,2.185c1.895-7.854,5.201-14.354,9.92-19.401C78.553,31.51,85.41,27.685,93.666,25.776z"/>
			<linearGradient id="SVGID_2_" gradientUnits="userSpaceOnUse" x1="85.0713" y1="46.4473" x2="160.2145" y2="121.5905">
				<stop  offset="0" style="stop-color:#221ECA"/>
				<stop  offset="1" style="stop-color:#6461DA"/>
			</linearGradient>
			<path fill="url(#SVGID_2_)" d="M151.748,37.234c-7.988-8.548-19.322-12.882-33.684-12.882h-6.85
				c1.242,4.317,1.855,9.36,1.855,15.196c0,0.567-0.012,1.122-0.023,1.675h5.018c9.637,0,16.623,2.463,21.357,7.529
				c4.82,5.16,7.266,13.646,7.266,25.225c0,11.478-2.432,19.87-7.23,24.943c-4.738,5.011-11.736,7.445-21.393,7.445h-11.178
				c-9.656,0-16.654-2.435-21.393-7.445c-4.711-4.979-7.135-13.167-7.223-24.327h-7.416c-3.426,0-6.576-0.329-9.457-0.975
				c0,0.121-0.006,0.237-0.006,0.358c0,15.936,3.986,28.229,11.844,36.535c7.984,8.443,19.305,12.725,33.65,12.725h11.178
				c14.344,0,25.664-4.281,33.65-12.724c7.859-8.311,11.844-20.604,11.844-36.536C163.559,57.983,159.586,45.621,151.748,37.234z"/>
			<linearGradient id="SVGID_3_" gradientUnits="userSpaceOnUse" x1="59.6846" y1="15.4736" x2="96.0332" y2="58.3464">
				<stop  offset="0" style="stop-color:#93D8DE"/>
				<stop  offset="1" style="stop-color:#65C8D0"/>
			</linearGradient>
			<path fill="url(#SVGID_3_)" d="M113.049,41.221c-0.227,10.738-2.664,18.668-7.439,24.193c-5.264,6.09-13.193,9.178-23.576,9.178
				H78.27c0-0.203-0.008-0.405-0.008-0.616c0-6.369,0.742-11.793,2.211-16.255c1.205-3.645,2.885-6.647,5.061-8.967
				c2.742-2.936,6.25-4.994,10.586-6.209c3.146-0.877,6.715-1.324,10.764-1.324H113.049z"/>
			<linearGradient id="SVGID_4_" gradientUnits="userSpaceOnUse" x1="57.5234" y1="17.3047" x2="93.8726" y2="60.1781">
				<stop  offset="0" style="stop-color:#93D8DE"/>
				<stop  offset="1" style="stop-color:#65C8D0"/>
			</linearGradient>
			<path fill="url(#SVGID_4_)" d="M111.211,24.35h-4.328c-4.74,0-9.145,0.489-13.219,1.426c-8.258,1.906-15.107,5.736-20.463,11.455
				c-4.717,5.054-8.023,11.549-9.912,19.402c-1.232,5.095-1.865,10.764-1.891,16.988c-5.988-1.341-10.779-4.065-14.307-8.148
				c-4.977-5.77-7.389-14.205-7.389-25.804c0-11.658,2.43-20.17,7.432-26.016c5.264-6.149,13.244-9.271,23.721-9.271h11.178
				c10.492,0,18.465,3.13,23.695,9.305C108.174,16.581,109.996,20.115,111.211,24.35z"/>
		</g>
		<g>
			<g>
				<path fill="#1B1464" d="M38.268,148.903c-0.646-0.87-1.447-1.523-2.398-1.959c-0.951-0.435-1.943-0.652-2.977-0.652
					c-1.193,0-2.291,0.243-3.295,0.729c-1.002,0.486-1.867,1.139-2.596,1.959c-0.729,0.819-1.295,1.771-1.701,2.854
					c-0.404,1.083-0.607,2.212-0.607,3.386c0,1.256,0.203,2.425,0.607,3.508c0.406,1.083,0.967,2.024,1.686,2.823
					c0.719,0.801,1.58,1.433,2.582,1.898s2.111,0.698,3.324,0.698c1.316,0,2.49-0.258,3.523-0.774s1.934-1.26,2.703-2.231
					l1.912,1.609c-0.971,1.296-2.141,2.247-3.506,2.854c-1.367,0.607-2.912,0.911-4.633,0.911c-1.537,0-2.975-0.284-4.311-0.851
					c-1.336-0.565-2.496-1.351-3.479-2.354c-0.982-1.002-1.75-2.191-2.307-3.567c-0.559-1.377-0.836-2.886-0.836-4.525
					c0-1.579,0.268-3.057,0.805-4.434c0.537-1.376,1.291-2.571,2.264-3.583c0.971-1.013,2.125-1.812,3.461-2.399
					c1.336-0.587,2.805-0.881,4.402-0.881c1.459,0,2.859,0.263,4.207,0.79c1.346,0.527,2.475,1.387,3.385,2.581L38.268,148.903z"/>
				<path fill="#1B1464" d="M56.854,166.517c-1.641,0-3.143-0.284-4.51-0.851c-1.367-0.565-2.551-1.351-3.553-2.354
					c-1.002-1.002-1.781-2.196-2.338-3.583c-0.559-1.387-0.836-2.89-0.836-4.51c0-1.619,0.277-3.123,0.836-4.51
					c0.557-1.386,1.336-2.581,2.338-3.583c1.002-1.003,2.186-1.787,3.553-2.354s2.869-0.851,4.51-0.851s3.143,0.284,4.51,0.851
					s2.551,1.351,3.553,2.354c1.002,1.002,1.781,2.197,2.338,3.583c0.557,1.387,0.836,2.891,0.836,4.51
					c0,1.62-0.279,3.123-0.836,4.51s-1.336,2.581-2.338,3.583c-1.002,1.003-2.186,1.788-3.553,2.354
					C59.996,166.232,58.494,166.517,56.854,166.517z M56.854,164.147c1.256,0,2.404-0.232,3.447-0.698s1.938-1.103,2.688-1.913
					c0.748-0.81,1.33-1.756,1.746-2.839c0.414-1.083,0.621-2.243,0.621-3.478c0-1.235-0.207-2.394-0.621-3.478
					c-0.416-1.082-0.998-2.028-1.746-2.839c-0.75-0.81-1.645-1.447-2.688-1.913s-2.191-0.698-3.447-0.698s-2.404,0.232-3.447,0.698
					s-1.938,1.104-2.688,1.913c-0.748,0.811-1.33,1.757-1.746,2.839c-0.414,1.084-0.621,2.242-0.621,3.478
					c0,1.234,0.207,2.395,0.621,3.478c0.416,1.083,0.998,2.029,1.746,2.839c0.75,0.811,1.645,1.447,2.688,1.913
					S55.598,164.147,56.854,164.147z"/>
				<path fill="#1B1464" d="M74.467,144.47h3.795l7.289,16.854h0.061l7.35-16.854h3.705v21.5h-2.551v-18.038h-0.061L86.34,165.97
					h-1.549l-7.713-18.038h-0.061v18.038h-2.551V144.47z"/>
				<path fill="#1B1464" d="M104.287,144.47h6.377c0.992,0,1.939,0.096,2.84,0.288s1.701,0.517,2.4,0.972
					c0.697,0.456,1.254,1.063,1.67,1.822c0.414,0.76,0.621,1.696,0.621,2.81c0,1.175-0.223,2.146-0.668,2.915
					s-1.016,1.377-1.715,1.822s-1.463,0.759-2.293,0.94c-0.83,0.184-1.619,0.273-2.369,0.273h-4.313v9.657h-2.551V144.47z
					 M106.838,153.944h4.313c1.275,0,2.313-0.288,3.113-0.865c0.799-0.577,1.199-1.474,1.199-2.688c0-1.215-0.4-2.11-1.199-2.688
					c-0.801-0.576-1.838-0.864-3.113-0.864h-4.313V153.944z"/>
				<path fill="#1B1464" d="M129.311,144.47h2.398l9.141,21.5h-2.975l-2.188-5.283h-10.75l-2.217,5.283h-2.885L129.311,144.47z
					 M130.465,147.75h-0.061l-4.465,10.567h8.777L130.465,147.75z"/>
				<path fill="#1B1464" d="M145.982,144.47h3.219l12.451,17.856h0.061V144.47h2.551v21.5h-3.219l-12.451-17.855h-0.061v17.855
					h-2.551V144.47z"/>
				<path fill="#1B1464" d="M176.957,156.707l-8.018-12.237h3.25l6.043,9.718l6.227-9.718h3.066l-8.018,12.237v9.263h-2.551V156.707
					z"/>
			</g>
			<g>
				<linearGradient id="SVGID_5_" gradientUnits="userSpaceOnUse" x1="68.9824" y1="179.8203" x2="75.4727" y2="179.8203">
					<stop  offset="0" style="stop-color:#93D8DE"/>
					<stop  offset="1" style="stop-color:#65C8D0"/>
				</linearGradient>
				<path fill="url(#SVGID_5_)" d="M74.527,176.384c-0.221-0.306-0.502-0.552-0.846-0.738c-0.344-0.186-0.758-0.279-1.246-0.279
					c-0.248,0-0.502,0.038-0.76,0.115c-0.258,0.076-0.49,0.192-0.701,0.351c-0.209,0.157-0.379,0.355-0.508,0.595
					c-0.129,0.238-0.193,0.521-0.193,0.845s0.061,0.592,0.186,0.803c0.123,0.21,0.287,0.389,0.492,0.536
					c0.205,0.148,0.438,0.271,0.699,0.366c0.264,0.095,0.537,0.19,0.822,0.286c0.352,0.114,0.707,0.238,1.064,0.372
					s0.678,0.308,0.965,0.523c0.285,0.214,0.518,0.486,0.699,0.816c0.182,0.329,0.271,0.747,0.271,1.253s-0.098,0.943-0.289,1.311
					c-0.193,0.368-0.445,0.671-0.752,0.91c-0.309,0.238-0.662,0.415-1.059,0.529c-0.396,0.115-0.795,0.172-1.195,0.172
					c-0.305,0-0.611-0.031-0.916-0.093c-0.307-0.063-0.598-0.155-0.875-0.279s-0.535-0.282-0.773-0.473s-0.449-0.411-0.631-0.659
					l0.889-0.658c0.221,0.362,0.529,0.666,0.924,0.909c0.396,0.243,0.863,0.365,1.396,0.365c0.258,0,0.521-0.041,0.789-0.122
					s0.508-0.205,0.723-0.372s0.393-0.372,0.529-0.616c0.139-0.243,0.209-0.527,0.209-0.852c0-0.354-0.07-0.646-0.209-0.882
					c-0.137-0.233-0.322-0.43-0.551-0.587s-0.492-0.289-0.787-0.395c-0.297-0.104-0.607-0.209-0.932-0.314
					c-0.334-0.104-0.664-0.225-0.988-0.357c-0.324-0.135-0.615-0.309-0.873-0.523s-0.467-0.48-0.623-0.795
					c-0.158-0.315-0.236-0.702-0.236-1.161c0-0.486,0.098-0.906,0.293-1.26s0.451-0.645,0.766-0.874
					c0.316-0.229,0.664-0.396,1.047-0.501c0.381-0.105,0.758-0.158,1.131-0.158c0.688,0,1.275,0.122,1.762,0.365
					c0.488,0.244,0.855,0.533,1.104,0.867L74.527,176.384z"/>
				<linearGradient id="SVGID_6_" gradientUnits="userSpaceOnUse" x1="80.5586" y1="179.8203" x2="86.3164" y2="179.8203">
					<stop  offset="0" style="stop-color:#93D8DE"/>
					<stop  offset="1" style="stop-color:#65C8D0"/>
				</linearGradient>
				<path fill="url(#SVGID_6_)" d="M81.588,183.976h4.729v0.916h-5.758V174.75h1.029V183.976z"/>
				<linearGradient id="SVGID_7_" gradientUnits="userSpaceOnUse" x1="89.7539" y1="179.8203" x2="100.3242" y2="179.8203">
					<stop  offset="0" style="stop-color:#93D8DE"/>
					<stop  offset="1" style="stop-color:#65C8D0"/>
				</linearGradient>
				<path fill="url(#SVGID_7_)" d="M100.324,179.821c0,0.773-0.133,1.485-0.4,2.135s-0.639,1.21-1.111,1.683
					c-0.471,0.473-1.031,0.843-1.676,1.11c-0.645,0.267-1.344,0.4-2.098,0.4s-1.453-0.134-2.098-0.4
					c-0.646-0.268-1.203-0.638-1.676-1.11s-0.844-1.033-1.111-1.683s-0.4-1.361-0.4-2.135s0.133-1.484,0.4-2.135
					c0.268-0.648,0.639-1.21,1.111-1.683s1.029-0.843,1.676-1.11c0.645-0.268,1.344-0.401,2.098-0.401s1.453,0.134,2.098,0.401
					s1.205,0.638,1.676,1.11c0.473,0.473,0.844,1.034,1.111,1.683C100.191,178.337,100.324,179.048,100.324,179.821z
					 M99.236,179.828c0-0.591-0.096-1.153-0.287-1.688c-0.191-0.533-0.469-1.003-0.83-1.408c-0.363-0.405-0.805-0.728-1.326-0.966
					c-0.52-0.238-1.105-0.357-1.754-0.357c-0.65,0-1.234,0.119-1.754,0.357c-0.521,0.238-0.963,0.561-1.326,0.966
					s-0.641,0.875-0.83,1.408c-0.191,0.534-0.287,1.097-0.287,1.688c0,0.592,0.096,1.153,0.287,1.688
					c0.189,0.534,0.467,1.002,0.83,1.402s0.805,0.719,1.326,0.957c0.52,0.239,1.104,0.358,1.754,0.358
					c0.648,0,1.234-0.119,1.754-0.358c0.521-0.238,0.963-0.557,1.326-0.957c0.361-0.4,0.639-0.868,0.83-1.402
					S99.236,180.42,99.236,179.828z"/>
				<linearGradient id="SVGID_8_" gradientUnits="userSpaceOnUse" x1="104.793" y1="179.8203" x2="113.8613" y2="179.8203">
					<stop  offset="0" style="stop-color:#93D8DE"/>
					<stop  offset="1" style="stop-color:#65C8D0"/>
				</linearGradient>
				<path fill="url(#SVGID_8_)" d="M113.029,176.584c-0.354-0.372-0.773-0.661-1.26-0.866s-1.045-0.309-1.676-0.309
					c-0.65,0-1.234,0.119-1.756,0.357c-0.52,0.238-0.961,0.561-1.324,0.966s-0.643,0.875-0.838,1.408
					c-0.195,0.534-0.293,1.097-0.293,1.688c0,0.592,0.098,1.153,0.293,1.688s0.475,1.002,0.838,1.402s0.805,0.719,1.324,0.957
					c0.521,0.239,1.105,0.358,1.756,0.358c0.572,0,1.098-0.063,1.576-0.187c0.477-0.124,0.863-0.281,1.16-0.473v-3.08h-2.363v-0.916
					h3.395v4.581c-0.555,0.335-1.152,0.584-1.791,0.746c-0.641,0.163-1.303,0.244-1.992,0.244c-0.764,0-1.469-0.134-2.119-0.4
					c-0.648-0.268-1.207-0.638-1.676-1.11s-0.834-1.033-1.096-1.683c-0.264-0.649-0.395-1.361-0.395-2.135s0.135-1.484,0.402-2.135
					c0.266-0.648,0.637-1.21,1.109-1.683s1.031-0.843,1.676-1.11s1.344-0.401,2.098-0.401c0.813,0,1.52,0.122,2.121,0.364
					c0.602,0.243,1.117,0.58,1.547,1.011L113.029,176.584z"/>
				<linearGradient id="SVGID_9_" gradientUnits="userSpaceOnUse" x1="118.1582" y1="179.8203" x2="127.8984" y2="179.8203">
					<stop  offset="0" style="stop-color:#93D8DE"/>
					<stop  offset="1" style="stop-color:#65C8D0"/>
				</linearGradient>
				<path fill="url(#SVGID_9_)" d="M119.289,184.892h-1.131l4.383-10.142h1.002l4.355,10.142h-1.146l-1.117-2.664h-5.242
					L119.289,184.892z M120.779,181.282h4.469l-2.234-5.386L120.779,181.282z"/>
				<linearGradient id="SVGID_10_" gradientUnits="userSpaceOnUse" x1="132.252" y1="179.8203" x2="140.5039" y2="179.8203">
					<stop  offset="0" style="stop-color:#93D8DE"/>
					<stop  offset="1" style="stop-color:#65C8D0"/>
				</linearGradient>
				<path fill="url(#SVGID_10_)" d="M139.443,183.388h0.029v-8.638h1.031v10.142h-1.289l-5.902-8.723h-0.029v8.723h-1.031V174.75
					h1.289L139.443,183.388z"/>
			</g>
		</g>
	</g>
</g>
</svg>
