<?xml version="1.0" encoding="utf-8"?>
<!-- Generator: Adobe Illustrator 16.0.0, SVG Export Plug-In . SVG Version: 6.00 Build 0)  -->
<!DOCTYPE svg PUBLIC "-//W3C//DTD SVG 1.1//EN" "http://www.w3.org/Graphics/SVG/1.1/DTD/svg11.dtd">
<svg version="1.1" xmlns="http://www.w3.org/2000/svg" xmlns:xlink="http://www.w3.org/1999/xlink" x="0px" y="0px"
	 width="205.759px" height="190.108px" viewBox="0 0 205.759 190.108" enable-background="new 0 0 205.759 190.108"
	 xml:space="preserve">
<g id="backgroud" display="none">
	
		<radialGradient id="SVGID_1_" cx="456.8809" cy="450.0781" r="1197.0635" gradientTransform="matrix(1 0 0 0.6667 0 -53.0688)" gradientUnits="userSpaceOnUse">
		<stop  offset="0" style="stop-color:#FFFFFF"/>
		<stop  offset="0.2408" style="stop-color:#F5F7F8"/>
		<stop  offset="0.6445" style="stop-color:#DBE1E6"/>
		<stop  offset="1" style="stop-color:#BFCAD2"/>
	</radialGradient>
	<rect x="-144.619" y="-160.002" display="inline" fill="url(#SVGID_1_)" width="1200" height="800"/>
</g>
<g id="object">
	<g>
		<g>
			<g>
				<path d="M34.952,134.265c-0.648-0.87-1.448-1.523-2.398-1.959c-0.952-0.435-1.944-0.653-2.977-0.653
					c-1.194,0-2.292,0.243-3.294,0.729c-1.002,0.485-1.868,1.139-2.597,1.959c-0.729,0.819-1.296,1.771-1.701,2.854
					c-0.405,1.083-0.607,2.212-0.607,3.386c0,1.255,0.202,2.425,0.607,3.507c0.405,1.084,0.967,2.025,1.686,2.824
					c0.718,0.8,1.579,1.433,2.581,1.898s2.11,0.698,3.325,0.698c1.316,0,2.49-0.258,3.523-0.774c1.032-0.517,1.933-1.26,2.703-2.231
					l1.913,1.608c-0.972,1.296-2.141,2.248-3.507,2.855s-2.911,0.911-4.631,0.911c-1.539,0-2.976-0.284-4.312-0.851
					c-1.336-0.566-2.495-1.352-3.477-2.354c-0.982-1.002-1.751-2.191-2.308-3.568c-0.557-1.376-0.835-2.885-0.835-4.524
					c0-1.579,0.268-3.057,0.805-4.434c0.536-1.377,1.291-2.571,2.262-3.584s2.126-1.812,3.462-2.398
					c1.336-0.588,2.804-0.881,4.403-0.881c1.458,0,2.859,0.263,4.206,0.789c1.346,0.527,2.475,1.388,3.386,2.582L34.952,134.265z"/>
				<path d="M53.538,151.878c-1.64,0-3.143-0.284-4.51-0.851s-2.551-1.352-3.553-2.354c-1.002-1.002-1.782-2.196-2.338-3.584
					c-0.558-1.386-0.835-2.889-0.835-4.509s0.278-3.123,0.835-4.51c0.556-1.386,1.336-2.582,2.338-3.583
					c1.002-1.003,2.187-1.787,3.553-2.354c1.367-0.567,2.87-0.851,4.51-0.851c1.64,0,3.143,0.283,4.509,0.851
					c1.367,0.566,2.551,1.351,3.553,2.354c1.002,1.001,1.781,2.197,2.338,3.583c0.557,1.387,0.835,2.89,0.835,4.51
					s-0.278,3.123-0.835,4.509c-0.557,1.388-1.336,2.582-2.338,3.584c-1.002,1.002-2.187,1.787-3.553,2.354
					C56.681,151.594,55.177,151.878,53.538,151.878z M53.538,149.509c1.255,0,2.404-0.232,3.446-0.698
					c1.043-0.466,1.939-1.104,2.688-1.913c0.749-0.81,1.331-1.756,1.746-2.84c0.415-1.082,0.622-2.242,0.622-3.477
					c0-1.235-0.208-2.395-0.622-3.478c-0.415-1.082-0.998-2.029-1.746-2.839c-0.749-0.81-1.645-1.447-2.688-1.913
					c-1.042-0.466-2.191-0.699-3.446-0.699c-1.256,0-2.405,0.233-3.447,0.699s-1.938,1.104-2.688,1.913
					c-0.749,0.81-1.331,1.757-1.746,2.839c-0.415,1.083-0.622,2.242-0.622,3.478c0,1.234,0.207,2.395,0.622,3.477
					c0.415,1.084,0.998,2.03,1.746,2.84c0.749,0.81,1.645,1.447,2.688,1.913S52.282,149.509,53.538,149.509z"/>
				<path d="M71.15,129.83h3.795l7.289,16.855h0.06l7.349-16.855h3.705v21.501h-2.551v-18.038h-0.06l-7.714,18.038h-1.548
					l-7.713-18.038h-0.061v18.038H71.15V129.83z"/>
				<path d="M100.972,129.83h6.377c0.992,0,1.938,0.097,2.84,0.289c0.9,0.192,1.7,0.517,2.399,0.972
					c0.698,0.455,1.254,1.063,1.67,1.822c0.415,0.76,0.623,1.696,0.623,2.809c0,1.175-0.223,2.146-0.668,2.916
					s-1.017,1.377-1.716,1.822c-0.698,0.445-1.463,0.759-2.293,0.94c-0.83,0.183-1.62,0.273-2.368,0.273h-4.313v9.657h-2.551V129.83
					z M103.522,139.306h4.313c1.275,0,2.312-0.288,3.113-0.866c0.799-0.576,1.199-1.473,1.199-2.687c0-1.216-0.4-2.111-1.199-2.688
					c-0.801-0.576-1.837-0.865-3.113-0.865h-4.313V139.306z"/>
				<path d="M125.995,129.83h2.399l9.141,21.501h-2.977l-2.186-5.284h-10.75l-2.217,5.284h-2.885L125.995,129.83z M127.148,133.11
					h-0.06l-4.464,10.567h8.776L127.148,133.11z"/>
				<path d="M142.666,129.83h3.22l12.451,17.856h0.06V129.83h2.552v21.501h-3.22l-12.45-17.856h-0.061v17.856h-2.552V129.83z"/>
				<path d="M173.642,142.068l-8.018-12.238h3.25l6.043,9.719l6.225-9.719h3.068l-8.018,12.238v9.263h-2.551V142.068z"/>
			</g>
			<g>
				<path fill="#FFC005" d="M71.211,161.745c-0.22-0.306-0.501-0.552-0.845-0.738s-0.759-0.279-1.246-0.279
					c-0.249,0-0.501,0.038-0.759,0.114c-0.258,0.077-0.492,0.193-0.702,0.352c-0.21,0.157-0.38,0.355-0.509,0.594
					c-0.129,0.239-0.193,0.521-0.193,0.846s0.062,0.592,0.186,0.802c0.124,0.211,0.288,0.389,0.493,0.537
					c0.205,0.148,0.438,0.271,0.7,0.365c0.262,0.096,0.536,0.191,0.822,0.287c0.352,0.114,0.707,0.238,1.064,0.372
					c0.357,0.134,0.678,0.308,0.964,0.522c0.286,0.215,0.519,0.487,0.7,0.817c0.181,0.329,0.271,0.747,0.271,1.253
					s-0.097,0.943-0.29,1.311s-0.444,0.671-0.752,0.909c-0.308,0.239-0.661,0.416-1.057,0.53c-0.396,0.114-0.795,0.172-1.196,0.172
					c-0.306,0-0.611-0.031-0.917-0.094c-0.306-0.062-0.597-0.154-0.874-0.278c-0.277-0.124-0.535-0.282-0.773-0.474
					c-0.239-0.189-0.449-0.41-0.63-0.658l0.888-0.659c0.219,0.363,0.527,0.667,0.924,0.909c0.396,0.244,0.862,0.366,1.396,0.366
					c0.258,0,0.521-0.041,0.788-0.122c0.267-0.081,0.508-0.205,0.723-0.372c0.215-0.168,0.392-0.373,0.53-0.616
					c0.139-0.243,0.208-0.528,0.208-0.853c0-0.353-0.069-0.646-0.208-0.881c-0.138-0.234-0.322-0.43-0.551-0.587
					c-0.229-0.158-0.492-0.289-0.788-0.395c-0.296-0.104-0.607-0.21-0.931-0.314c-0.334-0.105-0.664-0.225-0.988-0.358
					c-0.325-0.134-0.616-0.309-0.874-0.522c-0.258-0.216-0.465-0.48-0.623-0.796c-0.158-0.314-0.236-0.701-0.236-1.16
					c0-0.487,0.098-0.906,0.293-1.26s0.452-0.646,0.766-0.874c0.315-0.229,0.664-0.396,1.046-0.501
					c0.381-0.105,0.759-0.158,1.131-0.158c0.688,0,1.275,0.122,1.761,0.365c0.488,0.244,0.855,0.533,1.104,0.866L71.211,161.745z"/>
				<path fill="#FFC005" d="M78.272,169.336H83v0.917h-5.758v-10.142h1.031V169.336z"/>
				<path fill="#FFC005" d="M97.008,165.183c0,0.773-0.133,1.484-0.401,2.134c-0.267,0.649-0.637,1.211-1.11,1.683
					c-0.473,0.474-1.031,0.844-1.676,1.11c-0.644,0.268-1.344,0.401-2.098,0.401c-0.755,0-1.454-0.134-2.098-0.401
					c-0.645-0.267-1.204-0.637-1.676-1.11c-0.473-0.472-0.843-1.033-1.11-1.683c-0.268-0.649-0.401-1.36-0.401-2.134
					c0-0.774,0.134-1.484,0.401-2.135c0.267-0.649,0.638-1.211,1.11-1.683c0.472-0.474,1.031-0.843,1.676-1.11
					c0.645-0.268,1.343-0.401,2.098-0.401c0.754,0,1.454,0.134,2.098,0.401c0.645,0.268,1.204,0.637,1.676,1.11
					c0.473,0.472,0.843,1.033,1.11,1.683C96.875,163.698,97.008,164.408,97.008,165.183z M95.92,165.189
					c0-0.591-0.096-1.153-0.287-1.688c-0.191-0.533-0.468-1.003-0.831-1.409c-0.363-0.404-0.804-0.727-1.325-0.965
					s-1.105-0.357-1.755-0.357s-1.234,0.119-1.754,0.357c-0.521,0.238-0.962,0.561-1.325,0.965c-0.363,0.406-0.64,0.876-0.831,1.409
					c-0.191,0.534-0.286,1.097-0.286,1.688s0.095,1.153,0.286,1.688s0.468,1.001,0.831,1.401s0.805,0.72,1.325,0.958
					c0.52,0.239,1.105,0.357,1.754,0.357s1.234-0.118,1.755-0.357c0.521-0.238,0.962-0.558,1.325-0.958s0.64-0.867,0.831-1.401
					S95.92,165.78,95.92,165.189z"/>
				<path fill="#FFC005" d="M109.714,161.945c-0.354-0.372-0.773-0.661-1.261-0.867c-0.487-0.205-1.045-0.308-1.676-0.308
					c-0.649,0-1.234,0.119-1.755,0.357s-0.962,0.561-1.325,0.965c-0.363,0.406-0.643,0.876-0.838,1.409
					c-0.196,0.534-0.294,1.097-0.294,1.688s0.098,1.153,0.294,1.688c0.195,0.534,0.475,1.001,0.838,1.401
					c0.363,0.4,0.804,0.72,1.325,0.958c0.521,0.239,1.105,0.357,1.755,0.357c0.573,0,1.098-0.062,1.576-0.187
					c0.478-0.123,0.864-0.28,1.16-0.472v-3.08h-2.363v-0.917h3.395v4.582c-0.554,0.335-1.151,0.583-1.791,0.746
					c-0.641,0.163-1.304,0.244-1.992,0.244c-0.764,0-1.47-0.134-2.12-0.401c-0.649-0.267-1.208-0.637-1.676-1.11
					c-0.468-0.472-0.833-1.033-1.096-1.683s-0.394-1.36-0.394-2.134c0-0.774,0.134-1.484,0.401-2.135
					c0.267-0.649,0.638-1.211,1.11-1.683c0.473-0.474,1.031-0.843,1.676-1.11s1.344-0.401,2.098-0.401
					c0.812,0,1.519,0.121,2.121,0.363c0.601,0.244,1.117,0.581,1.546,1.012L109.714,161.945z"/>
				<path fill="#FFC005" d="M115.973,170.253h-1.132l4.383-10.142h1.002l4.355,10.142h-1.146l-1.118-2.664h-5.243L115.973,170.253z
					 M117.463,166.644h4.469l-2.235-5.387L117.463,166.644z"/>
				<path fill="#FFC005" d="M136.127,168.749h0.028v-8.638h1.031v10.142h-1.289l-5.901-8.724h-0.029v8.724h-1.031v-10.142h1.289
					L136.127,168.749z"/>
			</g>
		</g>
		<g>
			<g>
				<path fill="#221ECA" d="M125.887,29.012l-1.625-4.143c0,0-0.667-1.936-0.996-2.531c-0.154-0.279-0.505-0.685-0.809-0.988
					c-1.604-1.604-3.854-2.29-5.854-1.651c-1.241,0.396-2.417,0.946-2.417,0.946s-0.007-0.008-0.014,0l-4.129,1.805
					c-1.348,0.588-2.731,1.03-4.149,1.328c-2.946,0.622-5.989,0.622-8.921,0c-1.417-0.298-2.814-0.74-4.163-1.328l-3.873-1.688
					c0,0-2.18-1.064-2.953-1.293c-1.915-0.568-4.066,0.276-5.588,1.798c-0.263,0.263-0.678,0.819-0.845,1.137
					c-0.354,0.673-0.974,2.535-0.974,2.535l-1.598,4.073c-0.54,1.37-1.21,2.663-1.999,3.88c1.141-0.242,2.414-0.076,3.797,0.533
					l6.162,2.689l5.201,2.269l0.2,0.091l6.21,2.696c3.112,1.355,6.653,1.355,9.758,0.007l6.21-2.711l0.201-0.09l5.201-2.269
					l6.162-2.689c1.391-0.603,2.663-0.782,3.804-0.526C127.098,31.675,126.427,30.382,125.887,29.012z"/>
				<path fill="#221ECA" d="M138.024,90.155l4.143-1.626l2.531-0.995h0.014l0.008-0.007c0.346-0.235,0.663-0.498,0.967-0.803
					c1.605-1.604,2.18-3.838,1.744-5.893c0.006-0.007,0-0.014,0-0.014l-0.008-0.007l-1.03-2.358c0,0,0.007-0.007,0-0.014
					l-1.805-4.129c-0.588-1.349-1.03-2.731-1.328-4.149c-0.622-2.946-0.622-5.989,0-8.921c0.298-1.418,0.74-2.815,1.328-4.164
					l1.687-3.872l1.294-2.953c0.325-1.972-0.276-4.066-1.798-5.588c-0.264-0.264-0.547-0.505-0.844-0.706l-2.828-1.113l-4.074-1.598
					c-1.369-0.539-2.662-1.21-3.879-1.998c0.241,1.141,0.075,2.413-0.533,3.796l-2.69,6.162l-2.268,5.201l-0.09,0.2l-2.697,6.211
					c-1.355,3.111-1.355,6.652-0.007,9.758l2.711,6.211l0.09,0.2l2.268,5.201l2.69,6.161c0.602,1.391,0.781,2.663,0.526,3.804
					C135.362,91.365,136.655,90.694,138.024,90.155z"/>
				<g>
					<path fill="#221ECA" d="M76.872,102.303l1.625,4.143c0,0,0.667,1.936,0.996,2.531c0.154,0.279,0.505,0.685,0.809,0.988
						c1.604,1.604,3.854,2.29,5.854,1.652c1.241-0.396,2.417-0.946,2.417-0.946s0.007,0.007,0.014,0l4.129-1.806
						c1.349-0.588,2.731-1.03,4.149-1.327c2.946-0.623,5.989-0.623,8.921,0c1.417,0.297,2.814,0.739,4.163,1.327l3.873,1.688
						c0,0,2.18,1.064,2.953,1.294c1.915,0.567,4.066-0.277,5.588-1.799c0.263-0.263,0.678-0.819,0.845-1.137
						c0.354-0.673,0.974-2.535,0.974-2.535l1.598-4.073c0.539-1.369,1.21-2.663,1.999-3.88c-1.141,0.242-2.414,0.076-3.797-0.532
						l-6.162-2.69l-5.201-2.269l-0.2-0.09l-6.21-2.697c-3.112-1.355-6.653-1.355-9.758-0.007l-6.21,2.711l-0.201,0.09l-5.201,2.269
						l-6.162,2.69c-1.39,0.602-2.663,0.781-3.803,0.525C75.661,99.64,76.332,100.934,76.872,102.303z"/>
					<path fill="#221ECA" d="M64.734,41.16l-4.143,1.625l-2.531,0.996h-0.014l-0.007,0.007c-0.346,0.234-0.664,0.498-0.968,0.802
						c-1.604,1.604-2.178,3.839-1.743,5.893c-0.007,0.007,0,0.014,0,0.014l0.007,0.007l1.031,2.358c0,0-0.007,0.007,0,0.014
						l1.805,4.129c0.588,1.349,1.031,2.731,1.328,4.149c0.623,2.946,0.623,5.989,0,8.922c-0.297,1.417-0.74,2.814-1.328,4.163
						l-1.687,3.873l-1.293,2.953c-0.325,1.971,0.276,4.066,1.798,5.588c0.263,0.263,0.547,0.505,0.844,0.705l2.829,1.113
						l4.074,1.598c1.369,0.539,2.663,1.21,3.879,1.999c-0.242-1.142-0.076-2.414,0.533-3.797l2.69-6.162l2.268-5.201l0.09-0.2
						l2.697-6.21c1.356-3.112,1.356-6.653,0.007-9.759l-2.711-6.21l-0.09-0.201l-2.268-5.2l-2.69-6.162
						c-0.602-1.391-0.781-2.663-0.526-3.804C67.397,39.949,66.104,40.62,64.734,41.16z"/>
				</g>
			</g>
			<g>
				<path fill="#FFC005" d="M92.771,22.041l-4.114-1.796c0,0-1.857-0.905-2.516-1.095c-0.31-0.089-0.849-0.129-1.283-0.129
					c-2.289,0-4.382,1.116-5.354,2.998c-0.603,1.167-1.049,2.398-1.049,2.398s-0.01,0-0.01,0.01l-1.657,4.232
					c-0.542,1.381-1.213,2.684-2.013,3.906c-1.657,2.546-3.828,4.716-6.363,6.364c-1.223,0.799-2.535,1.479-3.917,2.021
					l-3.966,1.559c0,0-2.314,0.796-3.029,1.185c-1.771,0.961-2.703,3.097-2.703,5.268c0,0.375,0.101,1.068,0.208,1.414
					c0.228,0.731,1.114,2.502,1.114,2.502l1.766,4.045c0.479,1.102,0.861,2.229,1.151,3.376c0.08,0.314,0.463,0.422,0.682,0.182
					c0.631-0.694,1.495-1.265,2.596-1.692l6.314-2.477l5.328-2.092l0.207-0.079l6.353-2.505c3.187-1.253,5.712-3.778,6.965-6.955
					l2.496-6.363l0.079-0.207l2.091-5.327l2.476-6.314c0.435-1.099,1-1.968,1.695-2.598c0.241-0.218,0.134-0.603-0.181-0.682
					C94.994,22.899,93.87,22.519,92.771,22.041z"/>
				<path fill="#FF0C5D" d="M145.036,56.993l1.796-4.114l1.095-2.516l0.01-0.01v-0.01c0.079-0.414,0.119-0.828,0.119-1.263
					c0-2.288-1.184-4.291-2.96-5.445c0-0.01-0.01-0.01-0.01-0.01h-0.011l-2.416-0.947c0,0,0-0.01-0.01-0.01l-4.232-1.657
					c-1.381-0.543-2.684-1.214-3.906-2.013c-2.546-1.657-4.716-3.828-6.364-6.363c-0.799-1.223-1.48-2.535-2.022-3.916l-1.559-3.966
					l-1.162-2.973c-0.014-0.037-0.033-0.073-0.057-0.105c-1.177-1.609-3.084-2.654-5.232-2.654c-0.375,0-0.75,0.03-1.105,0.099
					l-2.811,1.224l-4.045,1.766c-1.101,0.479-2.228,0.861-3.375,1.151c-0.314,0.079-0.422,0.464-0.182,0.682
					c0.694,0.632,1.265,1.496,1.693,2.597l2.476,6.314l2.091,5.327l0.079,0.207l2.506,6.353c1.253,3.187,3.778,5.712,6.955,6.965
					l6.363,2.496l0.207,0.079l5.327,2.092l6.313,2.476c1.1,0.436,1.969,1.001,2.598,1.695c0.219,0.241,0.604,0.135,0.684-0.181
					C144.177,59.217,144.559,58.092,145.036,56.993z"/>
				<g>
					<path fill="#FFC005" d="M110.084,109.274l4.114,1.795c0,0,1.856,0.905,2.515,1.095c0.31,0.09,0.849,0.129,1.283,0.129
						c2.289,0,4.382-1.116,5.354-2.998c0.603-1.167,1.048-2.398,1.048-2.398s0.01,0,0.01-0.01l1.657-4.232
						c0.542-1.381,1.213-2.684,2.013-3.906c1.657-2.546,3.828-4.716,6.362-6.363c1.225-0.799,2.536-1.479,3.917-2.022l3.966-1.559
						c0,0,2.314-0.796,3.029-1.184c1.771-0.962,2.703-3.098,2.703-5.269c0-0.375-0.102-1.068-0.209-1.413
						c-0.227-0.732-1.113-2.503-1.113-2.503l-1.767-4.045c-0.478-1.102-0.86-2.229-1.151-3.376
						c-0.078-0.314-0.463-0.422-0.682-0.182c-0.631,0.694-1.495,1.265-2.596,1.693l-6.314,2.476l-5.327,2.092l-0.207,0.079
						l-6.354,2.506c-3.187,1.253-5.712,3.778-6.965,6.954l-2.496,6.363l-0.079,0.207l-2.092,5.328l-2.476,6.313
						c-0.435,1.1-1,1.968-1.695,2.598c-0.241,0.218-0.134,0.603,0.181,0.683C107.86,108.415,108.985,108.796,110.084,109.274z"/>
					<path fill="#FF0C5D" d="M57.818,74.321l-1.796,4.114l-1.095,2.516l-0.01,0.01v0.01c-0.079,0.414-0.119,0.828-0.119,1.263
						c0,2.289,1.184,4.291,2.96,5.445c0,0.01,0.01,0.01,0.01,0.01h0.009l2.417,0.947c0,0,0,0.01,0.01,0.01l4.232,1.657
						c1.381,0.543,2.684,1.214,3.907,2.013c2.545,1.658,4.715,3.828,6.363,6.363c0.799,1.224,1.48,2.535,2.022,3.916l1.559,3.967
						l1.162,2.972c0.015,0.037,0.034,0.073,0.058,0.105c1.177,1.61,3.083,2.654,5.232,2.654c0.375,0,0.75-0.03,1.104-0.099
						l2.812-1.224l4.044-1.766c1.101-0.479,2.228-0.86,3.375-1.151c0.314-0.079,0.422-0.463,0.182-0.682
						c-0.694-0.632-1.265-1.496-1.693-2.597l-2.476-6.313l-2.092-5.327l-0.079-0.207l-2.505-6.354
						c-1.253-3.187-3.778-5.712-6.955-6.965l-6.363-2.496l-0.207-0.079l-5.327-2.092l-6.314-2.476c-1.099-0.436-1.968-1-2.598-1.695
						c-0.218-0.241-0.603-0.134-0.682,0.181C58.677,72.098,58.295,73.223,57.818,74.321z"/>
				</g>
			</g>
		</g>
	</g>
</g>
</svg>
