<?xml version="1.0" encoding="utf-8"?>
<!-- Generator: Adobe Illustrator 16.0.0, SVG Export Plug-In . SVG Version: 6.00 Build 0)  -->
<!DOCTYPE svg PUBLIC "-//W3C//DTD SVG 1.1//EN" "http://www.w3.org/Graphics/SVG/1.1/DTD/svg11.dtd">
<svg version="1.1" xmlns="http://www.w3.org/2000/svg" xmlns:xlink="http://www.w3.org/1999/xlink" x="0px" y="0px"
	 width="205.759px" height="190.108px" viewBox="0 0 205.759 190.108" enable-background="new 0 0 205.759 190.108"
	 xml:space="preserve">
<g id="backgroud" display="none">
	
		<radialGradient id="SVGID_1_" cx="-2.1191" cy="658.0781" r="1197.0635" gradientTransform="matrix(1 0 0 0.6667 0 16.2573)" gradientUnits="userSpaceOnUse">
		<stop  offset="0" style="stop-color:#FFFFFF"/>
		<stop  offset="0.2408" style="stop-color:#F5F7F8"/>
		<stop  offset="0.6445" style="stop-color:#DBE1E6"/>
		<stop  offset="1" style="stop-color:#BFCAD2"/>
	</radialGradient>
	<rect x="-603.619" y="47.998" display="inline" fill="url(#SVGID_1_)" width="1200" height="800"/>
</g>
<g id="object">
	<g>
		<g>
			<g>
				<path d="M38.268,134.955c-0.648-0.87-1.447-1.523-2.398-1.959c-0.953-0.435-1.943-0.653-2.977-0.653
					c-1.195,0-2.293,0.243-3.295,0.729c-1.002,0.485-1.867,1.139-2.596,1.959c-0.729,0.819-1.297,1.771-1.701,2.854
					c-0.406,1.083-0.607,2.212-0.607,3.386c0,1.255,0.201,2.425,0.607,3.507c0.404,1.084,0.967,2.025,1.686,2.824
					c0.719,0.8,1.578,1.433,2.58,1.898c1.004,0.466,2.111,0.698,3.326,0.698c1.316,0,2.49-0.258,3.523-0.774
					c1.031-0.517,1.932-1.26,2.703-2.231l1.912,1.608c-0.973,1.296-2.141,2.248-3.508,2.855s-2.91,0.911-4.631,0.911
					c-1.539,0-2.977-0.284-4.313-0.851s-2.494-1.352-3.477-2.354s-1.752-2.191-2.309-3.568c-0.557-1.376-0.834-2.885-0.834-4.524
					c0-1.579,0.268-3.057,0.805-4.434c0.535-1.377,1.289-2.571,2.262-3.584s2.127-1.812,3.463-2.398
					c1.336-0.588,2.803-0.881,4.402-0.881c1.457,0,2.859,0.263,4.207,0.789c1.346,0.527,2.475,1.388,3.385,2.582L38.268,134.955z"/>
				<path d="M56.854,152.568c-1.641,0-3.145-0.284-4.51-0.851c-1.367-0.566-2.551-1.352-3.553-2.354s-1.783-2.196-2.34-3.584
					c-0.557-1.386-0.834-2.889-0.834-4.509s0.277-3.123,0.834-4.51c0.557-1.386,1.338-2.582,2.34-3.583
					c1.002-1.003,2.186-1.787,3.553-2.354c1.365-0.567,2.869-0.851,4.51-0.851c1.639,0,3.143,0.283,4.51,0.851
					c1.365,0.566,2.551,1.351,3.553,2.354c1.002,1.001,1.781,2.197,2.338,3.583c0.557,1.387,0.834,2.89,0.834,4.51
					s-0.277,3.123-0.834,4.509c-0.557,1.388-1.336,2.582-2.338,3.584s-2.188,1.787-3.553,2.354
					C59.996,152.284,58.492,152.568,56.854,152.568z M56.854,150.199c1.254,0,2.402-0.232,3.445-0.698s1.939-1.104,2.688-1.913
					c0.75-0.81,1.332-1.756,1.746-2.84c0.416-1.082,0.623-2.242,0.623-3.477c0-1.235-0.207-2.395-0.623-3.478
					c-0.414-1.082-0.996-2.029-1.746-2.839c-0.748-0.81-1.645-1.447-2.688-1.913s-2.191-0.699-3.445-0.699
					c-1.256,0-2.404,0.233-3.447,0.699s-1.939,1.104-2.688,1.913c-0.75,0.81-1.332,1.757-1.746,2.839
					c-0.416,1.083-0.623,2.242-0.623,3.478c0,1.234,0.207,2.395,0.623,3.477c0.414,1.084,0.996,2.03,1.746,2.84
					c0.748,0.81,1.645,1.447,2.688,1.913S55.598,150.199,56.854,150.199z"/>
				<path d="M74.465,130.521h3.797l7.289,16.855h0.061l7.348-16.855h3.705v21.501h-2.551v-18.038h-0.061l-7.713,18.038h-1.549
					l-7.713-18.038h-0.063v18.038h-2.551V130.521z"/>
				<path d="M104.287,130.521h6.377c0.992,0,1.938,0.097,2.84,0.289c0.9,0.192,1.699,0.517,2.398,0.972s1.256,1.063,1.67,1.822
					c0.416,0.76,0.623,1.696,0.623,2.809c0,1.175-0.223,2.146-0.668,2.916s-1.018,1.377-1.715,1.822
					c-0.699,0.445-1.465,0.759-2.293,0.94c-0.832,0.183-1.621,0.273-2.369,0.273h-4.313v9.657h-2.551V130.521z M106.838,139.996
					h4.313c1.275,0,2.313-0.288,3.113-0.866c0.799-0.576,1.199-1.473,1.199-2.687c0-1.216-0.4-2.111-1.199-2.688
					c-0.801-0.576-1.838-0.865-3.113-0.865h-4.313V139.996z"/>
				<path d="M129.311,130.521h2.398l9.141,21.501h-2.977l-2.186-5.284h-10.75l-2.217,5.284h-2.887L129.311,130.521z
					 M130.463,133.801h-0.061l-4.463,10.567h8.775L130.463,133.801z"/>
				<path d="M145.982,130.521h3.219l12.451,17.856h0.061v-17.856h2.551v21.501h-3.221l-12.449-17.856h-0.061v17.856h-2.551V130.521z
					"/>
				<path d="M176.957,142.759l-8.018-12.238h3.25l6.043,9.719l6.225-9.719h3.068l-8.018,12.238v9.263h-2.551V142.759z"/>
			</g>
			<g>
				<path fill="#FFC005" d="M74.525,162.436c-0.219-0.306-0.5-0.552-0.844-0.738s-0.76-0.279-1.246-0.279
					c-0.25,0-0.502,0.038-0.76,0.114c-0.258,0.077-0.492,0.193-0.701,0.352c-0.211,0.157-0.381,0.355-0.51,0.594
					c-0.129,0.239-0.193,0.521-0.193,0.846s0.063,0.592,0.186,0.802c0.125,0.211,0.289,0.389,0.494,0.537
					c0.203,0.148,0.438,0.271,0.699,0.365c0.262,0.096,0.535,0.191,0.822,0.287c0.352,0.114,0.705,0.238,1.063,0.372
					s0.68,0.308,0.965,0.522s0.52,0.487,0.701,0.817c0.18,0.329,0.27,0.747,0.27,1.253s-0.096,0.943-0.289,1.311
					s-0.443,0.671-0.752,0.909c-0.309,0.239-0.66,0.416-1.057,0.53s-0.795,0.172-1.197,0.172c-0.305,0-0.609-0.031-0.916-0.094
					c-0.305-0.062-0.596-0.154-0.873-0.278s-0.535-0.282-0.773-0.474c-0.238-0.189-0.449-0.41-0.631-0.658l0.889-0.659
					c0.219,0.363,0.527,0.667,0.924,0.909c0.396,0.244,0.861,0.366,1.396,0.366c0.258,0,0.521-0.041,0.787-0.122
					c0.268-0.081,0.51-0.205,0.725-0.372c0.215-0.168,0.391-0.373,0.529-0.616s0.207-0.528,0.207-0.853
					c0-0.353-0.068-0.646-0.207-0.881s-0.322-0.43-0.551-0.587c-0.23-0.158-0.492-0.289-0.789-0.395
					c-0.295-0.104-0.605-0.21-0.93-0.314c-0.336-0.105-0.664-0.225-0.988-0.358c-0.326-0.134-0.617-0.309-0.875-0.522
					c-0.258-0.216-0.465-0.48-0.623-0.796c-0.156-0.314-0.236-0.701-0.236-1.16c0-0.487,0.098-0.906,0.295-1.26
					c0.195-0.354,0.451-0.646,0.766-0.874c0.314-0.229,0.664-0.396,1.045-0.501c0.383-0.105,0.76-0.158,1.133-0.158
					c0.688,0,1.273,0.122,1.762,0.365c0.486,0.244,0.854,0.533,1.102,0.866L74.525,162.436z"/>
				<path fill="#FFC005" d="M81.588,170.026h4.727v0.917h-5.758v-10.142h1.031V170.026z"/>
				<path fill="#FFC005" d="M100.324,165.873c0,0.773-0.135,1.484-0.402,2.134s-0.637,1.211-1.109,1.683
					c-0.473,0.474-1.031,0.844-1.676,1.11c-0.645,0.268-1.344,0.401-2.1,0.401c-0.754,0-1.453-0.134-2.098-0.401
					c-0.645-0.267-1.203-0.637-1.676-1.11c-0.473-0.472-0.842-1.033-1.109-1.683s-0.402-1.36-0.402-2.134
					c0-0.774,0.135-1.484,0.402-2.135c0.268-0.649,0.637-1.211,1.109-1.683c0.473-0.474,1.031-0.843,1.676-1.11
					s1.344-0.401,2.098-0.401c0.756,0,1.455,0.134,2.1,0.401s1.203,0.637,1.676,1.11c0.473,0.472,0.842,1.033,1.109,1.683
					C100.189,164.389,100.324,165.099,100.324,165.873z M99.234,165.88c0-0.591-0.096-1.153-0.285-1.688
					c-0.191-0.533-0.469-1.003-0.832-1.409c-0.363-0.404-0.805-0.727-1.324-0.965c-0.521-0.238-1.105-0.357-1.756-0.357
					c-0.648,0-1.232,0.119-1.754,0.357c-0.52,0.238-0.961,0.561-1.324,0.965c-0.363,0.406-0.641,0.876-0.832,1.409
					c-0.191,0.534-0.285,1.097-0.285,1.688s0.094,1.153,0.285,1.688s0.469,1.001,0.832,1.401s0.805,0.72,1.324,0.958
					c0.521,0.239,1.105,0.357,1.754,0.357c0.65,0,1.234-0.118,1.756-0.357c0.52-0.238,0.961-0.558,1.324-0.958
					s0.641-0.867,0.832-1.401C99.139,167.033,99.234,166.471,99.234,165.88z"/>
				<path fill="#FFC005" d="M113.029,162.636c-0.354-0.372-0.773-0.661-1.262-0.867c-0.486-0.205-1.045-0.308-1.676-0.308
					c-0.648,0-1.234,0.119-1.754,0.357s-0.963,0.561-1.324,0.965c-0.363,0.406-0.643,0.876-0.838,1.409
					c-0.197,0.534-0.295,1.097-0.295,1.688s0.098,1.153,0.295,1.688c0.195,0.534,0.475,1.001,0.838,1.401
					c0.361,0.4,0.805,0.72,1.324,0.958c0.52,0.239,1.105,0.357,1.754,0.357c0.574,0,1.1-0.062,1.576-0.187
					c0.479-0.123,0.865-0.28,1.16-0.472v-3.08h-2.363v-0.917h3.395v4.582c-0.553,0.335-1.15,0.583-1.789,0.746
					c-0.641,0.163-1.305,0.244-1.992,0.244c-0.764,0-1.471-0.134-2.119-0.401c-0.65-0.267-1.209-0.637-1.676-1.11
					c-0.469-0.472-0.834-1.033-1.096-1.683c-0.264-0.649-0.395-1.36-0.395-2.134c0-0.774,0.133-1.484,0.4-2.135
					c0.268-0.649,0.639-1.211,1.111-1.683c0.473-0.474,1.031-0.843,1.676-1.11s1.344-0.401,2.098-0.401
					c0.813,0,1.518,0.121,2.121,0.363c0.602,0.244,1.117,0.581,1.547,1.012L113.029,162.636z"/>
				<path fill="#FFC005" d="M119.289,170.943h-1.133l4.385-10.142h1.002l4.354,10.142h-1.145l-1.117-2.664h-5.244L119.289,170.943z
					 M120.779,167.334h4.469l-2.234-5.387L120.779,167.334z"/>
				<path fill="#FFC005" d="M139.443,169.439h0.027v-8.638h1.031v10.142h-1.289l-5.9-8.724h-0.029v8.724h-1.031v-10.142h1.289
					L139.443,169.439z"/>
			</g>
		</g>
		<g>
			<path fill="#FFC005" d="M124.822,77.219c0,2.594-0.32,5.181-0.924,7.714c-0.061,0.251-0.109,0.509-0.176,0.76
				c0,0.015-0.008,0.021-0.008,0.027c-1.445,5.5-4.313,10.675-8.623,14.993c-3.438,3.437-7.422,5.949-11.674,7.558
				c-0.006,0.007-0.014,0.007-0.02,0.014c-3.789,1.433-7.803,2.153-11.809,2.153c-8.211,0-16.393-3.016-22.783-9.052
				c-0.23-0.218-0.467-0.448-0.699-0.673c-0.223-0.23-0.455-0.461-0.672-0.699c-6.037-6.39-9.051-14.572-9.051-22.782
				c0-0.883,0.041-1.758,0.107-2.634c1.283,1.792,2.73,3.504,4.34,5.113c5.248,5.255,11.611,8.779,18.328,10.552
				c0.012,0.007,0.025,0.014,0.047,0.014c2.125,0.563,4.291,0.95,6.471,1.161c0.455,0.041,0.918,0.074,1.371,0.108
				c0.844,0.048,1.678,0.075,2.52,0.075c0.014,0,0.027,0.007,0.041,0.007c2.309,0,4.611-0.197,6.887-0.591
				c2.281-0.395,4.529-0.984,6.729-1.766c0.277-0.095,0.557-0.19,0.836-0.292h0.006c5.215-1.982,10.111-5.079,14.307-9.269
				c1.611-1.609,3.049-3.321,4.334-5.12c0.033,0.373,0.061,0.746,0.08,1.127C124.809,76.213,124.822,76.716,124.822,77.219z"/>
			<path fill="#FFC005" d="M151.102,50.912c0,0.883-0.041,1.772-0.109,2.648c-1.291-1.793-2.73-3.504-4.34-5.113
				c-5.256-5.256-11.611-8.78-18.326-10.553c-0.014-0.007-0.035-0.014-0.049-0.014c-2.553-0.679-5.16-1.1-7.781-1.27
				c-0.869-0.054-1.744-0.081-2.621-0.081c-0.611,0-1.229,0.014-1.84,0.04c-0.801,0.041-1.604,0.103-2.404,0.184
				c-0.537,0.055-1.066,0.122-1.602,0.197c-0.266,0.04-0.531,0.081-0.795,0.129c-0.115,0.014-0.238,0.034-0.354,0.055
				c-0.027,0.006-0.055,0.006-0.082,0.013c-0.121,0.021-0.236,0.041-0.359,0.068c-0.264,0.048-0.529,0.095-0.795,0.149
				c-0.264,0.055-0.529,0.115-0.787,0.177c-0.137,0.027-0.266,0.061-0.395,0.088c-0.066,0.021-0.135,0.034-0.195,0.048
				c-0.068,0.014-0.129,0.034-0.197,0.054c-0.266,0.062-0.529,0.13-0.789,0.197c-0.324,0.089-0.65,0.177-0.977,0.271
				c-0.035,0.014-0.068,0.021-0.102,0.034c-0.027,0.014-0.055,0.021-0.082,0.027c-0.014,0-0.027,0.007-0.047,0.014
				c-0.008,0-0.014,0-0.021,0.007c-0.055,0.014-0.115,0.027-0.176,0.054c-0.027,0.007-0.049,0.014-0.074,0.021
				c-0.027,0.007-0.055,0.021-0.082,0.027c-0.156,0.048-0.313,0.102-0.469,0.149c-0.137,0.048-0.271,0.089-0.4,0.136
				c-0.021,0.007-0.049,0.014-0.068,0.021c-0.068,0.021-0.137,0.048-0.203,0.067c-0.068,0.021-0.137,0.048-0.205,0.068
				c-0.066,0.021-0.129,0.048-0.195,0.074c-0.26,0.089-0.51,0.184-0.762,0.279h-0.006c-5.215,1.976-10.111,5.079-14.301,9.269
				c-1.609,1.609-3.057,3.32-4.34,5.113c-0.027-0.367-0.055-0.74-0.074-1.107c-0.021-0.502-0.033-0.997-0.033-1.5
				c0-0.36,0.025-0.713,0.033-1.073c0.074-2.274,0.381-4.549,0.916-6.77c0.049-0.218,0.088-0.429,0.15-0.646
				c0-0.007,0-0.014,0.006-0.021c1.447-5.5,4.305-10.675,8.625-14.993c3.436-3.436,7.422-5.948,11.68-7.564
				c3.814-1.453,7.863-2.159,11.916-2.159c8.162,0,16.311,3.028,22.688,9.052c0.23,0.217,0.461,0.441,0.693,0.672v0.007
				c0.23,0.224,0.453,0.455,0.678,0.692C148.08,34.541,151.094,42.709,151.102,50.912z"/>
			<path fill="#FF0C5D" d="M89.111,79.711c1.609,1.608,3.32,3.055,5.113,4.339c-0.869,0.067-1.738,0.108-2.615,0.108
				c-2.852,0-5.711-0.367-8.48-1.101c-0.014,0-0.021-0.006-0.027-0.006c-5.494-1.447-10.676-4.313-14.986-8.624
				c-3.436-3.437-5.955-7.415-7.572-11.666c-1.439-3.803-2.158-7.823-2.158-11.843c0-8.203,3.014-16.378,9.051-22.775
				c0.217-0.23,0.449-0.462,0.68-0.692c0.225-0.23,0.461-0.455,0.691-0.679c6.396-6.037,14.58-9.052,22.797-9.052
				c0.875,0,1.752,0.04,2.627,0.108c-0.041,0.027-0.082,0.055-0.121,0.088c-1.752,1.264-3.424,2.683-4.998,4.251
				c-5.256,5.256-8.787,11.618-10.553,18.335c-0.008,0.013-0.014,0.026-0.02,0.04c-0.896,3.409-1.346,6.913-1.346,10.41
				c0,4.902,0.883,9.799,2.648,14.45C81.818,70.618,84.914,75.521,89.111,79.711z"/>
			<path fill="#221ECA" d="M151.102,77.238c0,8.203-3.016,16.379-9.053,22.775c-0.225,0.231-0.447,0.462-0.678,0.692
				c-0.232,0.231-0.463,0.456-0.693,0.68c-6.396,6.036-14.572,9.052-22.775,9.052c-0.883,0-1.766-0.041-2.641-0.109
				c1.791-1.283,3.504-2.729,5.111-4.332c5.25-5.256,8.781-11.611,10.553-18.327c0.008-0.021,0.014-0.034,0.014-0.048
				c0.34-1.276,0.611-2.566,0.822-3.87c0.143-0.862,0.252-1.731,0.34-2.601c0.121-1.311,0.189-2.621,0.189-3.932
				c0-4.91-0.883-9.813-2.648-14.471c-0.99-2.607-2.262-5.134-3.809-7.537c-1.541-2.397-3.369-4.665-5.461-6.757
				c-1.607-1.616-3.326-3.056-5.125-4.346c0.373-0.027,0.746-0.055,1.127-0.075c0.496-0.021,0.998-0.034,1.5-0.034
				c0.713,0,1.426,0.021,2.146,0.068c2.131,0.136,4.25,0.482,6.334,1.032c0.008,0,0.014,0.007,0.027,0.007
				c5.494,1.446,10.668,4.312,14.988,8.624c3.436,3.436,5.947,7.415,7.57,11.673C150.381,69.199,151.102,73.219,151.102,77.238z"/>
		</g>
	</g>
</g>
</svg>
