<?xml version="1.0" encoding="utf-8"?>
<!-- Generator: Adobe Illustrator 16.0.0, SVG Export Plug-In . SVG Version: 6.00 Build 0)  -->
<!DOCTYPE svg PUBLIC "-//W3C//DTD SVG 1.1//EN" "http://www.w3.org/Graphics/SVG/1.1/DTD/svg11.dtd">
<svg version="1.1" xmlns="http://www.w3.org/2000/svg" xmlns:xlink="http://www.w3.org/1999/xlink" x="0px" y="0px"
	 width="205.759px" height="190.108px" viewBox="0 0 205.759 190.108" enable-background="new 0 0 205.759 190.108"
	 xml:space="preserve">
<g id="backgroud" display="none">
	
		<radialGradient id="SVGID_1_" cx="223.8809" cy="450.0781" r="1197.0635" gradientTransform="matrix(1 0 0 0.6667 0 -53.0688)" gradientUnits="userSpaceOnUse">
		<stop  offset="0" style="stop-color:#FFFFFF"/>
		<stop  offset="0.2408" style="stop-color:#F5F7F8"/>
		<stop  offset="0.6445" style="stop-color:#DBE1E6"/>
		<stop  offset="1" style="stop-color:#BFCAD2"/>
	</radialGradient>
	<rect x="-377.619" y="-160.002" display="inline" fill="url(#SVGID_1_)" width="1200" height="800"/>
</g>
<g id="object">
	<g>
		<g>
			<g>
				<path fill="#1B1464" d="M39.283,138.565c-0.648-0.87-1.447-1.523-2.398-1.958c-0.953-0.436-1.944-0.653-2.977-0.653
					c-1.195,0-2.293,0.242-3.295,0.729s-1.867,1.139-2.597,1.959c-0.729,0.82-1.296,1.771-1.7,2.854
					c-0.406,1.084-0.607,2.212-0.607,3.386c0,1.256,0.201,2.425,0.607,3.508c0.404,1.083,0.967,2.024,1.685,2.824
					c0.719,0.8,1.579,1.432,2.581,1.897c1.003,0.466,2.111,0.698,3.326,0.698c1.316,0,2.49-0.258,3.522-0.774
					c1.032-0.516,1.933-1.26,2.703-2.231l1.913,1.609c-0.973,1.296-2.141,2.247-3.508,2.854s-2.911,0.911-4.631,0.911
					c-1.539,0-2.977-0.284-4.313-0.851c-1.336-0.565-2.495-1.351-3.477-2.354c-0.982-1.002-1.752-2.191-2.309-3.567
					c-0.557-1.377-0.835-2.885-0.835-4.525c0-1.579,0.269-3.057,0.805-4.434s1.29-2.571,2.263-3.583
					c0.972-1.013,2.126-1.812,3.462-2.399c1.336-0.587,2.804-0.88,4.403-0.88c1.457,0,2.859,0.262,4.206,0.789
					c1.347,0.526,2.475,1.387,3.386,2.581L39.283,138.565z"/>
				<path fill="#1B1464" d="M57.868,156.179c-1.64,0-3.144-0.284-4.51-0.851c-1.366-0.565-2.551-1.351-3.553-2.354
					c-1.002-1.002-1.782-2.196-2.339-3.583s-0.835-2.89-0.835-4.51c0-1.619,0.278-3.123,0.835-4.51
					c0.557-1.386,1.337-2.581,2.339-3.583c1.002-1.003,2.187-1.787,3.553-2.354s2.87-0.85,4.51-0.85s3.144,0.283,4.51,0.85
					s2.551,1.351,3.553,2.354c1.002,1.002,1.781,2.197,2.339,3.583c0.557,1.387,0.834,2.891,0.834,4.51
					c0,1.62-0.277,3.123-0.834,4.51c-0.558,1.387-1.337,2.581-2.339,3.583c-1.002,1.003-2.187,1.788-3.553,2.354
					C61.011,155.895,59.507,156.179,57.868,156.179z M57.868,153.81c1.255,0,2.403-0.232,3.446-0.698s1.938-1.103,2.688-1.913
					c0.749-0.81,1.331-1.756,1.746-2.839s0.623-2.242,0.623-3.478c0-1.234-0.208-2.394-0.623-3.478
					c-0.415-1.082-0.997-2.028-1.746-2.839c-0.749-0.81-1.645-1.447-2.688-1.913s-2.191-0.698-3.446-0.698
					c-1.256,0-2.404,0.232-3.446,0.698c-1.043,0.466-1.939,1.104-2.688,1.913c-0.75,0.811-1.332,1.757-1.746,2.839
					c-0.416,1.084-0.623,2.243-0.623,3.478c0,1.235,0.207,2.395,0.623,3.478c0.414,1.083,0.996,2.029,1.746,2.839
					c0.748,0.811,1.645,1.447,2.688,1.913C55.463,153.577,56.612,153.81,57.868,153.81z"/>
				<path fill="#1B1464" d="M75.48,134.132h3.797l7.288,16.854h0.061l7.349-16.854h3.705v21.5h-2.551v-18.038h-0.061l-7.713,18.038
					h-1.549l-7.714-18.038h-0.062v18.038H75.48V134.132z"/>
				<path fill="#1B1464" d="M105.302,134.132h6.377c0.991,0,1.938,0.096,2.84,0.288c0.9,0.192,1.699,0.517,2.398,0.972
					c0.699,0.456,1.255,1.063,1.67,1.822c0.415,0.76,0.623,1.696,0.623,2.81c0,1.175-0.223,2.146-0.668,2.915
					s-1.018,1.377-1.716,1.822c-0.699,0.446-1.464,0.759-2.293,0.94c-0.831,0.184-1.62,0.273-2.368,0.273h-4.313v9.657h-2.551
					V134.132z M107.853,143.606h4.313c1.275,0,2.313-0.288,3.112-0.865s1.199-1.474,1.199-2.688c0-1.215-0.399-2.11-1.199-2.688
					s-1.837-0.865-3.112-0.865h-4.313V143.606z"/>
				<path fill="#1B1464" d="M130.325,134.132h2.399l9.141,21.5h-2.977l-2.187-5.283h-10.75l-2.216,5.283h-2.887L130.325,134.132z
					 M131.478,137.412h-0.061l-4.463,10.567h8.775L131.478,137.412z"/>
				<path fill="#1B1464" d="M146.997,134.132h3.219l12.451,17.855h0.061v-17.855h2.551v21.5h-3.22l-12.449-17.855h-0.062v17.855
					h-2.551V134.132z"/>
				<path fill="#1B1464" d="M177.972,146.37l-8.018-12.238h3.249l6.044,9.718l6.225-9.718h3.067l-8.017,12.238v9.262h-2.551V146.37z
					"/>
			</g>
			<g>
				<linearGradient id="SVGID_2_" gradientUnits="userSpaceOnUse" x1="69.9976" y1="169.4824" x2="76.4858" y2="169.4824">
					<stop  offset="0" style="stop-color:#93D8DE"/>
					<stop  offset="1" style="stop-color:#65C8D0"/>
				</linearGradient>
				<path fill="url(#SVGID_2_)" d="M75.541,166.046c-0.219-0.306-0.501-0.552-0.845-0.738c-0.343-0.186-0.759-0.279-1.246-0.279
					c-0.249,0-0.501,0.038-0.759,0.115c-0.258,0.076-0.492,0.193-0.701,0.351c-0.211,0.157-0.381,0.355-0.51,0.595
					c-0.129,0.238-0.193,0.521-0.193,0.845s0.063,0.593,0.186,0.802c0.124,0.211,0.289,0.39,0.493,0.537
					c0.204,0.148,0.438,0.271,0.7,0.366c0.262,0.095,0.535,0.19,0.821,0.286c0.353,0.114,0.706,0.238,1.063,0.372
					s0.68,0.308,0.965,0.523c0.285,0.214,0.52,0.486,0.7,0.816c0.181,0.329,0.271,0.747,0.271,1.253s-0.096,0.943-0.289,1.311
					c-0.193,0.368-0.443,0.671-0.752,0.909c-0.309,0.239-0.66,0.416-1.057,0.53c-0.396,0.115-0.795,0.172-1.197,0.172
					c-0.305,0-0.609-0.031-0.916-0.093c-0.305-0.063-0.597-0.155-0.873-0.279c-0.277-0.124-0.535-0.281-0.773-0.473
					c-0.239-0.19-0.449-0.41-0.631-0.659l0.889-0.658c0.219,0.362,0.527,0.666,0.924,0.909s0.861,0.365,1.396,0.365
					c0.258,0,0.521-0.04,0.787-0.122c0.268-0.081,0.509-0.205,0.725-0.372c0.215-0.167,0.391-0.372,0.529-0.616
					c0.139-0.243,0.207-0.527,0.207-0.852c0-0.354-0.068-0.647-0.207-0.882c-0.139-0.233-0.322-0.43-0.552-0.586
					c-0.229-0.158-0.491-0.29-0.788-0.395c-0.295-0.105-0.605-0.21-0.931-0.315c-0.335-0.104-0.663-0.225-0.987-0.357
					c-0.326-0.134-0.617-0.309-0.875-0.523s-0.465-0.48-0.623-0.795c-0.157-0.315-0.236-0.702-0.236-1.161
					c0-0.486,0.098-0.906,0.294-1.26c0.196-0.353,0.451-0.645,0.767-0.874c0.314-0.229,0.664-0.396,1.045-0.501
					c0.383-0.105,0.76-0.158,1.132-0.158c0.688,0,1.274,0.122,1.762,0.365c0.487,0.244,0.854,0.533,1.103,0.867L75.541,166.046z"/>
				<linearGradient id="SVGID_3_" gradientUnits="userSpaceOnUse" x1="81.5718" y1="169.4824" x2="87.3296" y2="169.4824">
					<stop  offset="0" style="stop-color:#93D8DE"/>
					<stop  offset="1" style="stop-color:#65C8D0"/>
				</linearGradient>
				<path fill="url(#SVGID_3_)" d="M82.603,173.638h4.727v0.916h-5.758v-10.142h1.031V173.638z"/>
				<linearGradient id="SVGID_4_" gradientUnits="userSpaceOnUse" x1="90.7671" y1="169.4824" x2="101.3384" y2="169.4824">
					<stop  offset="0" style="stop-color:#93D8DE"/>
					<stop  offset="1" style="stop-color:#65C8D0"/>
				</linearGradient>
				<path fill="url(#SVGID_4_)" d="M101.338,169.483c0,0.773-0.134,1.485-0.401,2.135s-0.637,1.21-1.109,1.683
					s-1.031,0.843-1.676,1.11c-0.645,0.267-1.345,0.4-2.1,0.4c-0.754,0-1.453-0.134-2.098-0.4c-0.645-0.268-1.203-0.638-1.676-1.11
					s-0.843-1.033-1.109-1.683c-0.268-0.649-0.402-1.361-0.402-2.135s0.135-1.484,0.402-2.135c0.267-0.648,0.637-1.21,1.109-1.683
					s1.031-0.843,1.676-1.11c0.645-0.267,1.344-0.401,2.098-0.401c0.755,0,1.455,0.135,2.1,0.401
					c0.645,0.268,1.203,0.638,1.676,1.11s0.842,1.034,1.109,1.683C101.205,167.999,101.338,168.71,101.338,169.483z M100.25,169.49
					c0-0.591-0.096-1.153-0.285-1.688c-0.191-0.533-0.469-1.003-0.832-1.408s-0.805-0.728-1.324-0.966
					c-0.521-0.238-1.105-0.357-1.756-0.357c-0.648,0-1.233,0.119-1.754,0.357s-0.962,0.561-1.324,0.966
					c-0.363,0.405-0.641,0.875-0.832,1.408c-0.191,0.534-0.286,1.097-0.286,1.688c0,0.592,0.095,1.153,0.286,1.688
					c0.191,0.533,0.469,1.001,0.832,1.401c0.362,0.4,0.804,0.719,1.324,0.957c0.521,0.239,1.105,0.358,1.754,0.358
					c0.65,0,1.234-0.119,1.756-0.358c0.52-0.238,0.961-0.557,1.324-0.957s0.641-0.868,0.832-1.401
					C100.154,170.644,100.25,170.082,100.25,169.49z"/>
				<linearGradient id="SVGID_5_" gradientUnits="userSpaceOnUse" x1="105.8081" y1="169.4824" x2="114.8745" y2="169.4824">
					<stop  offset="0" style="stop-color:#93D8DE"/>
					<stop  offset="1" style="stop-color:#65C8D0"/>
				</linearGradient>
				<path fill="url(#SVGID_5_)" d="M114.043,166.246c-0.353-0.372-0.772-0.661-1.261-0.866c-0.486-0.205-1.045-0.309-1.676-0.309
					c-0.649,0-1.234,0.119-1.754,0.357c-0.521,0.238-0.963,0.561-1.325,0.966c-0.363,0.405-0.642,0.875-0.838,1.408
					c-0.196,0.534-0.294,1.097-0.294,1.688c0,0.592,0.098,1.153,0.294,1.688c0.196,0.533,0.475,1.001,0.838,1.401
					c0.362,0.4,0.805,0.719,1.325,0.957c0.52,0.239,1.104,0.358,1.754,0.358c0.574,0,1.099-0.063,1.576-0.187
					s0.864-0.281,1.16-0.473v-3.08h-2.363v-0.916h3.395v4.581c-0.554,0.335-1.15,0.584-1.79,0.746
					c-0.64,0.163-1.304,0.244-1.991,0.244c-0.764,0-1.471-0.134-2.12-0.4c-0.649-0.268-1.208-0.638-1.676-1.11
					s-0.833-1.033-1.096-1.683s-0.394-1.361-0.394-2.135s0.133-1.484,0.4-2.135c0.268-0.648,0.638-1.21,1.11-1.683
					s1.031-0.843,1.676-1.11c0.645-0.267,1.345-0.401,2.099-0.401c0.812,0,1.518,0.122,2.12,0.364
					c0.602,0.243,1.117,0.58,1.547,1.011L114.043,166.246z"/>
				<linearGradient id="SVGID_6_" gradientUnits="userSpaceOnUse" x1="119.1714" y1="169.4824" x2="128.9116" y2="169.4824">
					<stop  offset="0" style="stop-color:#93D8DE"/>
					<stop  offset="1" style="stop-color:#65C8D0"/>
				</linearGradient>
				<path fill="url(#SVGID_6_)" d="M120.303,174.554h-1.132l4.384-10.142h1.003l4.354,10.142h-1.146l-1.117-2.664h-5.243
					L120.303,174.554z M121.793,170.944h4.469l-2.234-5.386L121.793,170.944z"/>
				<linearGradient id="SVGID_7_" gradientUnits="userSpaceOnUse" x1="133.2671" y1="169.4824" x2="141.5171" y2="169.4824">
					<stop  offset="0" style="stop-color:#93D8DE"/>
					<stop  offset="1" style="stop-color:#65C8D0"/>
				</linearGradient>
				<path fill="url(#SVGID_7_)" d="M140.458,173.05h0.028v-8.638h1.031v10.142h-1.289l-5.901-8.723h-0.028v8.723h-1.031v-10.142
					h1.289L140.458,173.05z"/>
			</g>
		</g>
		<g>
			<g>
				<linearGradient id="SVGID_8_" gradientUnits="userSpaceOnUse" x1="124.0132" y1="87.0146" x2="147.2002" y2="87.0146">
					<stop  offset="0" style="stop-color:#93D8DE"/>
					<stop  offset="1" style="stop-color:#65C8D0"/>
				</linearGradient>
				<path fill="url(#SVGID_8_)" d="M128.273,65.973c1.697-0.465,3.68-0.583,5.447,0.149c0.66,0.273,1.314,0.581,1.963,0.923
					c0.641,0.342,1.254,0.717,1.868,1.13c1.243,0.826,2.36,1.791,3.448,2.911c2.116,2.229,3.855,5.065,4.945,8.395
					c1.091,3.321,1.52,7.131,1.092,11.124c-0.436,3.979-1.74,8.127-3.929,12.033c-1.304,2.308-3.482,4.146-5.762,5.077
					c-0.573,0.229-1.154,0.401-1.722,0.524c-0.567,0.124-1.125,0.194-1.676,0.191c-1.098,0-2.098-0.201-2.969-0.661
					c-1.729-0.917-2.518-2.527-2.61-4.261c-0.091-1.75,0.475-3.646,1.64-5.371c1.439-2.161,2.428-4.544,2.937-6.932
					c0.509-2.392,0.55-4.777,0.161-7.001c-0.096-0.556-0.231-1.109-0.375-1.64c-0.072-0.267-0.147-0.527-0.231-0.787
					c-0.09-0.263-0.185-0.522-0.283-0.776c-0.198-0.51-0.409-1-0.644-1.477c-0.247-0.483-0.509-0.948-0.785-1.394
					c-1.111-1.79-2.533-3.316-4.13-4.568c-1.328-1.058-2.188-2.174-2.495-3.146c-0.339-0.991-0.113-1.864,0.753-2.698
					c0.392-0.375,0.871-0.713,1.458-1.006C126.937,66.418,127.577,66.164,128.273,65.973z"/>
			</g>
			<g>
				<linearGradient id="SVGID_9_" gradientUnits="userSpaceOnUse" x1="81.8252" y1="99.7881" x2="119.48" y2="99.7881">
					<stop  offset="0" style="stop-color:#221ECA"/>
					<stop  offset="1" style="stop-color:#6461DA"/>
				</linearGradient>
				<path fill="url(#SVGID_9_)" d="M116.689,85.297c1.237,1.224,2.334,2.879,2.598,4.792c0.102,0.722,0.154,1.422,0.18,2.148
					c0.023,0.72,0.02,1.467-0.035,2.195c-0.055,0.728-0.146,1.465-0.277,2.212c-0.128,0.751-0.313,1.468-0.528,2.215
					c-0.874,2.95-2.464,5.879-4.804,8.483c-2.334,2.604-5.415,4.871-9.064,6.492c-3.645,1.62-7.899,2.599-12.393,2.641
					c-2.666,0.034-5.354-0.958-7.307-2.465c-1.955-1.531-3.158-3.544-3.229-5.496c-0.067-1.951,0.935-3.438,2.393-4.387
					c0.728-0.466,1.586-0.826,2.511-1.039c0.918-0.197,1.926-0.299,2.967-0.217c2.593,0.17,5.154-0.164,7.476-0.917
					c1.159-0.361,2.267-0.869,3.292-1.418c0.516-0.295,1.011-0.603,1.484-0.921c0.473-0.31,0.931-0.686,1.361-1.04
					c0.865-0.704,1.645-1.539,2.33-2.36c0.343-0.421,0.662-0.871,0.959-1.313c0.295-0.451,0.57-0.882,0.818-1.362
					c0.999-1.866,1.613-3.858,1.904-5.861c0.121-0.853,0.326-1.593,0.582-2.211c0.125-0.321,0.264-0.609,0.414-0.861
					c0.076-0.126,0.155-0.243,0.238-0.351c0.08-0.112,0.162-0.223,0.248-0.32c0.701-0.749,1.553-1.039,2.706-0.688
					c0.257,0.073,0.521,0.18,0.79,0.314c0.267,0.131,0.529,0.271,0.799,0.446C115.636,84.354,116.183,84.805,116.689,85.297z"/>
			</g>
			<g>
				<linearGradient id="SVGID_10_" gradientUnits="userSpaceOnUse" x1="53.3779" y1="79.7744" x2="94.519" y2="79.7744">
					<stop  offset="0" style="stop-color:#93D8DE"/>
					<stop  offset="1" style="stop-color:#65C8D0"/>
				</linearGradient>
				<path fill="url(#SVGID_10_)" d="M94.184,84.93c-0.441,1.679-1.33,3.454-2.858,4.641c-2.256,1.726-4.945,3.1-7.936,3.799
					c-2.99,0.714-6.316,0.803-9.74,0.087c-3.418-0.711-6.928-2.231-10.176-4.594c-3.248-2.354-6.186-5.576-8.475-9.444
					c-1.344-2.294-1.877-5.11-1.507-7.554c0.041-0.305,0.093-0.604,0.155-0.896c0.07-0.292,0.154-0.577,0.246-0.854
					c0.186-0.553,0.41-1.07,0.674-1.543c0.533-0.946,1.252-1.708,2.066-2.229c1.64-1.03,3.43-0.908,4.995-0.124
					c0.786,0.395,1.507,0.957,2.146,1.649c0.33,0.347,0.638,0.727,0.916,1.137c0.275,0.41,0.521,0.852,0.767,1.32
					c1.142,2.329,2.694,4.388,4.518,6.021c1.817,1.639,3.876,2.859,5.985,3.635c1.082,0.375,2.131,0.665,3.223,0.824
					c1.063,0.175,2.151,0.227,3.198,0.194c1.044-0.029,2.104-0.18,3.095-0.388c1.01-0.222,1.996-0.533,2.93-0.903
					c0.785-0.311,1.551-0.521,2.212-0.604c0.327-0.037,0.658-0.07,0.954-0.064c0.302,0,0.564,0.044,0.826,0.094
					c1.02,0.228,1.695,0.84,1.973,2.019C94.623,82.201,94.549,83.531,94.184,84.93z"/>
			</g>
			<g>
				<linearGradient id="SVGID_11_" gradientUnits="userSpaceOnUse" x1="64.3145" y1="44.1826" x2="87.501" y2="44.1826">
					<stop  offset="0" style="stop-color:#221ECA"/>
					<stop  offset="1" style="stop-color:#6461DA"/>
				</linearGradient>
				<path fill="url(#SVGID_11_)" d="M83.242,65.225c-1.697,0.465-3.68,0.583-5.447-0.149c-0.66-0.273-1.314-0.58-1.962-0.923
					c-0.642-0.342-1.254-0.717-1.869-1.13c-1.243-0.826-2.36-1.791-3.448-2.911c-2.116-2.229-3.855-5.065-4.944-8.395
					c-1.092-3.321-1.521-7.131-1.093-11.124c0.436-3.979,1.74-8.127,3.929-12.033c1.304-2.308,3.482-4.146,5.763-5.077
					c0.572-0.229,1.153-0.4,1.721-0.524s1.125-0.195,1.676-0.191c1.098,0,2.098,0.201,2.969,0.66
					c1.729,0.918,2.518,2.527,2.61,4.262c0.091,1.75-0.475,3.646-1.64,5.371c-1.439,2.161-2.428,4.544-2.937,6.932
					c-0.509,2.392-0.55,4.777-0.161,7.001c0.096,0.555,0.232,1.109,0.374,1.64c0.073,0.267,0.148,0.527,0.232,0.787
					c0.09,0.263,0.185,0.521,0.283,0.776c0.198,0.51,0.409,1,0.644,1.477c0.246,0.483,0.509,0.947,0.785,1.394
					c1.111,1.79,2.533,3.316,4.13,4.568c1.328,1.057,2.188,2.174,2.495,3.146c0.338,0.991,0.113,1.864-0.752,2.698
					c-0.393,0.375-0.871,0.713-1.459,1.006C84.578,64.779,83.938,65.033,83.242,65.225z"/>
			</g>
			<g>
				<linearGradient id="SVGID_12_" gradientUnits="userSpaceOnUse" x1="92.0352" y1="31.4092" x2="129.6899" y2="31.4092">
					<stop  offset="0" style="stop-color:#93D8DE"/>
					<stop  offset="1" style="stop-color:#65C8D0"/>
				</linearGradient>
				<path fill="url(#SVGID_12_)" d="M94.826,45.9c-1.237-1.224-2.334-2.879-2.598-4.792c-0.102-0.722-0.154-1.422-0.18-2.148
					c-0.023-0.72-0.019-1.467,0.035-2.195c0.055-0.728,0.146-1.465,0.277-2.212c0.128-0.752,0.313-1.468,0.529-2.215
					c0.873-2.95,2.463-5.879,4.803-8.483c2.334-2.604,5.415-4.872,9.064-6.492c3.645-1.621,7.899-2.599,12.393-2.641
					c2.666-0.034,5.354,0.957,7.307,2.465c1.955,1.531,3.158,3.543,3.23,5.496c0.066,1.951-0.936,3.438-2.394,4.387
					c-0.727,0.466-1.586,0.826-2.511,1.039c-0.918,0.197-1.926,0.299-2.967,0.217c-2.593-0.17-5.154,0.164-7.476,0.917
					c-1.159,0.361-2.268,0.869-3.292,1.418c-0.516,0.295-1.011,0.603-1.484,0.921c-0.473,0.31-0.931,0.686-1.362,1.04
					c-0.864,0.704-1.644,1.539-2.329,2.36c-0.343,0.421-0.662,0.871-0.959,1.313c-0.296,0.451-0.57,0.882-0.818,1.362
					c-0.999,1.866-1.613,3.858-1.904,5.861c-0.121,0.853-0.326,1.593-0.582,2.21c-0.125,0.321-0.264,0.61-0.414,0.862
					c-0.076,0.126-0.155,0.243-0.237,0.35c-0.081,0.112-0.163,0.224-0.249,0.32c-0.701,0.75-1.553,1.04-2.706,0.688
					c-0.257-0.073-0.521-0.18-0.79-0.314c-0.267-0.131-0.529-0.271-0.799-0.447C95.878,46.842,95.332,46.392,94.826,45.9z"/>
			</g>
			<g>
				<linearGradient id="SVGID_13_" gradientUnits="userSpaceOnUse" x1="116.9956" y1="51.4229" x2="158.1357" y2="51.4229">
					<stop  offset="0" style="stop-color:#221ECA"/>
					<stop  offset="1" style="stop-color:#6461DA"/>
				</linearGradient>
				<path fill="url(#SVGID_13_)" d="M117.331,46.268c0.441-1.679,1.33-3.454,2.859-4.641c2.255-1.727,4.944-3.1,7.934-3.799
					c2.991-0.714,6.318-0.803,9.741-0.087c3.418,0.711,6.928,2.23,10.176,4.594c3.248,2.354,6.186,5.576,8.475,9.444
					c1.344,2.294,1.877,5.109,1.506,7.554c-0.04,0.305-0.092,0.604-0.154,0.896c-0.07,0.292-0.154,0.577-0.246,0.854
					c-0.186,0.553-0.41,1.07-0.674,1.543c-0.533,0.946-1.252,1.708-2.066,2.229c-1.639,1.031-3.429,0.909-4.994,0.124
					c-0.787-0.394-1.509-0.956-2.146-1.648c-0.33-0.347-0.638-0.727-0.916-1.137c-0.275-0.41-0.521-0.852-0.767-1.32
					c-1.142-2.329-2.694-4.388-4.518-6.021c-1.817-1.64-3.875-2.859-5.985-3.635c-1.082-0.375-2.131-0.665-3.223-0.824
					c-1.063-0.176-2.151-0.227-3.198-0.194c-1.044,0.029-2.104,0.18-3.095,0.388c-1.01,0.222-1.996,0.533-2.93,0.903
					c-0.785,0.31-1.551,0.521-2.212,0.604c-0.327,0.037-0.658,0.07-0.954,0.064c-0.302,0-0.564-0.045-0.826-0.094
					c-1.02-0.228-1.695-0.84-1.973-2.019C116.892,48.996,116.965,47.666,117.331,46.268z"/>
			</g>
		</g>
	</g>
</g>
</svg>
